<svg height="512" viewBox="0 0 512 512" width="512" xmlns="http://www.w3.org/2000/svg"><g><g fill="#57a4ff"><circle cx="128" cy="400" r="64"/><path d="m64 224h128v80h-128z"/><path d="m64 224h128v80h-128z"/><circle cx="128" cy="400" r="64"/><path d="m64 144h32v48h-32z"/><path d="m376 40a24 24 0 1 1 -24-24 23.927 23.927 0 0 1 24 24z"/><path d="m368 57.88a23.975 23.975 0 0 1 -32 0z"/><path d="m472 40a24 24 0 1 1 -24-24 23.927 23.927 0 0 1 24 24z"/><path d="m464 57.88a23.975 23.975 0 0 1 -32 0z"/></g><g fill="#004fac"><path d="m56 224v80a8 8 0 0 0 8 8h128a8 8 0 0 0 8-8v-80a8 8 0 0 0 -8-8h-128a8 8 0 0 0 -8 8zm16 8h112v64h-112z"/><path d="m128 328a72 72 0 1 0 72 72 72.081 72.081 0 0 0 -72-72zm0 128a56 56 0 1 1 56-56 56.064 56.064 0 0 1 -56 56z"/><path d="m448 8a31.974 31.974 0 0 0 -24 53.13v34.87a24.031 24.031 0 0 0 16 22.62v137.38h-48a32.03 32.03 0 0 1 -32-32v-105.38a24.031 24.031 0 0 0 16-22.62v-34.87a32 32 0 1 0 -48 0v34.87a24.031 24.031 0 0 0 16 22.62v105.38a48.051 48.051 0 0 0 48 48h48v184a32.03 32.03 0 0 1 -32 32h-112a32.03 32.03 0 0 1 -32-32v-400a48.051 48.051 0 0 0 -48-48h-96a48.051 48.051 0 0 0 -48 48v80h-8a8 8 0 0 0 -8 8v40a24.032 24.032 0 0 0 -24 24v272a24.032 24.032 0 0 0 24 24h144a24.032 24.032 0 0 0 24-24v-272a24.032 24.032 0 0 0 -24-24h-96v-40a8 8 0 0 0 -8-8h-8v-80a32.03 32.03 0 0 1 32-32h96a32.03 32.03 0 0 1 32 32v400a48.051 48.051 0 0 0 48 48h112a48.051 48.051 0 0 0 48-48v-337.38a24.031 24.031 0 0 0 16-22.62v-34.87a31.974 31.974 0 0 0 -24-53.13zm-112 32a16 16 0 1 1 16 16 16.021 16.021 0 0 1 -16-16zm16 64a8.011 8.011 0 0 1 -8-8v-25.01a32.188 32.188 0 0 0 16 0v25.01a8.011 8.011 0 0 1 -8 8zm-280 48h16v32h-16zm128 48a8.011 8.011 0 0 1 8 8v272a8.011 8.011 0 0 1 -8 8h-144a8.011 8.011 0 0 1 -8-8v-272a8.011 8.011 0 0 1 8-8zm256-104a8 8 0 0 1 -16 0v-25.01a32.188 32.188 0 0 0 16 0zm-8-40a16 16 0 1 1 16-16 16.021 16.021 0 0 1 -16 16z"/><path d="m136 240h-48a8 8 0 0 0 0 16h48a8 8 0 0 0 0-16z"/><path d="m168 240h-8a8 8 0 0 0 0 16h8a8 8 0 0 0 0-16z"/></g></g></svg>