<svg id="Layer_1" enable-background="new 0 0 48 48" height="48" viewBox="0 0 48 48" width="48" xmlns="http://www.w3.org/2000/svg"><path d="m24 2c-12.1308594 0-22 9.8691406-22 22s9.8691406 22 22 22 22-9.8691406 22-22-9.8691406-22-22-22z" fill="#fff"/><g fill="#ccc"><path d="m24 2c-12.1308594 0-22 9.8691406-22 22s9.8691406 22 22 22 22-9.8691406 22-22-9.8691406-22-22-22zm0 40c-9.925293 0-18-8.074707-18-18s8.074707-18 18-18 18 8.074707 18 18-8.074707 18-18 18z"/><path d="m36 24c0 1.1044922-.8955078 2-2 2h-8v8c0 1.1044922-.8955078 2-2 2s-2-.8955078-2-2v-8h-8c-1.1044922 0-2-.8955078-2-2s.8955078-2 2-2h8v-8c0-1.1044922.8955078-2 2-2s2 .8955078 2 2v8h8c1.1044922 0 2 .8955078 2 2z"/></g></svg>