<svg height="512" viewBox="0 0 48 48" width="512" xmlns="http://www.w3.org/2000/svg"><g id="_19-desk" data-name="19-desk"><path d="m1 22h46v4h-46z" fill="#00c4a2"/><path d="m43 26h4v18h-4z" fill="#008f76"/><path d="m1 26h4v18h-4z" fill="#008f76"/><path d="m33 26h10v8h-10z" fill="#1985ed"/><path d="m5 26h10v5h-10z" fill="#1985ed"/><path d="m5 31h10v5h-10z" fill="#1985ed"/><path d="m5 36h10v6h-10z" fill="#1985ed"/><path d="m33 34h10v4h-10z" fill="#1985ed"/><path d="m33 38h10v6h-10z" fill="#1985ed"/><path d="m39 8h8v10h-8z" fill="#40a1ff"/><path d="m1 8h8v10h-8z" fill="#40a1ff"/><circle cx="5" cy="13" fill="#ffd869" r="2"/><circle cx="43" cy="13" fill="#ffd869" r="2"/><path d="m14 16a2 2 0 0 0 2 2h16a2 2 0 0 0 2-2v-1h-20z" fill="#1985ed"/><path d="m32 4h-16a2 2 0 0 0 -2 2v9h20v-9a2 2 0 0 0 -2-2z" fill="#c7fff5"/><path d="m21 18h6v4h-6z" fill="#004078"/><path d="m42 18h2v4h-2z" fill="#40a1ff"/><path d="m4 18h2v4h-2z" fill="#40a1ff"/><path d="m1 22h46v4h-46z" fill="#27f5d1"/><path d="m43 26h4v18h-4z" fill="#008f76"/><path d="m1 26h4v18h-4z" fill="#008f76"/><g fill="#1985ed"><path d="m33 26h10v8h-10z"/><path d="m5 26h10v5h-10z"/><path d="m5 31h10v5h-10z"/><path d="m5 36h10v6h-10z"/><path d="m33 34h10v4h-10z"/><path d="m33 38h10v6h-10z"/><path d="m14 16a2 2 0 0 0 2 2h16a2 2 0 0 0 2-2v-1h-20z"/></g><path d="m32 17h-16a2 2 0 0 1 -2-2v1a2 2 0 0 0 2 2h16a2 2 0 0 0 2-2v-1a2 2 0 0 1 -2 2z" fill="#004989"/><path d="m32 4h-16a2 2 0 0 0 -2 2v9h20v-9a2 2 0 0 0 -2-2z" fill="#7cfce6"/><path d="m21 18h6v4h-6z" fill="#004989"/><path d="m42 18h2v4h-2z" fill="#40a1ff"/><path d="m4 18h2v4h-2z" fill="#40a1ff"/><path d="m39 8h8v10h-8z" fill="#1674cf"/><path d="m40 9h6v8h-6z" fill="#40a1ff"/><circle cx="43" cy="13" fill="#1674cf" r="3"/><circle cx="43" cy="13" fill="#ffd869" r="2"/><path d="m1 8h8v10h-8z" fill="#1674cf"/><path d="m2 9h6v8h-6z" fill="#40a1ff"/><circle cx="5" cy="13" fill="#1674cf" r="3"/><circle cx="5" cy="13" fill="#ffd869" r="2"/><path d="m4 18h2v1h-2z" fill="#005db5"/><path d="m42 18h2v1h-2z" fill="#005db5"/><path d="m39 8 1 1.25v-.25h6v4 3.75l1 1.25v-10z" fill="#40a1ff"/><path d="m44.866 15.332 1.134 1.418v-3.75a2.981 2.981 0 0 1 -1.134 2.332z" fill="#5cafff"/><path d="m43 10a3 3 0 0 1 3 3v-4h-6v.25l1.134 1.418a2.971 2.971 0 0 1 1.866-.668z" fill="#5cafff"/><path d="m43 10a2.971 2.971 0 0 0 -1.866.668l.622.777a1.991 1.991 0 1 1 2.488 3.11l.622.777a2.989 2.989 0 0 0 -1.866-5.332z" fill="#1985ed"/><path d="m45 13a1.99 1.99 0 0 0 -3.244-1.555l2.488 3.11a1.99 1.99 0 0 0 .756-1.555z" fill="#ffeb95"/><path d="m1 8 1 1.25v-.25h6v4 3.75l1 1.25v-10z" fill="#40a1ff"/><path d="m6.866 15.332 1.134 1.418v-3.75a2.981 2.981 0 0 1 -1.134 2.332z" fill="#5cafff"/><path d="m5 10a3 3 0 0 1 3 3v-4h-6v.25l1.134 1.418a2.971 2.971 0 0 1 1.866-.668z" fill="#5cafff"/><path d="m5 10a2.971 2.971 0 0 0 -1.866.668l.622.777a1.991 1.991 0 1 1 2.488 3.11l.622.777a2.989 2.989 0 0 0 -1.866-5.332z" fill="#1985ed"/><path d="m7 13a1.99 1.99 0 0 0 -3.244-1.555l2.488 3.11a1.99 1.99 0 0 0 .756-1.555z" fill="#ffeb95"/><path d="m32 4h-16a2 2 0 0 0 -2 2v9h1v-8.182a1.809 1.809 0 0 1 1.8-1.818h14.4a1.809 1.809 0 0 1 1.8 1.818v8.182h1v-9a2 2 0 0 0 -2-2z" fill="#40a1ff"/><path d="m31.2 5h-14.2c0 4.975 7.156 9 16 9v-7.182a1.809 1.809 0 0 0 -1.8-1.818z" fill="#c7fff5"/><path d="m1 24h46v2h-46z" fill="#00c4a2"/><path d="m43 26h4v2h-4z" fill="#005748"/><path d="m1 26h4v2h-4z" fill="#005748"/><path d="m3 28h2v16h-2z" fill="#00ab8d"/><path d="m45 28h2v16h-2z" fill="#00ab8d"/><path d="m6 27h8v3h-8z" fill="#5cafff"/><path d="m6 32h8v3h-8z" fill="#5cafff"/><path d="m6 37h8v4h-8z" fill="#5cafff"/><path d="m15 27v-1h-10v1 15h1v-5h9v-1h-9v-4h9v-1h-9v-4z" fill="#1674cf"/><path d="m33 26v1h9v6h-9v1h9v4h-9v1h9v5h1v-17-1z" fill="#1674cf"/><path d="m34 28h8v4h-8z" fill="#5cafff"/><path d="m34 35h8v2h-8z" fill="#5cafff"/><path d="m34 39h8v4h-8z" fill="#5cafff"/><path d="m21 18h6v2h-6z" fill="#003869"/><path d="m36 29h4v2h-4z" fill="#8dc7ff"/><path d="m8 38h4v2h-4z" fill="#8dc7ff"/><path d="m36 35h4v2h-4z" fill="#8dc7ff"/><path d="m36 40h4v2h-4z" fill="#8dc7ff"/><rect fill="#c7fff5" height="1" rx=".5" width="16" x="26" y="23"/><rect fill="#c7fff5" height="1" rx=".5" width="2" x="43" y="23"/><ellipse cx="29" cy="7" fill="#f6fafd" rx="1.65" ry="2.297" transform="matrix(.707 -.707 .707 .707 3.549 22.565)"/><ellipse cx="31" cy="11" fill="#f6fafd" rx=".825" ry="1.148" transform="matrix(.707 -.707 .707 .707 1.306 25.152)"/><ellipse cx="24.746" cy="9.5" fill="#f6fafd" rx=".413" ry=".574" transform="matrix(.707 -.707 .707 .707 .534 20.289)"/></g></svg>