<svg id="Capa_1" enable-background="new 0 0 512 512" height="512" viewBox="0 0 512 512" width="512" xmlns="http://www.w3.org/2000/svg"><g><g><g><g><path d="m107.87 257.164h-25.891v75.151c0 29.166 23.644 52.81 52.81 52.81h44.756v-26.107h-42.286c-16.231 0-29.389-13.158-29.389-29.389z" fill="#528fd8"/><path d="m122.242 258.25h-48.453c-5.409 0-9.795-4.385-9.795-9.795 0-9.397 7.617-17.014 17.014-17.014h34.014c9.397 0 17.014 7.617 17.014 17.014 0 5.41-4.385 9.795-9.794 9.795z" fill="#004281"/></g></g><g><g><path d="m404.13 257.164h25.891v75.151c0 29.166-23.644 52.81-52.81 52.81h-44.756v-26.107h42.286c16.231 0 29.389-13.158 29.389-29.389z" fill="#528fd8"/><path d="m389.758 258.25h48.453c5.409 0 9.795-4.385 9.795-9.795 0-9.397-7.617-17.014-17.014-17.014h-34.014c-9.397 0-17.014 7.617-17.014 17.014 0 5.41 4.385 9.795 9.794 9.795z" fill="#004281"/></g></g></g><g><g fill="#528fd8"><path d="m383.979 461.921-111.631-27.309c-.601-.147-1.217-.221-1.836-.221h-29.024c-.619 0-1.235.074-1.836.221l-111.632 27.309c-8.092 1.979-13.743 9.18-13.743 17.512v6.206c0 4.267 3.459 7.726 7.726 7.726 4.268 0 7.726-3.459 7.726-7.726v-6.206c0-1.19.807-2.219 1.963-2.502l110.727-27.088h5.854v35.795c0 4.267 3.459 7.726 7.726 7.726s7.726-3.459 7.726-7.726v-35.795h5.854l110.726 27.088c1.156.283 1.964 1.311 1.964 2.502v6.206c0 4.267 3.459 7.726 7.726 7.726s7.726-3.459 7.726-7.726v-6.206c.002-8.332-5.65-15.533-13.742-17.512z"/><path d="m241.488 402.223h29.024v39.894h-29.024z"/></g><g fill="#004281"><ellipse cx="122.003" cy="498.798" rx="13.206" ry="13.202"/><ellipse cx="256" cy="498.798" rx="13.206" ry="13.202"/><ellipse cx="389.997" cy="498.798" rx="13.206" ry="13.202"/><path d="m270.512 408.958h-29.024l-26.573-23.833h82.17z"/><path d="m354.054 385.125h-196.108c-6.722 0-12.736-4.176-15.083-10.472l-10.573-28.361c-3.029-8.125 2.982-16.777 11.656-16.777h224.11c8.674 0 14.685 8.652 11.656 16.777l-10.573 28.361c-2.349 6.297-8.363 10.472-15.085 10.472z"/><path d="m337.486 329.515s-16.357-255.255-20.658-262.631c-.74-1.269-1.395-2.597-1.957-3.976l-17.641-43.288c-4.682-11.489-15.75-19.095-28.157-19.351l-13.073-.269-13.073.269c-12.407.256-23.475 7.862-28.157 19.351l-17.642 43.288c-.562 1.379-1.217 2.706-1.957 3.975-4.3 7.376-20.658 262.631-20.658 262.631l81.487 20.232z"/></g><path d="m316.828 66.884c-.74-1.269-1.395-2.597-1.957-3.976l-17.641-43.288c-4.682-11.489-15.75-19.095-28.157-19.351l-13.073-.269-13.072.269c-2.586.053-5.107.443-7.531 1.104 9.206 2.509 16.92 9.153 20.626 18.247l17.642 43.288c.562 1.379 1.501 8.689 28.863 20.539 7.834 3.394 18.601-9.187 14.3-16.563z" fill="#00366d"/><path d="m316.755 329.515 14.913 55.61h-151.336l14.913-55.61z" fill="#8ac9fe"/><g><path d="m151.902 155.606c.403 1.058.81 2.108 1.221 3.144 7.264 18.326 8.053 38.453 2.884 57.477-15.119 55.635 18.508 113.288 18.508 113.288h35.473v-36.958l-14.768-95.621z" fill="#fe5ca7"/><path d="m209.987 88.207c0-9.776-6.169-18.11-14.826-21.33-4.3 7.375-11.461 12.773-19.918 14.61-11.191 2.43-25.493 8.637-31.067 24.379-4.3 12.141 1.057 32.236 7.726 49.739l58.086 136.951v-204.349z" fill="#8ac9fe"/><path d="m360.098 155.606-41.601 29.135-16.485 107.817v36.958h35.473s33.626-57.653 18.508-113.288c-5.17-19.023-4.381-39.151 2.883-57.477.412-1.038.819-2.087 1.222-3.145z" fill="#fe5ca7"/><path d="m360.098 155.606-41.601 29.135-16.485 107.817v36.958h35.473s33.626-57.653 18.508-113.288c-5.17-19.023-4.381-39.151 2.883-57.477.412-1.038.819-2.087 1.222-3.145z" fill="#fe5ca7"/><path d="m302.013 88.207v204.35l58.085-136.951c6.67-17.503 12.026-37.598 7.727-49.739-5.575-15.742-19.876-21.949-31.067-24.379-8.457-1.837-15.618-7.234-19.918-14.61-8.659 3.219-14.827 11.553-14.827 21.329z" fill="#8ac9fe"/><path d="m367.825 105.866c-5.575-15.742-19.877-21.949-31.067-24.379-8.457-1.837-15.618-7.234-19.918-14.61-7.211 2.681-12.68 8.915-14.312 16.57 9.574 3.335 19.628 9.817 24.09 22.419 4.3 12.141-1.057 32.236-7.727 49.739-11.138 26.261-16.878 54.495-16.878 83.02v53.931l58.085-136.951c6.67-17.502 12.026-37.597 7.727-49.739z" fill="#60b7ff"/></g><path d="m256 125.163c-1.332 0-2.663-.344-3.857-1.032l-20.385-11.743c-3.697-2.13-4.968-6.854-2.838-10.551 2.132-3.698 6.856-4.968 10.552-2.838l16.536 9.526 16.62-9.534c3.7-2.122 8.423-.844 10.546 2.858 2.123 3.701.844 8.423-2.858 10.546l-20.472 11.744c-1.19.683-2.517 1.024-3.844 1.024z" fill="#00366d"/><path d="m256 161.752c-1.332 0-2.663-.344-3.857-1.032l-20.385-11.744c-3.697-2.13-4.968-6.854-2.838-10.552 2.132-3.697 6.856-4.967 10.552-2.838l16.536 9.527 16.619-9.534c3.703-2.124 8.424-.844 10.547 2.857s.844 8.423-2.857 10.546l-20.472 11.744c-1.191.684-2.518 1.026-3.845 1.026z" fill="#00366d"/><path d="m256 198.34c-1.332 0-2.663-.344-3.857-1.032l-20.385-11.744c-3.697-2.13-4.968-6.854-2.838-10.552 2.132-3.697 6.856-4.967 10.552-2.838l16.536 9.527 16.619-9.534c3.703-2.124 8.424-.844 10.547 2.857s.844 8.423-2.857 10.546l-20.472 11.744c-1.191.684-2.518 1.026-3.845 1.026z" fill="#00366d"/><path d="m256 234.927c-1.332 0-2.663-.344-3.857-1.032l-20.385-11.743c-3.697-2.13-4.968-6.854-2.838-10.551 2.132-3.698 6.856-4.968 10.552-2.838l16.536 9.526 16.62-9.534c3.7-2.123 8.423-.844 10.546 2.858 2.123 3.701.844 8.423-2.858 10.546l-20.472 11.744c-1.19.683-2.517 1.024-3.844 1.024z" fill="#00366d"/><path d="m256 271.515c-1.332 0-2.663-.344-3.857-1.032l-20.385-11.743c-3.697-2.13-4.968-6.854-2.838-10.551 2.132-3.698 6.856-4.967 10.552-2.838l16.536 9.526 16.62-9.534c3.7-2.122 8.423-.844 10.546 2.858 2.123 3.701.844 8.423-2.858 10.546l-20.472 11.744c-1.19.683-2.517 1.024-3.844 1.024z" fill="#00366d"/><path d="m267.439 49.866h-22.877c-4.268 0-7.726-3.459-7.726-7.726s3.459-7.726 7.726-7.726h22.877c4.268 0 7.726 3.459 7.726 7.726s-3.459 7.726-7.726 7.726z" fill="#fff"/></g></g></svg>