<svg id="flat" height="512" viewBox="0 0 128 128" width="512" xmlns="http://www.w3.org/2000/svg"><path d="m90.666 42.05c-2.793-17.907-5.967-29.9-9.522-36.472-2.766-5.109-12.905-5.607-17.273-5.578-4.371-.029-15.451.469-18.216 5.578-3.555 6.568-5.786 18.565-8.579 36.472s-.635 28.15 24.124 27.234h5.344c24.756.916 26.915-9.326 24.122-27.234z" fill="#4c9dc1"/><path d="m87.805 38.6c-2.5-15.995-5.33-26.711-8.506-32.578-2.47-4.563-11.527-5.008-15.428-4.981-3.9-.027-13.8.418-16.271 4.981-3.175 5.867-5.168 16.583-7.663 32.578s-.567 25.147 21.547 24.325h4.774c22.114.822 24.042-8.325 21.547-24.325z" fill="#4fa4d1"/><path d="m60.325 86.758h7.091v9.764h-7.091z" fill="#2f3a5a"/><g fill="#43567c"><path d="m68.283 104.792v-9.265a.739.739 0 0 0 -.739-.739h-7.344a.739.739 0 0 0 -.739.739v9.265s-26.929 3.334-33.181 11.67v4.852h5.835v-2.768s14.588-9.274 28.968-5.106h5.58c14.38-4.168 28.968 5.106 28.968 5.106v2.768h5.835v-4.852c-6.254-8.336-33.183-11.67-33.183-11.67z"/><path d="m66.246 126.58h-5.238l-2.118-14.862h9.574z"/><path d="m33.164 55.735v17.124h17.314v3.8h-19.544a1.567 1.567 0 0 1 -1.567-1.567v-19.357z"/><path d="m94.789 55.735v17.124h-17.313v3.8h19.543a1.566 1.566 0 0 0 1.567-1.567v-19.357z"/></g><path d="m89.844 67.7c-3.1-1.243-13.05-.507-19.7.168a62.09 62.09 0 0 1 -12.552 0c-6.647-.675-16.6-1.411-19.7-.168-4.785 1.923-6.6 14.492 0 16.858a48.556 48.556 0 0 0 6.843 1.668 104.176 104.176 0 0 0 38.26 0 48.591 48.591 0 0 0 6.843-1.668c6.606-2.37 4.791-14.939.006-16.858z" fill="#4fa4d1"/><path d="m89.845 84.553a48.647 48.647 0 0 1 -6.845 1.67 104.273 104.273 0 0 1 -38.262 0 48.647 48.647 0 0 1 -6.844-1.67c-3.851-1.378-4.84-6.235-4.038-10.427a5.532 5.532 0 0 0 2.223 1.474 48.943 48.943 0 0 0 6.843 1.662 103.976 103.976 0 0 0 38.263 0 48.908 48.908 0 0 0 6.843-1.662c2.465-.884 3.755-3.2 4.16-5.838 2.83 4.21 3.012 12.87-2.343 14.791z" fill="#4c9dc1"/><path d="m89.877 53.967s-.772-4.958 1.112-5.752 9.42-1.487 10.709 2.182 0 6.346-3.073 7.04-7.38-1.091-8.748-3.47z" fill="#43567c"/><path d="m98.625 57.437c-3.076.7-7.38-1.1-8.752-3.475a12.409 12.409 0 0 1 .11-4.392c1.461 2.29 5.643 3.994 8.642 3.308a4.348 4.348 0 0 0 3.131-2.312c1.184 3.573-.1 6.184-3.131 6.871z" fill="#384868"/><path d="m37.865 53.967s.772-4.958-1.112-5.752-9.42-1.487-10.71 2.182 0 6.346 3.074 7.04 7.383-1.091 8.748-3.47z" fill="#43567c"/><path d="m29.117 57.437c3.076.7 7.38-1.1 8.752-3.475a12.409 12.409 0 0 0 -.11-4.392c-1.461 2.29-5.643 3.994-8.642 3.308a4.348 4.348 0 0 1 -3.131-2.312c-1.186 3.573.1 6.184 3.131 6.871z" fill="#384868"/><rect fill="#384868" height="7.458" rx="1.073" width="8.441" x="94.398" y="120.542"/><rect fill="#384868" height="7.458" rx="1.073" width="8.441" x="25.161" y="120.542"/><rect fill="#384868" height="7.458" rx="1.073" width="8.441" x="59.456" y="120.542"/><path d="m73.1 17.893c0 2.663.65 3.852 1.591 2.91-.941.942.248 1.592 2.91 1.592-2.662 0-3.851.65-2.91 1.591-.941-.941-1.591.247-1.591 2.91 0-2.663-.65-3.851-1.591-2.91.941-.941-.248-1.591-2.91-1.591 2.662 0 3.851-.65 2.91-1.592.939.942 1.591-.247 1.591-2.91z" fill="#477ea8"/><path d="m73.1 21.292a1.1 1.1 0 1 0 1.1 1.1 1.1 1.1 0 0 0 -1.1-1.1z" fill="#6bb3d9"/><path d="m54.9 17.893c0 2.663.65 3.852 1.591 2.91-.941.942.248 1.592 2.91 1.592-2.662 0-3.851.65-2.91 1.591-.941-.941-1.591.247-1.591 2.91 0-2.663-.65-3.851-1.591-2.91.941-.941-.248-1.591-2.91-1.591 2.662 0 3.851-.65 2.91-1.592.943.942 1.591-.247 1.591-2.91z" fill="#477ea8"/><path d="m54.9 21.292a1.1 1.1 0 1 0 1.1 1.108 1.1 1.1 0 0 0 -1.1-1.108z" fill="#6bb3d9"/><path d="m73.1 35.456c0 2.662.65 3.851 1.591 2.909-.941.942.248 1.592 2.91 1.592-2.662 0-3.851.65-2.91 1.591-.941-.941-1.591.247-1.591 2.91 0-2.663-.65-3.851-1.591-2.91.941-.941-.248-1.591-2.91-1.591 2.662 0 3.851-.65 2.91-1.592.939.942 1.591-.247 1.591-2.909z" fill="#477ea8"/><path d="m73.1 38.854a1.1 1.1 0 1 0 1.1 1.1 1.1 1.1 0 0 0 -1.1-1.1z" fill="#6bb3d9"/><path d="m54.9 35.456c0 2.662.65 3.851 1.591 2.909-.941.942.248 1.592 2.91 1.592-2.662 0-3.851.65-2.91 1.591-.941-.941-1.591.247-1.591 2.91 0-2.663-.65-3.851-1.591-2.91.941-.941-.248-1.591-2.91-1.591 2.662 0 3.851-.65 2.91-1.592.943.942 1.591-.247 1.591-2.909z" fill="#477ea8"/><path d="m54.9 38.854a1.1 1.1 0 1 0 1.1 1.1 1.1 1.1 0 0 0 -1.1-1.1z" fill="#6bb3d9"/></svg>