<?xml version="1.0" encoding="iso-8859-1"?>
<!-- Generator: Adobe Illustrator 19.0.0, SVG Export Plug-In . SVG Version: 6.00 Build 0)  -->
<svg version="1.1" id="Capa_1" xmlns="http://www.w3.org/2000/svg" xmlns:xlink="http://www.w3.org/1999/xlink" x="0px" y="0px"
	 viewBox="0 0 512.001 512.001" style="enable-background:new 0 0 512.001 512.001;" xml:space="preserve">
<path style="fill:#685E5A;" d="M367.405,327.8h-97.461c0-150.466,0.054-140.661-0.111-142.003
	c-8.838,2.177-18.402,2.322-27.824-0.001c-0.166,1.401-0.112-8.491-0.112,142.004h-94.854c-33.571,0-60.881,27.311-60.881,60.882
	c0,81.266-0.759,77.887,2.052,82.5c7.431-3.121,16.125-3.282,23.943,0c2.736-4.492,2.052-0.512,2.052-82.5
	c0-18.106,14.73-32.837,32.836-32.837h94.854c0,122.397-0.161,113.799,0.375,116.105c8.586-4.225,18.706-4.231,27.3,0
	c0.53-2.318,0.371,6.297,0.371-116.105h97.461c18.105,0,32.833,14.73,32.833,32.837c0,81.172-0.768,77.867,2.055,82.5
	c7.449-3.127,16.139-3.276,23.942,0c2.736-4.499,2.051-0.512,2.051-82.5C428.284,355.112,400.974,327.8,367.405,327.8z"/>
<path style="fill:#C6C4C4;" d="M197.963,146.704c0.874,31.269,26.477,56.355,57.958,56.355c31.482,0,57.087-25.086,57.962-56.355
	C276.356,149.282,235.873,149.309,197.963,146.704z"/>
<g>
	<path style="fill:#AFAAAA;" d="M282.937,148.647c10.501,0,20.807-0.189,30.871-0.545c0.022-0.466,0.059-0.929,0.073-1.397
		C283.701,148.778,252.009,148.647,282.937,148.647z"/>
	<path style="fill:#AFAAAA;" d="M225.052,148.102c-9.25-0.327-18.299-0.794-27.089-1.397c1.022,36.598,35.465,63.357,71.467,54.758
		C244.872,195.601,226.4,174.122,225.052,148.102z"/>
</g>
<g>
	<circle style="fill:#C6C4C4;" cx="100.179" cy="481.029" r="30.943"/>
	<circle style="fill:#C6C4C4;" cx="255.916" cy="481.029" r="30.943"/>
	<circle style="fill:#C6C4C4;" cx="414.263" cy="481.029" r="30.943"/>
	<circle style="fill:#C6C4C4;" cx="255.916" cy="481.029" r="30.943"/>
</g>
<g>
	<path style="fill:#AFAAAA;" d="M110.567,451.88c-20.17-7.18-41.328,7.825-41.328,29.152c0,21.323,21.156,36.333,41.328,29.152
		C83.22,500.441,83.23,461.619,110.567,451.88z"/>
	<path style="fill:#AFAAAA;" d="M424.645,451.88c-20.125-7.17-41.326,7.781-41.326,29.152c0,21.364,21.195,36.325,41.326,29.152
		C397.299,500.44,397.313,461.619,424.645,451.88z"/>
	<path style="fill:#AFAAAA;" d="M266.305,451.88c-20.131-7.168-41.328,7.781-41.328,29.152c0,21.368,21.196,36.321,41.328,29.152
		C238.96,500.443,238.966,461.619,266.305,451.88z"/>
</g>
<path style="fill:#EAB575;" d="M408.491,73.845L408.491,73.845C286.324,106.35,54.871,85.861,54.871,43.936v59.818
	c0,25.366,90.014,45.931,201.05,45.931c111.037,0,201.05-20.566,201.05-45.931V43.936C456.97,55.36,438.707,65.809,408.491,73.845z"
	/>
<path style="fill:#F9C38A;" d="M456.97,103.754V43.936c0,35.03-141.887,44.654-177.156,45.606
	c-16.664,0.426-30.302,0.416-45.045,0.068c4.142,21.236,11.244,41.41,20.873,60.073C367.257,149.684,456.97,129.072,456.97,103.754z
	"/>
<path style="fill:#D69651;" d="M378.145,9.542c-72.166-12.692-171.764-12.753-244.275,0
	C-18.587,35.799,63.985,92.018,256.551,91.941C449.767,91.814,529.481,35.606,378.145,9.542z"/>
<path style="fill:#E89C4F;" d="M75.638,64.28c-13.287-6.132-20.768-13.038-20.768-20.344v59.818c0,7.316,7.501,14.231,20.824,20.371
	C75.612,122.974,75.638,128.063,75.638,64.28z"/>
<path style="fill:#CC7627;" d="M75.638,46.708c0,0.461,0.024,0.921,0.071,1.38c1.59-17.06,35.073-32.328,87.363-42.821
	C65.337,16.915,27.566,44.169,75.638,66.357V46.708z"/>
<g>
</g>
<g>
</g>
<g>
</g>
<g>
</g>
<g>
</g>
<g>
</g>
<g>
</g>
<g>
</g>
<g>
</g>
<g>
</g>
<g>
</g>
<g>
</g>
<g>
</g>
<g>
</g>
<g>
</g>
</svg>
