<svg id="flat" height="512" viewBox="0 0 512 512" width="512" xmlns="http://www.w3.org/2000/svg"><path d="m458.025 414.361-51.739-19.9 42.863-16.485-5.744-14.934-59.405 22.848-54.794-21.075-5.744 14.934 38.252 14.712-51.739 19.9 5.744 14.934 68.281-26.262 68.281 26.262z" fill="#b1712c"/><path d="m462.118 336 17.882 152h-16l-40-136v-16z" fill="#c78640"/><path d="m48 424h80v16h-80z" fill="#91591c"/><path d="m24 232h392v32h-392z" fill="#c78640"/><path d="m280 352v-16.00007a71.99993 71.99993 0 0 1 71.99993-71.99993h.00013a55.99994 55.99994 0 0 0 55.99994-55.99994v-48.00006a56 56 0 0 1 56-56h24v192a56 56 0 0 1 -56 56z" fill="#ffc431"/><path d="m24 24h256v152h-256z" fill="#548aff"/><path d="m120 176h64v56h-64z" fill="#e0edff"/><path d="m152 208a8 8 0 0 1 -8-8v-24h16v24a8 8 0 0 1 -8 8z" fill="#bdd1f2"/><path d="m304 352-16 136h16l40-136z" fill="#c78640"/><path d="m56 264h64v40h-64z" fill="#b1712c"/><path d="m88 304 48 184h16l-32-184z" fill="#a36522"/><path d="m224 208h152a0 0 0 0 1 0 0 24 24 0 0 1 -24 24h-104a24 24 0 0 1 -24-24 0 0 0 0 1 0 0z" fill="#e0edff"/><path d="m248 136h104v72h-104z" fill="#7dafff"/><path d="m88 304-48 184h-16l32-184z" fill="#a36522"/></svg>