<svg width="100" height="34" viewBox="0 0 100 34" fill="none" xmlns="http://www.w3.org/2000/svg">
<g clip-path="url(#clip0_8_115)">
<path d="M84.7738 21.2902L85.0181 20.4453C85.3093 19.4404 85.201 18.5113 84.7125 17.8287C84.2628 17.2 83.5136 16.8297 82.6037 16.7867L65.3701 16.5686C65.3166 16.5676 65.2641 16.554 65.2169 16.5289C65.1696 16.5038 65.1291 16.468 65.0982 16.4243C65.0681 16.3791 65.0488 16.3275 65.042 16.2737C65.0354 16.2198 65.0414 16.165 65.0595 16.1138C65.089 16.0294 65.1427 15.9555 65.2138 15.9012C65.285 15.847 65.3704 15.8147 65.4598 15.8084L82.853 15.588C84.9163 15.4933 87.1502 13.8204 87.9322 11.7804L88.9241 9.19045C88.9648 9.08093 88.9741 8.96228 88.951 8.84779C87.8247 3.78553 83.3035 0 77.8977 0C72.9169 0 68.6879 3.21238 67.1709 7.67739C66.1458 6.90856 64.8678 6.55512 63.593 6.68784C61.2035 6.92495 59.2822 8.84739 59.0457 11.2355C58.985 11.8318 59.0294 12.4342 59.1771 13.0152C55.2736 13.1289 52.1432 16.3246 52.1432 20.2528C52.1437 20.6035 52.1696 20.9537 52.2208 21.3007C52.2321 21.3807 52.2718 21.4542 52.3327 21.5075C52.3937 21.5608 52.4719 21.5904 52.5528 21.5909L84.3691 21.5949C84.3721 21.595 84.3751 21.595 84.3781 21.5949C84.4681 21.5932 84.5551 21.5628 84.6264 21.508C84.6977 21.453 84.7493 21.3767 84.7738 21.2902Z" fill="#F6821F"/>
<path d="M90.5148 9.37823C90.3551 9.37823 90.196 9.38225 90.0375 9.39026C90.0119 9.39209 89.9869 9.39759 89.9629 9.40657C89.9214 9.42076 89.8839 9.4448 89.8536 9.47662C89.8234 9.50845 89.8013 9.54714 89.7893 9.58935L89.1118 11.9282C88.8204 12.9333 88.9287 13.8615 89.4177 14.5441C89.8671 15.1735 90.6162 15.543 91.5261 15.586L95.2 15.8065C95.2516 15.8082 95.3021 15.8219 95.3476 15.8465C95.393 15.8712 95.432 15.9061 95.4616 15.9485C95.4922 15.9939 95.5116 16.0458 95.5182 16.1001C95.5251 16.1543 95.5189 16.2094 95.5005 16.2609C95.4709 16.3451 95.4172 16.4189 95.3463 16.4732C95.2754 16.5274 95.19 16.5598 95.101 16.5663L91.2837 16.7867C89.2111 16.8822 86.9777 18.5543 86.1963 20.5943L85.9206 21.3146C85.9091 21.3447 85.9048 21.3771 85.9083 21.4091C85.9118 21.4412 85.9227 21.4721 85.9405 21.499C85.9583 21.5259 85.982 21.5483 86.0101 21.5643C86.0382 21.5801 86.0697 21.5892 86.102 21.5905C86.1055 21.5905 86.1086 21.5905 86.1121 21.5905H99.247C99.3234 21.5912 99.3978 21.5669 99.4591 21.5213C99.5202 21.4756 99.5649 21.4113 99.586 21.3379C99.8187 20.5081 99.9363 19.6505 99.9355 18.7887C99.934 13.5918 95.7167 9.37823 90.5148 9.37823Z" fill="#FBAD41"/>
<path d="M11.1228 25.4801H13.3636V31.597H17.2794V33.5588H11.1228V25.4801Z" fill="#222222"/>
<path d="M19.6002 29.5427V29.5198C19.6002 27.2 21.4713 25.3183 23.9662 25.3183C26.461 25.3183 28.3087 27.1767 28.3087 29.4965V29.5198C28.3087 31.8395 26.4373 33.7201 23.9432 33.7201C21.4492 33.7201 19.6002 31.8625 19.6002 29.5427ZM26.0216 29.5427V29.5198C26.0216 28.3556 25.179 27.338 23.9432 27.338C22.7188 27.338 21.8986 28.3307 21.8986 29.4965V29.5198C21.8986 30.684 22.7417 31.7012 23.9662 31.7012C25.2019 31.7012 26.0216 30.7085 26.0216 29.5427Z" fill="#222222"/>
<path d="M31.0511 30.0158V25.4797H33.3266V29.9699C33.3266 31.1341 33.9158 31.6894 34.8163 31.6894C35.7169 31.6894 36.306 31.1586 36.306 30.0274V25.4797H38.5817V29.9568C38.5817 32.5653 37.092 33.7073 34.7933 33.7073C32.4947 33.7073 31.0511 32.5432 31.0511 30.0146" fill="#222222"/>
<path d="M42.011 25.4804H45.1294C48.0173 25.4804 49.6919 27.1422 49.6919 29.4733V29.4969C49.6919 31.8276 47.994 33.5591 45.0836 33.5591H42.011V25.4804ZM45.1645 31.5731C46.5047 31.5731 47.3932 30.8357 47.3932 29.5299V29.507C47.3932 28.2148 46.5047 27.4643 45.1645 27.4643H44.2518V31.5738L45.1645 31.5731Z" fill="#222222"/>
<path d="M52.9485 25.4801H59.4163V27.4425H55.1893V28.8155H59.0123V30.6734H55.1893V33.5588H52.9485V25.4801Z" fill="#222222"/>
<path d="M62.5344 25.4801H64.7751V31.597H68.6909V33.5588H62.5344V25.4801Z" fill="#222222"/>
<path d="M74.5461 25.4223H76.7053L80.1476 33.5588H77.7453L77.1558 32.1159H74.037L73.4599 33.5588H71.1038L74.5461 25.4223ZM76.5092 30.3736L75.6082 28.0766L74.6956 30.3736H76.5092Z" fill="#222222"/>
<path d="M83.0341 25.4797H86.857C88.0935 25.4797 88.9475 25.8033 89.4904 26.3571C89.9646 26.8189 90.2068 27.4437 90.2068 28.2389V28.2616C90.2068 29.4962 89.5467 30.3158 88.5435 30.7425L90.4726 33.5591H87.8846L86.2562 31.112H85.2748V33.5591H83.0341V25.4797ZM86.7533 29.358C87.5156 29.358 87.9548 28.9885 87.9548 28.3998V28.3769C87.9548 27.742 87.4927 27.4193 86.7412 27.4193H85.2748V29.3595L86.7533 29.358Z" fill="#222222"/>
<path d="M93.4398 25.4801H99.9421V27.3847H95.6578V28.6075H99.5387V30.3736H95.6578V31.6548H100V33.5588H93.4398V25.4801Z" fill="#222222"/>
<path d="M6.21678 30.4895C5.90299 31.1985 5.24277 31.7007 4.36548 31.7007C3.14061 31.7007 2.29789 30.685 2.29789 29.5194V29.4962C2.29789 28.3319 3.11771 27.3377 4.34219 27.3377C5.2653 27.3377 5.96822 27.9051 6.26493 28.6769H8.62689C8.24864 26.7542 6.55774 25.3186 4.36548 25.3186C1.87032 25.3186 0 27.2015 0 29.5194V29.5424C0 31.8621 1.84741 33.7209 4.34219 33.7209C6.4762 33.7209 8.14417 32.3402 8.58419 30.4899L6.21678 30.4895Z" fill="#222222"/>
</g>
<defs>
<clipPath id="clip0_8_115">
<rect width="100" height="33.7209" fill="white"/>
</clipPath>
</defs>
</svg>
