<svg width="100" height="26" viewBox="0 0 100 26" fill="none" xmlns="http://www.w3.org/2000/svg">
<g clip-path="url(#clip0_8_160)">
<path d="M47.0202 7.60112C46.4937 7.58377 46.0529 7.99735 46.0356 8.52498C46.0349 8.54597 46.0349 8.56698 46.0356 8.58796V13.3331C43.7515 11.4944 40.4129 11.8599 38.5785 14.1493C37.8218 15.0938 37.4094 16.2689 37.4099 17.4802C37.3597 20.4153 39.693 22.8353 42.6213 22.8855C45.5494 22.9356 47.9639 20.597 48.0141 17.6619C48.015 17.6013 48.015 17.5408 48.0141 17.4803V8.59264C48.0218 8.3263 47.9169 8.06904 47.7251 7.88466C47.537 7.70046 47.2829 7.59993 47.0202 7.6058V7.60112ZM45.7745 18.7599C45.4358 19.5582 44.8038 20.1955 44.0094 20.5399C43.1771 20.8931 42.2375 20.8931 41.4052 20.5399C40.6122 20.1988 39.9827 19.5622 39.6494 18.7645C39.3009 17.9396 39.3009 17.0084 39.6494 16.1836C39.9834 15.3886 40.6131 14.7552 41.4052 14.4175C42.2375 14.0643 43.1771 14.0643 44.0094 14.4175C44.8038 14.7619 45.4358 15.3991 45.7745 16.1976C46.1227 17.0192 46.1227 17.9475 45.7745 18.7692" fill="#4990DF"/>
<path d="M58.0911 13.7172C56.0192 11.6425 52.6618 11.644 50.5918 13.7206C49.5986 14.7168 49.0408 16.0673 49.0403 17.4755C48.9902 20.4106 51.3234 22.8306 54.2518 22.8808C57.1801 22.931 59.5944 20.5922 59.6445 17.6572C59.6454 17.5967 59.6454 17.5361 59.6445 17.4756C59.645 16.7766 59.5115 16.084 59.2518 15.4353C58.9843 14.7901 58.5895 14.2058 58.0911 13.7172ZM57.4063 18.7552C57.237 19.1491 56.996 19.5079 56.6956 19.8133C56.3923 20.1186 56.0342 20.3636 55.6398 20.5352C54.808 20.8885 53.8689 20.8885 53.037 20.5352C52.2433 20.1948 51.6131 19.5581 51.2799 18.7599C50.9314 17.935 50.9314 17.0038 51.2799 16.1789C51.6148 15.3851 52.2452 14.7534 53.037 14.4175C53.8689 14.0642 54.808 14.0642 55.6398 14.4175C56.0342 14.5891 56.3923 14.8341 56.6956 15.1395C56.996 15.4448 57.237 15.8036 57.4063 16.1975C57.7527 17.0196 57.7527 17.9471 57.4063 18.7692" fill="#4990DF"/>
<path d="M80.0136 13.1472C80.0141 13.0165 79.9874 12.8872 79.9347 12.7676C79.8813 12.6529 79.8085 12.5481 79.7199 12.4578C79.6323 12.3663 79.5272 12.2936 79.4108 12.244C79.2879 12.1931 79.156 12.1673 79.0227 12.168C78.8349 12.1668 78.6506 12.2206 78.4928 12.323L72.8312 16.0147V8.6019C72.8363 8.33656 72.7316 8.08091 72.5422 7.89548C72.3602 7.70363 72.1063 7.59695 71.8422 7.60112C71.2967 7.5977 70.8518 8.03813 70.8483 8.58485V21.7885C70.8452 22.0521 70.9497 22.3056 71.1375 22.4903C71.3209 22.6827 71.5764 22.7895 71.8422 22.7846C72.1054 22.7889 72.3583 22.682 72.5391 22.4903C72.727 22.3056 72.8314 22.0521 72.8281 21.7885V18.3679L73.9827 17.6088L78.3583 22.5337C78.5356 22.7045 78.774 22.7966 79.0197 22.7892C79.153 22.7907 79.285 22.7649 79.4078 22.7133C79.5244 22.6649 79.6298 22.5926 79.7169 22.5011C79.8068 22.4084 79.8797 22.3003 79.9316 22.1819C79.9843 22.0624 80.011 21.9331 80.0106 21.8024C80.011 21.545 79.9131 21.2971 79.737 21.1099L75.6691 16.5166L79.6349 13.9357C79.8911 13.7583 80.0349 13.4586 80.0136 13.1472Z" fill="#4990DF"/>
<path d="M63.5871 15.1177C63.8927 14.8148 64.2532 14.573 64.649 14.4051C65.0588 14.2303 65.5002 14.1418 65.9457 14.1448C66.3401 14.1412 66.7316 14.2116 67.1002 14.3524C67.4696 14.5013 67.8117 14.7107 68.1127 14.9721C68.2956 15.1181 68.5232 15.1959 68.7571 15.1921C69.0234 15.2033 69.2824 15.1022 69.4712 14.9133C69.6569 14.7235 69.7579 14.4663 69.7508 14.2006C69.7541 13.9122 69.6288 13.6373 69.4091 13.4508C68.4607 12.5997 67.2265 12.1389 65.9534 12.1603C63.0246 12.1603 60.6506 14.54 60.6506 17.4755C60.6431 20.4068 63.008 22.7889 65.9323 22.7963C67.2089 22.7995 68.4438 22.3404 69.4094 21.5034C69.6084 21.3134 69.7204 21.0493 69.7183 20.7737C69.7358 20.2461 69.3232 19.8043 68.7967 19.7869C68.7759 19.7862 68.7548 19.7862 68.7337 19.7869C68.5084 19.7879 68.2892 19.8606 68.108 19.9945C67.812 20.2558 67.4724 20.463 67.1047 20.6064C66.7358 20.7455 66.3445 20.8148 65.9504 20.8109C65.5049 20.814 65.0635 20.7255 64.6536 20.5506C64.2581 20.3822 63.8979 20.1404 63.5918 19.8381C62.2925 18.5436 62.2862 16.4386 63.5778 15.1365C63.5824 15.1317 63.5871 15.127 63.5918 15.1224" fill="#4990DF"/>
<path d="M99.6808 12.825C99.4892 12.6448 99.2616 12.5075 99.0131 12.4222C98.729 12.3199 98.4339 12.2513 98.1337 12.2177C97.8367 12.1811 97.5379 12.1625 97.2388 12.1619C96.6318 12.16 96.0292 12.2648 95.4585 12.4718C94.899 12.6762 94.3768 12.9714 93.9128 13.3455V13.1472C93.8911 12.5992 93.4304 12.1726 92.8838 12.1942C92.3674 12.2147 91.9534 12.6296 91.933 13.1472V21.8024C91.9545 22.3505 92.4152 22.7771 92.962 22.7555C93.4784 22.7351 93.8925 22.3201 93.9128 21.8024V17.4755C93.9098 17.0286 93.9981 16.5857 94.1723 16.1743C94.3391 15.7797 94.5801 15.421 94.8819 15.1178C95.1857 14.8155 95.5438 14.5737 95.9374 14.4051C96.348 14.2303 96.7899 14.1418 97.2358 14.1449C97.6791 14.1405 98.1192 14.221 98.5325 14.3819C98.663 14.4449 98.8051 14.4802 98.9498 14.4857C99.0829 14.4869 99.215 14.4611 99.3379 14.4098C99.4543 14.3604 99.5595 14.2877 99.6468 14.196C99.7351 14.1057 99.8072 14.001 99.8602 13.8862C99.9138 13.7637 99.9412 13.6312 99.9405 13.4974C99.9501 13.248 99.8536 13.0064 99.6747 12.8327" fill="#4990DF"/>
<path d="M90.4801 15.4431C89.6379 13.4699 87.7079 12.1859 85.5667 12.1743C82.6389 12.1735 80.2649 14.5518 80.2639 17.4864V17.4879C80.2634 20.4243 82.6377 22.8052 85.5672 22.8057C86.8391 22.806 88.0686 22.3482 89.0321 21.5158C89.0459 21.5019 89.0674 21.4833 89.0707 21.4786C89.1569 21.4085 89.2325 21.3261 89.2948 21.2339C89.6131 20.7744 89.4995 20.1434 89.0412 19.8241C88.6571 19.5741 88.1522 19.6195 87.8187 19.9342C87.7862 19.9636 87.6934 20.0504 87.6782 20.0628L87.6641 20.0752C87.3819 20.3157 87.0597 20.5044 86.7122 20.6328C86.3445 20.7627 85.9567 20.8267 85.567 20.8218C85.2075 20.8236 84.8503 20.7661 84.5096 20.6514C84.178 20.5403 83.8653 20.3789 83.5822 20.1727C83.3005 19.966 83.0527 19.7161 82.8482 19.4322C82.6393 19.1423 82.4794 18.82 82.3752 18.478H89.8728C90.1358 18.484 90.3901 18.3827 90.5775 18.1975C90.7705 18.0144 90.8756 17.7572 90.8665 17.4911C90.8726 16.7906 90.7407 16.0957 90.4787 15.4463L90.4801 15.4431ZM82.3735 16.5042C82.4726 16.1619 82.6295 15.8392 82.8372 15.55C83.0428 15.2656 83.2923 15.0156 83.5761 14.8095C83.863 14.6035 84.1791 14.4422 84.5143 14.3308C84.8531 14.2176 85.2079 14.1601 85.5651 14.1603C85.9204 14.1599 86.2733 14.2175 86.6101 14.3308C87.2784 14.5534 87.8609 14.9796 88.2761 15.55C88.4883 15.8389 88.6501 16.1615 88.7552 16.5042H82.3735Z" fill="#4990DF"/>
<path d="M35.5937 9.83347C35.4965 9.75597 34.5876 9.06817 32.671 9.06817C32.1651 9.0704 31.66 9.11389 31.1609 9.19829C30.7899 6.64991 28.6881 5.40745 28.5939 5.35171L28.0792 5.05421L27.7407 5.54379C27.3169 6.20143 27.0073 6.92639 26.8258 7.68784C26.4827 9.14255 26.6913 10.5089 27.4286 11.677C26.5382 12.1742 25.1101 12.2966 24.8211 12.3075H1.17693C0.559356 12.3083 0.0582182 12.8086 0.0548526 13.4275C0.0272739 15.5037 0.37821 17.5675 1.09038 19.5173C1.90488 21.6583 3.11663 23.2354 4.69311 24.2005C6.45972 25.285 9.32983 25.9047 12.5833 25.9047C14.053 25.9091 15.52 25.7759 16.965 25.5066C18.9737 25.1368 20.9065 24.433 22.6836 23.4244C24.1478 22.5744 25.4658 21.4932 26.5862 20.2222C28.4595 18.0967 29.5754 15.7296 30.4054 13.6258H30.7361C32.7869 13.6258 34.0482 12.8032 34.7438 12.1138C35.2059 11.6742 35.5667 11.1386 35.8009 10.5445L35.9478 10.1139L35.5937 9.83347Z" fill="#4990DF"/>
<path d="M3.36855 11.6135H6.53698C6.68979 11.6135 6.81363 11.4893 6.81363 11.3362V8.50735C6.81447 8.35419 6.69129 8.22937 6.53855 8.2285C6.53803 8.2285 6.53747 8.2285 6.53698 8.2285H3.36855C3.21574 8.2285 3.09192 8.35267 3.09192 8.50578V11.3361C3.09192 11.4893 3.21574 11.6135 3.36855 11.6135Z" fill="#4990DF"/>
<path d="M7.73485 11.6135H10.9033C11.0561 11.6135 11.1799 11.4893 11.1799 11.3362V8.50735C11.1808 8.35419 11.0576 8.22937 10.9048 8.2285C10.9043 8.2285 10.9037 8.2285 10.9032 8.2285H7.7348C7.58112 8.2285 7.4566 8.35332 7.4566 8.50735V11.3361C7.45752 11.4896 7.58178 11.6135 7.73485 11.6135Z" fill="#4990DF"/>
<path d="M12.1675 11.6135H15.3359C15.4887 11.6135 15.6126 11.4893 15.6126 11.3362V8.50735C15.6134 8.35419 15.4902 8.22937 15.3374 8.2285C15.3369 8.2285 15.3364 8.2285 15.3359 8.2285H12.1674C12.0146 8.2285 11.8908 8.35267 11.8908 8.50578V11.3361C11.8909 11.4893 12.0147 11.6135 12.1675 11.6135Z" fill="#4990DF"/>
<path d="M16.5477 11.6135H19.7161C19.8692 11.6135 19.9935 11.4896 19.9943 11.3362V8.50735C19.9943 8.35332 19.8698 8.2285 19.7161 8.2285H16.5477C16.3949 8.2285 16.2711 8.35267 16.2711 8.50578V11.3361C16.2711 11.4893 16.3949 11.6135 16.5477 11.6135Z" fill="#4990DF"/>
<path d="M7.7348 7.54382H10.9032C11.0563 7.54297 11.1799 7.41836 11.1799 7.26499V4.43618C11.1799 4.28302 11.056 4.1589 10.9032 4.1589H7.7348C7.5818 4.1589 7.45747 4.28276 7.4566 4.43618V7.26499C7.45747 7.41864 7.5815 7.54297 7.7348 7.54382Z" fill="#4990DF"/>
<path d="M12.1675 7.54382H15.3359C15.4889 7.54297 15.6126 7.41836 15.6126 7.26499V4.43618C15.6126 4.28302 15.4887 4.1589 15.3359 4.1589H12.1675C12.0147 4.1589 11.8909 4.28307 11.8909 4.43618V7.26499C11.8909 7.41836 12.0145 7.54297 12.1675 7.54382Z" fill="#4990DF"/>
<path d="M16.5477 7.54382H19.7161C19.8694 7.54297 19.9935 7.41864 19.9943 7.26499V4.43618C19.9935 4.28276 19.8692 4.1589 19.7161 4.1589H16.5477C16.3949 4.1589 16.2711 4.28307 16.2711 4.43618V7.26499C16.2711 7.41836 16.3947 7.54297 16.5477 7.54382Z" fill="#4990DF"/>
<path d="M16.5477 3.47263H19.7161C19.8692 3.47263 19.9935 3.34872 19.9943 3.19534V0.364938C19.9935 0.211518 19.8692 0.0876541 19.7161 0.0876541H16.5477C16.3949 0.0876541 16.2711 0.21177 16.2711 0.364938V3.1953C16.2711 3.34846 16.3949 3.47263 16.5477 3.47263Z" fill="#4990DF"/>
<path d="M20.9664 11.6135H24.1349C24.2878 11.6135 24.4122 11.4896 24.4131 11.3362V8.50735C24.4131 8.35332 24.2885 8.2285 24.1349 8.2285H20.9664C20.8137 8.2285 20.6898 8.35267 20.6898 8.50578V11.3361C20.6898 11.4893 20.8137 11.6135 20.9664 11.6135Z" fill="#4990DF"/>
</g>
<defs>
<clipPath id="clip0_8_160">
<rect width="100" height="25.9953" fill="white"/>
</clipPath>
</defs>
</svg>
