<svg width="100" height="27" viewBox="0 0 100 27" fill="none" xmlns="http://www.w3.org/2000/svg">
<g clip-path="url(#clip0_8_166)">
<path fill-rule="evenodd" clip-rule="evenodd" d="M38.6486 17.6486H36.1352V10.0432H38.6486C39.7042 10.0432 40.5745 10.3957 41.2383 11.0947C41.9028 11.7996 42.2343 12.7185 42.2343 13.8497C42.2343 14.9742 41.9028 15.8998 41.2383 16.598C40.5745 17.2962 39.7042 17.6486 38.6486 17.6486ZM38.6486 7.55255H33.6177V20.1401H38.6486C40.3755 20.1401 41.8358 19.5301 42.9938 18.325C44.1519 17.12 44.7426 15.6137 44.7426 13.8497C44.7426 12.079 44.1527 10.5727 42.9938 9.36772C41.8358 8.16263 40.3755 7.55255 38.6486 7.55255ZM50.6018 17.996C49.9379 17.996 49.3698 17.7745 48.9343 17.3247C48.4921 16.875 48.263 16.2993 48.263 15.6061C48.263 14.9196 48.4921 14.3439 48.9343 13.8942C49.3698 13.4444 49.9379 13.2229 50.6018 13.2229C51.2655 13.2229 51.8337 13.4444 52.2759 13.8942C52.7265 14.3439 52.9557 14.9196 52.9557 15.6061C52.9557 16.2993 52.7265 16.875 52.2759 17.3247C51.8337 17.7745 51.2655 17.996 50.6018 17.996ZM54.0096 12.2125C53.0807 11.2902 51.9368 10.8253 50.6018 10.8253C49.2666 10.8253 48.1228 11.2902 47.2006 12.2125C46.2783 13.1347 45.8134 14.2777 45.8134 15.6061C45.8134 16.9412 46.2783 18.085 47.2006 19.0072C48.1228 19.9287 49.2666 20.3936 50.6018 20.3936C51.9368 20.3936 53.0807 19.9287 54.0096 19.0072C54.9327 18.0842 55.4043 16.9412 55.4043 15.6061C55.4043 14.2777 54.9319 13.1347 54.0096 12.2125ZM65.0565 10.9092L61.73 20.1401H58.7929L55.4362 10.9092H58.1292L60.2388 17.0024L62.3636 10.9092H65.0565ZM67.6244 14.6981C67.7645 14.1896 68.0154 13.7835 68.3847 13.4964C68.7757 13.1935 69.2767 13.0382 69.875 13.0382C70.376 13.0382 70.8333 13.1859 71.232 13.4746C71.6012 13.7465 71.8588 14.1526 71.9923 14.6981H67.6244ZM69.875 10.8253C68.4803 10.8253 67.3223 11.2826 66.4293 12.1907C65.5365 13.1053 65.0867 14.2483 65.0867 15.6061C65.0867 16.9781 65.5441 18.1287 66.4444 19.0366C67.3508 19.9363 68.5617 20.3936 70.0521 20.3936C71.7858 20.3936 73.1134 19.7449 73.9987 18.4534L74.0499 18.3871L72.0661 17.2441L72.0292 17.2945C71.5928 17.871 70.9366 18.1589 70.089 18.1589C68.7832 18.1589 67.986 17.6571 67.6689 16.6316H74.3604L74.3746 16.5645C74.4334 16.2329 74.4636 15.9082 74.4636 15.6061C74.4636 14.2634 74.0273 13.1196 73.1646 12.2049C72.3019 11.2902 71.1951 10.8253 69.875 10.8253ZM79.1882 13.4511V17.0881C79.1882 17.375 79.2545 17.5824 79.3946 17.7074C79.5348 17.84 79.7487 17.9138 80.029 17.9364C80.1549 17.9432 80.2942 17.9432 80.4419 17.9432C80.6483 17.9432 80.8774 17.9364 81.1283 17.9213H81.2021V20.1494L81.135 20.157C80.7071 20.2081 80.3018 20.2307 79.94 20.2307C78.9591 20.2307 78.2214 20.0537 77.7415 19.6995C77.0701 19.2128 76.7387 18.3343 76.7387 17.0881V13.4511H75.0141V11.1887H76.7387V9.3047L79.1882 8.55955V11.1887H80.8883V13.4511H79.1882ZM86.5695 18.0548C85.8764 18.0548 85.3007 17.8198 84.8576 17.3692C84.4086 16.9194 84.1795 16.3219 84.1795 15.6061C84.1795 14.8978 84.4086 14.3004 84.8585 13.8505C85.3007 13.3923 85.884 13.1641 86.5704 13.1641C87.2568 13.1641 87.8392 13.3923 88.2965 13.8505C88.7463 14.307 88.9746 14.8978 88.9746 15.6061C88.9746 16.3219 88.7463 16.9194 88.2965 17.3692C87.8392 17.819 87.2635 18.0548 86.5695 18.0548ZM89.0031 10.9092V12.0043C88.31 11.2222 87.3298 10.8253 86.1415 10.8253C84.939 10.8253 83.8841 11.2902 83.0282 12.2125C82.1655 13.1347 81.73 14.2777 81.73 15.6061C81.73 16.9412 82.1664 18.085 83.0291 19.0072C83.885 19.9295 84.9323 20.3936 86.1424 20.3936C87.3298 20.3936 88.31 19.911 89.0031 19.1289V20.1401H91.5207V10.9092H89.0031ZM93.3481 9.2217C93.2088 9.08851 93.0985 8.92815 93.0244 8.75062C92.9493 8.57309 92.9114 8.3821 92.9141 8.18948C92.9141 7.79675 93.0587 7.44766 93.3481 7.1573C93.6383 6.85856 93.9792 6.71338 94.3716 6.71338C94.7775 6.71338 95.1256 6.85856 95.415 7.15646C95.7052 7.44766 95.8508 7.79675 95.8508 8.18864C95.8508 8.58222 95.7052 8.93048 95.415 9.22079C95.2793 9.35895 95.1166 9.46817 94.9367 9.54195C94.7576 9.61573 94.5651 9.65271 94.3716 9.65045C94.1808 9.65144 93.9918 9.61392 93.8164 9.54023C93.6401 9.46654 93.481 9.35823 93.3481 9.2217ZM93.1989 20.1401H95.716V10.9092H93.1989V20.1401ZM97.3951 20.1401H99.9123V6.71338H97.3951V20.1401Z" fill="#230078"/>
<path fill-rule="evenodd" clip-rule="evenodd" d="M23.5478 16.7835L17.6736 20.1401V13.4268L11.7993 10.0332L17.6736 6.71338L23.5478 10.0701V16.7835ZM11.7985 10.0701L5.92428 13.4268V6.71338L0.0509033 3.35669L5.92511 0L11.7985 3.35669V10.0701ZM11.7985 23.4968L5.92428 26.8535L5.92511 20.1401L0.0509033 16.7835L5.92428 13.4268L11.7985 16.7835V23.4968Z" fill="#230078"/>
</g>
<defs>
<clipPath id="clip0_8_166">
<rect width="100" height="26.8535" fill="white"/>
</clipPath>
</defs>
</svg>
