<svg width="100" height="23" viewBox="0 0 100 23" fill="none" xmlns="http://www.w3.org/2000/svg">
<g clip-path="url(#clip0_9_196)">
<path d="M76.2194 8.54419C73.1551 8.54419 70.7347 11.0934 70.7347 14.2091C70.7347 17.3248 73.1551 19.874 76.2194 19.874C79.2837 19.874 81.7041 17.3248 81.7041 14.2091C81.7041 11.0934 79.2837 8.54419 76.2194 8.54419ZM76.2194 17.0931C74.7516 17.0931 73.4638 15.8056 73.4638 14.2349C73.4638 12.6641 74.7256 11.3766 76.2194 11.3766C77.7128 11.3766 78.9745 12.6641 78.9745 14.2349C78.9745 15.8056 77.6868 17.0931 76.2194 17.0931Z" fill="black"/>
<path d="M48.255 8.72439L48.0233 9.96041C48.0233 9.96041 47.1992 8.54419 44.9848 8.54419C42.1523 8.54419 39.7833 10.5527 39.7833 14.1318C39.7833 17.5823 42.3326 19.8998 44.7531 19.8998C47.019 19.8998 48.0233 17.9943 48.0233 17.9943L48.255 19.6165H50.7527V8.72439H48.255ZM45.268 17.0931C43.7488 17.0931 42.5128 15.8056 42.5128 14.2349C42.5128 12.6641 43.7488 11.3766 45.268 11.3766C46.7873 11.3766 48.0233 12.6641 48.0233 14.2349C48.0233 15.8056 46.7873 17.0931 45.268 17.0931Z" fill="black"/>
<path d="M55.3878 16.1145V11.4796H58.1429V8.72439H55.3878V5.9949L52.6327 6.74164C52.6327 6.74164 52.6327 15.6253 52.6327 16.1403C52.6327 16.9901 52.6327 19.9255 55.9541 19.9255C57.4475 19.9255 58.1429 19.462 58.1429 19.462V17.1188C58.1429 17.093 55.3878 18.2003 55.3878 16.1145Z" fill="black"/>
<path d="M95.8403 8.54419C93.3944 8.54419 92.3898 10.3466 92.3898 10.3466C92.3898 10.3466 91.6949 8.54419 89.2745 8.54419C87.5489 8.54419 86.3132 9.3424 85.8239 9.96041L85.5923 8.72439H83.0944V19.7195H85.8239V14.2091C85.8239 12.7929 86.3903 11.3766 87.9867 11.3766C89.3775 11.3766 89.9438 12.2006 89.9438 13.5654V19.7195H92.699V13.6426C92.699 12.8959 93.1112 11.4024 94.8107 11.4024C96.5102 11.4024 96.7933 12.6384 96.7933 13.5396V19.7195H99.5484V12.6641C99.5484 11.5827 99.1107 8.54419 95.8403 8.54419Z" fill="black"/>
<path d="M30.1787 3.23959V19.7194H33.1914V12.8442H38.4186V10.1148H33.1914V5.99484H41.1481V3.23959H30.1787Z" fill="black"/>
<path d="M65.6363 8.54403C63.8592 8.54403 62.9067 9.52255 62.572 9.9603V3.23959L59.8169 3.98634V19.7194H62.572V13.4365C62.572 12.6897 62.8807 11.4023 64.5547 11.4023C66.2026 11.4023 66.6149 12.8185 66.6149 13.7712V19.7194H69.37V13.282C69.37 10.707 67.8251 8.54403 65.6363 8.54403Z" fill="black"/>
<path d="M5.61224 16.8367H0V22.449H5.61224V16.8367Z" fill="#4ABEA7"/>
<path d="M10.7143 11.2245V5.61224H0V11.2245H5.61224V16.8367H21.9388V11.2245H10.7143Z" fill="#4ABEA7"/>
<path d="M21.9387 0H10.7142V5.61224H21.9387V0Z" fill="#4ABEA7"/>
</g>
<defs>
<clipPath id="clip0_9_196">
<rect width="100" height="22.449" fill="white"/>
</clipPath>
</defs>
</svg>
