<svg width="100" height="26" viewBox="0 0 100 26" fill="none" xmlns="http://www.w3.org/2000/svg">
<g clip-path="url(#clip0_6_7905)">
<path d="M1.68004 9.7881H11.3457V12.4973L7.70201 12.7813C1.83277 13.2183 0 14.7695 0 19.1392V20.0131C0 23.203 2.22551 25.1256 5.67286 25.1256C8.37839 25.1256 9.94935 24.492 11.8694 22.5257H12.1967V24.6013H16.0804V5.52765H1.68004V9.7881ZM11.3457 18.9862C10.1457 20.1879 8.35658 20.9744 6.87291 20.9744C5.28015 20.9744 4.60375 20.3845 4.64739 19.0518C4.69103 17.2165 5.36739 16.7796 8.44387 16.4955L11.3675 16.2115V18.9862H11.3457Z" fill="#F18618"/>
<path fill-rule="evenodd" clip-rule="evenodd" d="M24.3792 5.67985H31.8798V9.53864H35.9811V24.6053H31.1999V9.92884H24.3792V24.6053H19.598V0H24.3792V5.67985ZM94.2101 13.3108L91.3151 13.0289C89.7141 12.8771 89.3191 12.4653 89.3191 11.2079C89.3191 9.77709 89.8895 9.43025 92.1267 9.43025C94.1221 9.43025 94.6925 9.75543 94.9774 11.0995H99.4739C99.3639 6.56864 97.9382 5.4197 92.3679 5.4197C86.2709 5.4197 84.7357 6.56864 84.7357 11.2079C84.7357 15.4569 85.8538 16.6059 90.394 17.0394L92.7623 17.2563C94.89 17.4514 95.4161 17.8416 95.4161 19.1206C95.4161 20.6598 94.7804 21.0717 92.1704 21.0717C89.8895 21.0717 89.2754 20.7249 89.1659 19.2507H84.6257C84.7357 23.9333 86.1829 25.1256 91.9729 25.1256C98.399 25.1256 100 23.8466 100 18.687C100 14.8499 98.8377 13.7443 94.2101 13.3108ZM69.6247 13.6576C69.6247 7.54417 67.497 5.39799 61.4 5.39799C55.3689 5.39799 53.0221 8.17286 53.0221 15.0884C53.0221 22.6326 55.1056 25.1256 61.8608 25.1256C66.7076 25.1256 68.7694 23.6515 69.4488 19.5325H64.8432C64.3171 20.8116 63.7689 21.0934 61.795 21.0934C58.8342 21.0934 58.0664 20.2696 57.891 16.736H69.3392C69.5146 15.6954 69.6025 14.6765 69.6247 13.6576ZM57.9131 12.9855C57.9568 10.319 59.0312 9.34352 61.5975 9.34352C64.0538 9.34352 65.0407 10.3408 65.1287 12.9855H57.9131ZM72.4096 6.52528V24.627H77.191V9.75543H82.9372V5.70151H77.191V5.18121C77.2347 4.0756 77.5201 3.75042 78.4412 3.75042H83.6608V0.02168H78.0463C74.2081 1.32164e-06 72.4096 1.17065 72.4096 6.52528ZM44.2494 24.6053H39.4682V5.67985H51.3553V10.124H44.2494V24.6053Z" fill="#1F49D2"/>
</g>
<defs>
<clipPath id="clip0_6_7905">
<rect width="100" height="25.1256" fill="white"/>
</clipPath>
</defs>
</svg>
