<svg width="100" height="20" viewBox="0 0 100 20" fill="none" xmlns="http://www.w3.org/2000/svg">
<g clip-path="url(#clip0_10_533)">
<path opacity="0.7" d="M74.6533 7.0105V19.4605H70.5612V9.13603L74.6533 7.0105Z" fill="#E78376"/>
<path opacity="0.7" d="M19.8895 19.7735L29.452 14.7736L28.2732 11.72L21.9775 14.6559L19.8895 19.7735Z" fill="#E78376"/>
<path opacity="0.5" d="M70.5612 9.12535L80.9356 3.81633L79.1828 0.852051L70.5612 5.06532V9.12535Z" fill="#EEA69D"/>
<path opacity="0.7" d="M41.3434 6.02455V19.4604H37.4412V0.325806L41.3434 6.02455Z" fill="#E78376"/>
<path opacity="0.5" d="M25.8021 5.28181L19.8895 19.7735L16.8483 17.1557L23.8935 0.325806L25.8021 5.28181Z" fill="#EEA69D"/>
<path d="M23.8935 0.325806H27.9244L35.3799 19.4604H31.2538L23.8935 0.325806Z" fill="#DD4E3B"/>
<path d="M41.9469 0.325806L50.5413 13.3986V19.4604L37.4412 0.325806H41.9469Z" fill="#DD4E3B"/>
<path d="M61.9633 0.325806H57.9016V19.4638H61.9633V0.325806Z" fill="#DD4E3B"/>
<path d="M70.5613 3.81632H64.3094V0.325806H78.8708L80.9356 3.81632H74.6533H70.5613Z" fill="#DD4E3B"/>
<path opacity="0.5" d="M92.927 12.1997V19.4605H88.8959V12.1997" fill="#EEA69D"/>
<path d="M88.8959 12.1995L95.7171 0.325806H99.9994L92.927 12.1995H88.8959Z" fill="#DD4E3B"/>
<path opacity="0.7" d="M88.896 12.1995L81.8849 0.325806H86.2957L91.0455 8.46259L88.896 12.1995Z" fill="#E78376"/>
<path d="M1.71729 2.53406C1.71729 5.19859 3.39212 6.78398 6.74513 7.61998L10.2982 8.42932C13.4715 9.14537 15.404 10.9239 15.404 13.8216C15.4287 15.084 15.0109 16.3164 14.2208 17.3121C14.2208 14.4212 12.6986 12.859 9.02682 11.9198L5.53818 11.1405C2.74456 10.5143 0.588315 9.05216 0.588315 5.90468C0.573621 4.68923 0.970785 3.50347 1.71729 2.53406Z" fill="#DD4E3B"/>
<path opacity="0.7" d="M50.5415 12.4161V0.325806H54.4435V19.4604H50.5415V12.4161Z" fill="#E78376"/>
<path opacity="0.7" d="M12.0374 13.1122C13.5529 14.0647 14.2174 15.397 14.2174 17.3088C12.963 18.8875 10.7593 19.7735 8.16906 19.7735C3.8091 19.7735 0.757806 17.6652 0.0797424 14.0014H4.26679C4.80585 15.6835 6.23317 16.4628 8.13853 16.4628C10.4643 16.4628 12.0103 15.2437 12.0408 13.1055" fill="#E78376"/>
<path opacity="0.7" d="M3.89377 6.48415C3.20174 6.08012 2.63399 5.49954 2.25077 4.80406C1.86755 4.10857 1.68316 3.32414 1.71718 2.53401C2.92751 0.968597 5.03292 0.0126953 7.59938 0.0126953C12.0407 0.0126953 14.6105 2.3175 15.2445 5.56157H11.2169C10.7727 4.28259 9.66069 3.28674 7.63329 3.28674C5.46688 3.28674 3.98869 4.52573 3.90393 6.48415" fill="#E78376"/>
</g>
<defs>
<clipPath id="clip0_10_533">
<rect width="100" height="19.7767" fill="white"/>
</clipPath>
</defs>
</svg>
