<svg width="100" height="29" viewBox="0 0 100 29" fill="none" xmlns="http://www.w3.org/2000/svg">
<g clip-path="url(#clip0_10_554)">
<path d="M21.5701 5.37367C21.5508 5.23274 21.4277 5.15456 21.3255 5.14605C21.2241 5.13754 19.2374 5.10735 19.2374 5.10735C19.2374 5.10735 17.5759 3.49384 17.4117 3.3297C17.2476 3.16556 16.9271 3.21511 16.8024 3.25227C16.8009 3.25305 16.4904 3.34906 15.9678 3.51087C15.8803 3.2275 15.7518 2.87909 15.5683 2.52914C14.9768 1.40031 14.1104 0.803372 13.0636 0.801828C13.0621 0.801828 13.0613 0.801828 13.0598 0.801828C12.987 0.801828 12.915 0.808795 12.8422 0.814986C12.8113 0.777823 12.7803 0.741437 12.7478 0.705819C12.2917 0.218054 11.7072 -0.0196363 11.0065 0.00126796C9.6547 0.0399797 8.30833 1.01629 7.21665 2.75057C6.4486 3.97076 5.86405 5.50377 5.69837 6.69065C4.14602 7.17144 3.06054 7.50744 3.03654 7.51521C2.25302 7.7614 2.22825 7.7854 2.12605 8.52405C2.05017 9.08223 0 24.9355 0 24.9355L17.181 27.907L24.6276 26.0558C24.6276 26.0558 21.5895 5.51461 21.5701 5.37367ZM15.1076 3.7772C14.712 3.89953 14.2621 4.0389 13.7744 4.18987C13.7643 3.50545 13.683 2.55314 13.364 1.73013C14.3899 1.92447 14.8947 3.08504 15.1076 3.7772ZM12.8755 4.4686C11.9751 4.7473 10.9926 5.05158 10.007 5.35665C10.2841 4.29517 10.8099 3.23834 11.4556 2.5454C11.6956 2.28758 12.0316 2.00034 12.4295 1.8362C12.8035 2.61663 12.8848 3.72146 12.8755 4.4686ZM11.0336 0.900926C11.351 0.893958 11.6181 0.963642 11.8466 1.11384C11.4811 1.30353 11.128 1.57606 10.7967 1.93143C9.93805 2.85277 9.27995 4.28278 9.01749 5.66247C8.19912 5.91563 7.39856 6.16419 6.66149 6.39181C7.12684 4.22007 8.94702 0.961316 11.0336 0.900926Z" fill="#95BF47"/>
<path d="M21.3264 5.1469C21.225 5.13838 19.2383 5.1082 19.2383 5.1082C19.2383 5.1082 17.5768 3.49469 17.4126 3.33056C17.3515 3.26939 17.2686 3.23765 17.1819 3.22449L17.1827 27.9063L24.6285 26.0559C24.6285 26.0559 21.5904 5.51545 21.571 5.37452C21.5517 5.23359 21.4278 5.15541 21.3264 5.1469Z" fill="#5E8E3E"/>
<path d="M13.0542 8.97535L12.1894 12.2108C12.1894 12.2108 11.2247 11.7719 10.0812 11.8439C8.40419 11.9499 8.38638 13.0075 8.40345 13.2731C8.4948 14.7201 12.3017 15.036 12.5154 18.4256C12.6834 21.0921 11.1008 22.9162 8.82075 23.0602C6.08382 23.2328 4.57715 21.6186 4.57715 21.6186L5.15707 19.1519C5.15707 19.1519 6.67377 20.2962 7.88777 20.2195C8.68061 20.1692 8.96396 19.5243 8.93531 19.0682C8.8161 17.1806 5.71605 17.2921 5.52019 14.1906C5.35526 11.5806 7.06945 8.93586 10.8515 8.69739C12.3087 8.60372 13.0542 8.97535 13.0542 8.97535Z" fill="white"/>
<path d="M34.4335 15.7505C33.5773 15.2859 33.1372 14.8943 33.1372 14.356C33.1372 13.671 33.7485 13.231 34.7031 13.231C35.8142 13.231 36.8064 13.6956 36.8064 13.6956L37.5889 11.2981C37.5889 11.2981 36.8693 10.7352 34.7514 10.7352C31.8041 10.7352 29.7615 12.4231 29.7615 14.796C29.7615 16.1414 30.7152 17.1689 31.9877 17.9022C33.0151 18.4889 33.3822 18.9051 33.3822 19.5164C33.3822 20.1523 32.8685 20.666 31.9147 20.666C30.4933 20.666 29.151 19.9318 29.151 19.9318L28.3193 22.3293C28.3193 22.3293 29.5595 23.161 31.6459 23.161C34.6792 23.161 36.8563 21.6689 36.8563 18.9781C36.8555 17.5359 35.7551 16.5084 34.4335 15.7505Z" fill="black"/>
<path d="M46.5176 10.7114C45.0255 10.7114 43.8513 11.421 42.9467 12.4969L42.8976 12.4722L44.1938 5.6969H40.818L37.5405 22.9413H40.9163L42.0413 17.0468C42.4813 14.8206 43.6309 13.4514 44.7076 13.4514C45.4655 13.4514 45.7596 13.9651 45.7596 14.6992C45.7596 15.1638 45.7104 15.7267 45.6129 16.1913L44.3412 22.9421H47.7172L49.0376 15.9709C49.1846 15.2368 49.2828 14.3568 49.2828 13.7693C49.2814 11.861 48.2786 10.7114 46.5176 10.7114Z" fill="black"/>
<path d="M56.9131 10.7114C52.8521 10.7114 50.1624 14.3806 50.1624 18.4651C50.1624 21.0822 51.7763 23.1856 54.8098 23.1856C58.7968 23.1856 61.4875 19.6147 61.4875 15.4318C61.4875 13.0106 60.0684 10.7114 56.9131 10.7114ZM55.2498 20.5938C54.1 20.5938 53.6107 19.6155 53.6107 18.3922C53.6107 16.4601 54.614 13.3047 56.4484 13.3047C57.647 13.3047 58.0377 14.3322 58.0377 15.3351C58.0377 17.4138 57.0358 20.5938 55.2498 20.5938Z" fill="black"/>
<path d="M70.1218 10.7114C67.8432 10.7114 66.5502 12.7172 66.5502 12.7172H66.5018L66.6976 10.9072H63.7134C63.5669 12.1305 63.2972 13.9889 63.0288 15.3835L60.6804 27.7355H64.0562L64.9851 22.7455H65.059C65.059 22.7455 65.7516 23.1856 67.0404 23.1856C71.0027 23.1856 73.5953 19.1256 73.5953 15.0157C73.5953 12.7418 72.592 10.7114 70.1218 10.7114ZM66.893 20.6422C66.0167 20.6422 65.4981 20.153 65.4981 20.153L66.0609 16.9977C66.4525 14.8943 67.553 13.4998 68.7274 13.4998C69.7548 13.4998 70.0725 14.4535 70.0725 15.3589C70.0725 17.5359 68.7762 20.6422 66.893 20.6422Z" fill="black"/>
<path d="M78.414 5.86829C77.3382 5.86829 76.4819 6.72452 76.4819 7.82494C76.4819 8.82787 77.1177 9.51284 78.0717 9.51284H78.1205C79.1726 9.51284 80.0773 8.80326 80.1019 7.55619C80.1019 6.57782 79.4415 5.86829 78.414 5.86829Z" fill="black"/>
<path d="M73.6936 22.9413H77.0685L79.3685 10.981H75.968L73.6936 22.9413Z" fill="black"/>
<path d="M87.9539 10.9564H85.6055L85.7274 10.3935C85.9232 9.24397 86.6083 8.21648 87.7335 8.21648C88.3339 8.21648 88.8093 8.38774 88.8093 8.38774L89.4697 5.74611C89.4697 5.74611 88.8828 5.45276 87.6348 5.45276C86.4362 5.45276 85.2386 5.79522 84.333 6.57774C83.1832 7.55611 82.6451 8.97443 82.3762 10.3935L82.279 10.9564H80.713L80.2237 13.5006H81.7897L80.0042 22.9422H83.38L85.1655 13.5006H87.4893L87.9539 10.9564Z" fill="black"/>
<path d="M96.0744 10.981C96.0744 10.981 93.9642 16.2973 93.0168 19.1993H92.9675C92.9033 18.2647 92.1358 10.981 92.1358 10.981H88.5889L90.62 21.963C90.6693 22.2072 90.6447 22.3547 90.5465 22.5259C90.1544 23.2839 89.4944 24.018 88.7116 24.5563C88.0758 25.0209 87.3665 25.3142 86.8042 25.51L87.7335 28.3721C88.4186 28.2254 89.8368 27.6625 91.0354 26.5375C92.5768 25.0946 93.9949 22.8684 95.4623 19.8351L99.5963 10.9802H96.0744V10.981Z" fill="black"/>
</g>
<defs>
<clipPath id="clip0_10_554">
<rect width="100" height="28.3721" fill="white"/>
</clipPath>
</defs>
</svg>
