<svg width="122" height="48" viewBox="0 0 122 48" fill="none" xmlns="http://www.w3.org/2000/svg">
<g clip-path="url(#clip0_3_498)">
<path d="M38.3433 32.4263L39.8114 28.9949C41.4189 30.1853 43.5155 30.8154 45.6127 30.8154C47.1505 30.8154 48.1289 30.2204 48.1289 29.3101C48.0938 26.7889 38.8676 28.7498 38.7974 22.4112C38.7623 19.1897 41.6284 16.7036 45.6829 16.7036C48.0938 16.7036 50.5057 17.2991 52.218 18.6649L50.8461 22.1696C49.2707 21.1566 47.3249 20.4503 45.4728 20.4503C44.2147 20.4503 43.3757 21.0453 43.3757 21.8162C43.4108 24.3023 52.7077 22.9364 52.8124 28.9949C52.8124 32.2865 50.016 34.5977 46.0317 34.5977C43.0965 34.5977 40.4054 33.8975 38.3428 32.4263H38.3433ZM96.8013 27.7523C96.4307 28.4108 95.8917 28.9588 95.2394 29.3402C94.5872 29.7216 93.8452 29.9226 93.0897 29.9227C90.7349 29.9227 88.8262 28.0099 88.8262 25.6506C88.8262 23.2913 90.7349 21.3786 93.0897 21.3786C93.8452 21.3787 94.5872 21.5797 95.2394 21.9611C95.8917 22.3425 96.4307 22.8905 96.8013 23.549L100.883 21.2834C99.3541 18.5511 96.4379 16.7036 93.0897 16.7036C88.158 16.7036 84.1602 20.709 84.1602 25.6506C84.1602 30.5918 88.158 34.5977 93.0897 34.5977C96.4379 34.5977 99.3541 32.7501 100.883 30.0179L96.8013 27.7523ZM55.461 34.2473H60.5635V9.25574H55.4615L55.461 34.2473ZM103.46 9.25574V34.2473H108.562V26.7599L114.609 34.2473H121.131L113.442 25.3524L120.571 17.0524H114.329L108.562 23.953V9.25574H103.46ZM76.2838 17.0535V19.085C75.4452 17.684 73.3831 16.7036 71.2163 16.7036C66.7427 16.7036 63.2131 20.6608 63.2131 25.6331C63.2131 30.6053 66.7427 34.5977 71.2163 34.5977C73.3831 34.5977 75.4452 33.6173 76.2838 32.2163V34.2473H81.3863V17.0535H76.2838ZM76.2838 27.7869C75.5499 29.0124 74.0122 29.9222 72.2999 29.9222C69.9446 29.9222 68.0359 28.0099 68.0359 25.6506C68.0359 23.2913 69.9446 21.3786 72.2999 21.3786C74.0122 21.3786 75.5499 22.3239 76.2838 23.584V27.7869Z" fill="black"/>
<path d="M11.3965 8.70361C9.74293 8.70361 8.40263 10.0469 8.40263 11.7035C8.40223 12.0971 8.47936 12.4868 8.6296 12.8506C8.77985 13.2143 9.00026 13.5449 9.27827 13.8235C9.55628 14.1021 9.88643 14.3231 10.2499 14.4741C10.6133 14.6251 11.0029 14.703 11.3965 14.7034H14.3909V11.7035C14.3915 10.9086 14.0765 10.1461 13.5149 9.58348C12.9534 9.0209 12.1914 8.70441 11.3965 8.70361ZM11.3965 16.7033H3.41233C1.75876 16.7033 0.418457 18.0466 0.418457 19.7037C0.418457 21.3603 1.75876 22.7036 3.41233 22.7036H11.397C13.0501 22.7036 14.3909 21.3603 14.3909 19.7037C14.3909 18.0466 13.0501 16.7033 11.3965 16.7033Z" fill="black"/>
<path d="M30.3593 19.7037C30.3593 18.0466 29.0185 16.7033 27.365 16.7033C25.7114 16.7033 24.3711 18.0466 24.3711 19.7037V22.7036H27.365C28.1598 22.7028 28.9218 22.3863 29.4834 21.8237C30.0449 21.2612 30.36 20.4986 30.3593 19.7037ZM22.3752 19.7037V11.7035C22.3758 10.9086 22.0607 10.1461 21.4992 9.58348C20.9377 9.0209 20.1756 8.70441 19.3808 8.70361C17.7272 8.70361 16.3869 10.0469 16.3869 11.7035V19.7032C16.3869 21.3608 17.7272 22.7041 19.3808 22.7041C20.1756 22.7033 20.9377 22.3868 21.4992 21.8242C22.0607 21.2617 22.3758 20.4991 22.3752 19.7042" fill="black"/>
<path d="M19.3808 38.7036C20.1757 38.7028 20.9377 38.3863 21.4993 37.8237C22.0608 37.2612 22.3759 36.4986 22.3752 35.7037C22.3759 34.9088 22.0608 34.1463 21.4993 33.5837C20.9377 33.0211 20.1757 32.7046 19.3808 32.7038H16.387V35.7037C16.387 37.3603 17.7273 38.7036 19.3808 38.7036ZM19.3808 30.7039H27.3655C29.0186 30.7039 30.3594 29.3606 30.3594 27.7035C30.3601 26.9086 30.045 26.1461 29.4834 25.5835C28.9219 25.0209 28.1599 24.7044 27.365 24.7036H19.3808C17.7273 24.7036 16.387 26.0469 16.387 27.7035C16.3866 28.0971 16.4637 28.4868 16.6139 28.8506C16.7642 29.2143 16.9846 29.5449 17.2626 29.8235C17.5406 30.1021 17.8708 30.3231 18.2342 30.4741C18.5977 30.6251 18.9873 30.703 19.3808 30.7034" fill="black"/>
<path d="M0.418214 27.7035C0.417819 28.0971 0.494945 28.4868 0.645187 28.8506C0.79543 29.2143 1.01585 29.5449 1.29385 29.8235C1.57186 30.1021 1.90201 30.3231 2.26546 30.4741C2.62891 30.6251 3.01853 30.703 3.41209 30.7034C4.20696 30.7026 4.96896 30.3861 5.5305 29.8235C6.09205 29.261 6.40713 28.4984 6.40647 27.7035V24.7036H3.41209C1.75852 24.7036 0.418214 26.0469 0.418214 27.7035ZM8.40239 27.7035V35.7032C8.40239 37.3603 9.74269 38.7036 11.3963 38.7036C12.1911 38.7028 12.9531 38.3863 13.5147 37.8237C14.0762 37.2612 14.3913 36.4986 14.3906 35.7037V27.7035C14.391 27.3099 14.3139 26.9201 14.1636 26.5563C14.0133 26.1925 13.7929 25.8619 13.5148 25.5833C13.2368 25.3048 12.9066 25.0837 12.543 24.9327C12.1795 24.7818 11.7899 24.7039 11.3963 24.7036C9.74269 24.7036 8.40239 26.0469 8.40239 27.7035Z" fill="black"/>
</g>
<defs>
<clipPath id="clip0_3_498">
<rect width="121" height="48" fill="white" transform="translate(0.418213)"/>
</clipPath>
</defs>
</svg>
