<svg width="156" height="48" viewBox="0 0 156 48" fill="none" xmlns="http://www.w3.org/2000/svg">
<path d="M152.145 28.4663C152.057 28.9093 151.902 29.2857 151.691 29.6178C151.481 29.9496 151.204 30.2157 150.85 30.4257C150.507 30.6253 150.076 30.7356 149.566 30.7356C149.068 30.7356 148.636 30.6362 148.293 30.4257C147.951 30.2253 147.659 29.9489 147.441 29.6178C147.23 29.286 147.075 28.9093 146.976 28.4663C146.879 28.0266 146.83 27.5775 146.832 27.1271C146.832 26.6623 146.877 26.1971 146.965 25.766C147.054 25.323 147.209 24.9357 147.419 24.6036C147.629 24.2599 147.906 23.9947 148.26 23.7735C148.603 23.563 149.035 23.4524 149.544 23.4524C150.042 23.4524 150.463 23.563 150.806 23.7735C151.15 23.9862 151.441 24.2737 151.658 24.6145C151.88 24.9575 152.035 25.3558 152.134 25.7879C152.233 26.2305 152.278 26.6732 152.278 27.1271C152.278 27.581 152.233 28.0237 152.145 28.4663ZM155.09 24.8913C154.879 24.1497 154.569 23.5077 154.149 22.9432C153.717 22.39 153.186 21.9357 152.544 21.604C151.901 21.2719 151.127 21.0948 150.23 21.0948C149.522 21.0948 148.88 21.2388 148.293 21.5156C147.706 21.7923 147.219 22.2459 146.843 22.8548H146.799V21.4047H143.832V36.7573H146.954V31.3663H146.998C147.366 31.9079 147.87 32.3432 148.459 32.6283C149.057 32.9161 149.699 33.0601 150.407 33.0601C151.237 33.0601 151.968 32.8942 152.599 32.5731C153.208 32.2611 153.741 31.8189 154.16 31.2779C154.58 30.7356 154.89 30.1155 155.09 29.4073C155.3 28.6987 155.399 27.9687 155.399 27.2046C155.399 26.3967 155.3 25.622 155.09 24.88V24.8913ZM139.693 28.4663C139.604 28.9093 139.449 29.2857 139.239 29.6178C139.028 29.9499 138.752 30.2157 138.397 30.4257C138.054 30.6253 137.623 30.7356 137.114 30.7356C136.615 30.7356 136.195 30.6362 135.841 30.4257C135.498 30.2252 135.207 29.9488 134.988 29.6178C134.778 29.286 134.623 28.9093 134.524 28.4663C134.426 28.0267 134.378 27.5775 134.38 27.1271C134.38 26.6623 134.424 26.1971 134.512 25.766C134.601 25.323 134.756 24.9357 134.966 24.6036C135.177 24.2599 135.453 23.9947 135.807 23.7735C136.15 23.563 136.582 23.4524 137.091 23.4524C137.59 23.4524 138.01 23.563 138.353 23.7735C138.697 23.9861 138.988 24.2736 139.205 24.6145C139.427 24.9575 139.582 25.3558 139.682 25.7879C139.781 26.2305 139.825 26.6732 139.825 27.1271C139.825 27.581 139.781 28.0237 139.693 28.4663ZM141.696 22.9432C141.275 22.39 140.733 21.9357 140.091 21.604C139.449 21.2719 138.674 21.0948 137.777 21.0948C137.069 21.0948 136.427 21.2388 135.84 21.5156C135.254 21.7923 134.767 22.2459 134.39 22.8548H134.346V21.4047H131.379V36.7573H134.501V31.3663H134.545C134.913 31.9079 135.417 32.3432 136.007 32.6283C136.604 32.9161 137.246 33.0601 137.954 33.0601C138.795 33.0601 139.515 32.8942 140.147 32.5731C140.755 32.2609 141.288 31.8188 141.707 31.2779C142.128 30.7356 142.438 30.1155 142.648 29.4073C142.852 28.6908 142.957 27.9496 142.958 27.2046C142.958 26.3967 142.858 25.622 142.648 24.88C142.438 24.1387 142.128 23.4965 141.696 22.9323V22.9432ZM121.151 26.7066L123.199 20.9395H123.244L125.225 26.7066H121.151ZM121.484 17.0655L115.54 32.772H119.015L120.244 29.2745H126.122L127.306 32.772H130.892L125.015 17.0655H121.473H121.484ZM115.285 27.7912C115.074 27.437 114.809 27.1271 114.466 26.8837C114.134 26.6404 113.746 26.4517 113.314 26.2971C112.877 26.1534 112.434 26.0279 111.986 25.9209C111.543 25.821 111.112 25.7213 110.691 25.6329C110.27 25.5445 109.883 25.4445 109.562 25.334C109.23 25.2234 108.964 25.0797 108.765 24.9022C108.554 24.7251 108.455 24.5039 108.455 24.2162C108.455 23.9838 108.51 23.7954 108.632 23.6514C108.754 23.5077 108.898 23.408 109.064 23.3306C109.23 23.2531 109.418 23.2087 109.628 23.1869C109.82 23.1657 110.012 23.1547 110.204 23.1538C110.757 23.1538 111.244 23.2643 111.654 23.4746C112.064 23.6848 112.296 24.0944 112.329 24.692H115.296C115.24 23.9835 115.053 23.408 114.754 22.9429C114.455 22.4777 114.079 22.1129 113.625 21.8361C113.171 21.5593 112.651 21.3603 112.075 21.2385C111.499 21.1166 110.901 21.0613 110.282 21.0613C109.662 21.0613 109.064 21.117 108.478 21.2272C107.891 21.3378 107.36 21.5262 106.895 21.803C106.419 22.0798 106.043 22.4453 105.766 22.9098C105.478 23.3746 105.334 23.9838 105.334 24.7139C105.334 25.2121 105.434 25.6326 105.644 25.9756C105.844 26.3192 106.12 26.6066 106.452 26.8391C106.795 27.0606 107.172 27.2489 107.604 27.3926C108.035 27.5363 108.478 27.6585 108.932 27.7578C110.05 27.9902 110.913 28.2227 111.544 28.4551C112.164 28.6875 112.474 29.0418 112.474 29.5066C112.474 29.7834 112.408 30.0158 112.275 30.2039C112.145 30.3876 111.974 30.5391 111.777 30.6465C111.577 30.7571 111.356 30.8349 111.112 30.8899C110.884 30.9419 110.65 30.9679 110.415 30.9673C110.105 30.9673 109.806 30.9345 109.529 30.8568C109.242 30.7793 108.987 30.6681 108.766 30.5134C108.544 30.3585 108.367 30.1592 108.224 29.9158C108.08 29.6725 108.013 29.3845 108.013 29.0524H105.047C105.08 29.8159 105.246 30.4469 105.567 30.9561C105.877 31.4656 106.286 31.8639 106.774 32.1738C107.261 32.4837 107.825 32.7049 108.456 32.8376C109.087 32.9707 109.729 33.0373 110.393 33.0373C111.035 33.0373 111.677 32.9707 112.297 32.8486C112.917 32.7271 113.47 32.5056 113.957 32.1957C114.444 31.8858 114.832 31.4762 115.131 30.978C115.429 30.4691 115.584 29.8493 115.584 29.0964C115.584 28.5654 115.485 28.1227 115.274 27.7681L115.285 27.7912ZM102.367 17.9955H99.2458V21.4047H97.3526V23.4965H99.2458V30.2045C99.2458 30.7802 99.3451 31.2341 99.5335 31.5881C99.7218 31.9426 99.9874 32.2079 100.319 32.4075C100.652 32.5955 101.028 32.7283 101.46 32.7949C101.914 32.8625 102.373 32.8957 102.832 32.8942C103.142 32.8942 103.452 32.8833 103.784 32.8723C104.077 32.8624 104.369 32.8328 104.659 32.7836V30.3594C104.506 30.3939 104.35 30.4161 104.194 30.4257C104.025 30.4389 103.855 30.4463 103.685 30.4478C103.153 30.4478 102.81 30.3594 102.633 30.182C102.456 30.0052 102.368 29.6506 102.368 29.1308V23.4965H104.659V21.4047H102.368V17.9955H102.367ZM93.4121 28.3779C93.4121 28.5547 93.3902 28.7875 93.3568 29.0864C93.3195 29.3922 93.2176 29.6865 93.0579 29.9499C92.892 30.2379 92.6483 30.4813 92.3053 30.6918C91.9735 30.9017 91.4862 31.0017 90.8777 31.0017C90.634 31.0017 90.3903 30.9792 90.147 30.9352C89.9146 30.8905 89.7043 30.813 89.5272 30.7028C89.3501 30.5919 89.2173 30.4482 89.1064 30.2488C89.007 30.0608 88.9514 29.8284 88.9514 29.5403C88.9514 29.2414 89.007 29.009 89.1064 28.81C89.206 28.6213 89.3497 28.4663 89.5163 28.3339C89.6821 28.212 89.8814 28.1127 90.1139 28.0352C90.3463 27.9578 90.5678 27.9021 90.8111 27.8578C91.061 27.8148 91.312 27.7779 91.5637 27.7472C91.8183 27.7141 92.051 27.6807 92.2834 27.6366C92.5159 27.5926 92.7261 27.537 92.9254 27.4707C93.1247 27.4045 93.2906 27.3158 93.4237 27.1939V28.3564L93.4121 28.3779ZM96.5336 30.2485V24.3265C96.5336 23.6405 96.3786 23.0869 96.069 22.6664C95.7591 22.2456 95.3602 21.9248 94.8844 21.6924C94.3974 21.46 93.866 21.305 93.2793 21.2166C92.7035 21.1379 92.123 21.0972 91.5418 21.0948C90.9105 21.0948 90.2797 21.1613 89.66 21.2831C89.0405 21.405 88.4757 21.6149 87.9774 21.9142C87.4869 22.206 87.0673 22.603 86.7488 23.0766C86.4279 23.5636 86.2396 24.1722 86.1955 24.9029H89.3169C89.3722 24.2834 89.5825 23.8516 89.9364 23.5858C90.291 23.32 90.7668 23.1875 91.3869 23.1875C91.6636 23.1875 91.9289 23.2094 92.1729 23.2428C92.3996 23.2726 92.6179 23.3479 92.8148 23.4643C93.0032 23.5749 93.1469 23.7298 93.2578 23.9291C93.3684 24.1284 93.4237 24.3936 93.4237 24.737C93.4346 25.0578 93.3462 25.3018 93.1356 25.4786C92.9254 25.6445 92.6486 25.7776 92.2947 25.866C91.9407 25.9544 91.5421 26.0209 91.0882 26.0653C90.6343 26.1096 90.1695 26.1649 89.7046 26.2424C89.2398 26.3199 88.7746 26.4192 88.3098 26.541C87.8449 26.6629 87.4351 26.8509 87.0808 27.1059C86.7156 27.3601 86.4279 27.6922 86.1955 28.1018C85.9631 28.5226 85.8522 29.0539 85.8522 29.6959C85.8522 30.2826 85.9515 30.7918 86.1511 31.2123C86.338 31.6222 86.6186 31.9825 86.9702 32.2641C87.3358 32.5483 87.7531 32.7588 88.1989 32.8839C88.6637 33.0167 89.1729 33.0829 89.7152 33.0829C90.4238 33.0829 91.1101 32.9835 91.7852 32.773C92.4529 32.5692 93.0583 32.1999 93.5452 31.6996C93.5561 31.8877 93.5896 32.0754 93.6227 32.2641C93.6558 32.4409 93.7111 32.6293 93.7667 32.8064H96.9325C96.7885 32.574 96.6779 32.2194 96.6226 31.7546C96.564 31.2661 96.5344 30.7746 96.5339 30.2826V30.2485H96.5336ZM83.6717 22.3896C83.3618 21.9913 82.941 21.6702 82.4099 21.4487C81.8785 21.2163 81.1925 21.1054 80.3509 21.1054C79.7642 21.1054 79.1666 21.2603 78.5468 21.5593C77.9271 21.8583 77.4288 22.3453 77.0305 22.9982H76.9639V17.0765H73.8425V32.7833H76.9639V26.8172C76.9639 25.6548 77.1523 24.8248 77.5397 24.3156C77.9161 23.8063 78.5359 23.563 79.3881 23.563C80.1298 23.563 80.6611 23.7954 80.9488 24.2599C81.2369 24.7248 81.3918 25.4224 81.3918 26.363V32.7833H84.5133V25.7879C84.5133 25.0794 84.4467 24.4377 84.3249 23.862C84.2031 23.2862 83.9816 22.7883 83.6717 22.3896ZM67.1676 27.9021H67.1232L64.4448 17.0768H61.2124L58.4893 27.7694H58.4449L55.9542 17.0768H52.501L56.6627 32.7836H60.1606L62.7728 22.0907H62.8172L65.4738 32.7836H68.9051L70.7867 25.81L73.1334 17.0768H69.7461L67.1676 27.9021Z" fill="black"/>
<path d="M23.2233 42.236C19.4043 42.236 15.8402 41.0848 12.8627 39.1258L5.62333 41.4387L7.97003 34.4433C5.71205 31.3437 4.38407 27.525 4.38407 23.4073C4.38407 13.0246 12.8296 4.57906 23.2123 4.57906C33.5951 4.57906 42.0406 13.0246 42.0406 23.4073C42.0406 33.7898 33.5951 42.2356 23.2123 42.2356H23.2233V42.236ZM23.2233 1.01465C10.8587 1.01465 0.830587 11.0437 0.830587 23.4077C0.830587 27.6359 2.00394 31.5986 4.04043 34.9747L0.000244141 46.9846L12.3979 43.011C15.7116 44.8433 19.4367 45.8032 23.2233 45.8004C35.5875 45.8004 45.616 35.7719 45.616 23.4077C45.6157 11.0437 35.5875 1.01465 23.2233 1.01465Z" fill="black"/>
<path fill-rule="evenodd" clip-rule="evenodd" d="M4 23.4998C4 12.7468 12.7443 4 23.4943 4V4.00032H23.5057C34.2557 4.00032 43 12.7471 43 23.5002C43 34.2529 34.2557 43 23.5057 43C19.5402 43 15.8614 41.8194 12.7786 39.7789L5.28343 42.1743L7.71315 34.9294C5.37529 31.7193 4 27.7644 4 23.4998ZM16.7701 13.2133C17.3233 13.2358 17.6001 13.2689 17.9653 14.1433C18.0833 14.428 18.2453 14.821 18.4229 15.2518C18.9287 16.4788 19.5605 18.0117 19.6588 18.2166C19.7916 18.4934 19.9246 18.8698 19.7363 19.235C19.5715 19.5852 19.4259 19.7534 19.1836 20.0335C19.1654 20.0544 19.1467 20.0761 19.1274 20.0984C19.009 20.2359 18.8926 20.3591 18.7765 20.4819C18.6213 20.6462 18.4666 20.8099 18.3083 21.0063L18.295 21.0219C18.0442 21.3162 17.7716 21.636 18.0871 22.1796C18.408 22.7219 19.5148 24.526 21.142 25.9758C23.0733 27.6933 24.6682 28.3382 25.3876 28.6291C25.4517 28.655 25.5088 28.6781 25.5587 28.699C26.0123 28.8873 26.5549 28.843 26.887 28.4887C27.2469 28.1007 27.6796 27.4937 28.1297 26.8621C28.2058 26.7553 28.2824 26.6479 28.3593 26.5406C28.7354 26.0092 29.2112 25.9427 29.7094 26.1308C30.2187 26.3079 32.9087 27.6362 33.4619 27.913C33.5749 27.9696 33.6801 28.0201 33.777 28.0667C34.1548 28.2483 34.4078 28.37 34.5134 28.5549C34.6465 28.7874 34.6465 29.8832 34.1926 31.1675C33.7387 32.4511 31.9343 33.5142 30.4954 33.8241C29.5105 34.0343 28.2262 34.2005 23.8983 32.4074C18.7721 30.2847 15.336 25.3039 14.6371 24.2908C14.5814 24.2101 14.5431 24.1546 14.5227 24.1277C14.5149 24.117 14.5057 24.1043 14.4951 24.0898C14.1434 23.6091 12.2869 21.0708 12.2869 18.449C12.2869 15.8238 13.5837 14.5059 14.1644 13.9158C14.1812 13.8987 14.1973 13.8823 14.2128 13.8665C14.6667 13.4016 15.4193 13.1914 16.1391 13.1914C16.3496 13.1924 16.56 13.1997 16.7701 13.2133Z" fill="black"/>
</svg>
