<svg width="100" height="45" viewBox="0 0 100 45" fill="none" xmlns="http://www.w3.org/2000/svg">
<g clip-path="url(#clip0_10_758)">
<path fill-rule="evenodd" clip-rule="evenodd" d="M67.0897 5.21886H63.4292L66.0173 2.64532C65.814 2.36117 65.587 2.09454 65.3394 1.84866C65.0924 1.60279 64.8243 1.37768 64.5389 1.17528L61.9503 3.74883V0.109392C61.6119 0.0529519 61.2632 0.0231097 60.9092 0.0224609H60.9016C60.547 0.0231097 60.1989 0.0529519 59.8605 0.109392V3.74883L57.2719 1.17528C56.9865 1.37768 56.7184 1.60279 56.4713 1.84866L56.4703 1.84996C56.2227 2.09519 55.9967 2.36117 55.7935 2.64532L58.3821 5.21886H54.7216C54.7216 5.21886 54.634 5.90203 54.634 6.25554V6.26008C54.634 6.613 54.6643 6.96008 54.7216 7.29749H58.3821L55.7935 9.87035C56.2011 10.4386 56.7005 10.9362 57.2719 11.3404L59.8605 8.76684V12.4062C60.1989 12.4627 60.5465 12.4926 60.9005 12.4932H60.9097C61.2638 12.4926 61.6124 12.4627 61.9503 12.4062V8.76684L64.5394 11.3404C64.8243 11.1386 65.0924 10.9129 65.3394 10.6669H65.34C65.587 10.4211 65.814 10.1545 66.0173 9.87035L63.4286 7.29749H67.0897C67.1459 6.96073 67.1762 6.61495 67.1762 6.26203V6.25365C67.1762 5.90068 67.1459 5.55554 67.0897 5.21886ZM62.2324 7.57705C62.3875 7.16705 62.473 6.72397 62.473 6.26078V6.25495C62.473 5.7917 62.3875 5.34798 62.2324 4.93862C61.8205 4.78422 61.3746 4.69923 60.9086 4.69923H60.9021C60.4367 4.69923 59.9903 4.78422 59.5778 4.93862C59.4232 5.34798 59.3378 5.7917 59.3373 6.25495V6.26078C59.3378 6.72397 59.4232 7.16765 59.5784 7.57705C59.9903 7.73143 60.4367 7.81641 60.9021 7.81641H60.9086C61.3746 7.81641 61.8205 7.73143 62.2324 7.57705Z" fill="#FF4600"/>
<path fill-rule="evenodd" clip-rule="evenodd" d="M73.2135 31.7247C72.1681 30.7483 71.6206 29.2082 71.5698 27.1044H84.7546C84.7795 26.8293 84.8049 26.4984 84.8298 26.1092C84.8552 25.7212 84.8681 25.3521 84.8681 25.0011C84.8681 23.7238 84.6914 22.5411 84.3389 21.4519C83.9865 20.3626 83.4703 19.4239 82.7908 18.635C82.1103 17.8462 81.2665 17.2266 80.2589 16.7758C79.2519 16.3249 78.0806 16.0991 76.746 16.0991C75.1838 16.0991 73.8303 16.3684 72.6844 16.9068C71.5384 17.4459 70.5876 18.1718 69.8319 19.0853C69.0773 20 68.5162 21.0763 68.1514 22.3153C67.786 23.5558 67.6033 24.889 67.6033 26.3155C67.6033 27.7687 67.7925 29.1018 68.1703 30.3163C68.5481 31.5307 69.1465 32.583 69.9649 33.4717C70.7827 34.3605 71.8227 35.0488 73.0817 35.5373C74.34 36.0259 75.8514 36.2697 77.6152 36.2697C78.8238 36.2697 79.9249 36.1815 80.9206 36.007C81.9146 35.8312 82.8281 35.5691 83.6595 35.2181C83.6335 34.692 83.5589 34.1607 83.433 33.6216C83.306 33.0831 83.1433 32.6265 82.9411 32.2508C81.3292 32.8769 79.6303 33.1902 77.8417 33.1902C75.8011 33.1902 74.2589 32.7011 73.2135 31.7247ZM81.1665 24.3258C81.1665 23.6245 81.0714 22.955 80.8827 22.3153C80.6935 21.677 80.4162 21.1204 80.0514 20.6442C79.686 20.1687 79.2206 19.7865 78.6535 19.4992C78.0871 19.2111 77.413 19.0665 76.6325 19.0665C75.0957 19.0665 73.9189 19.5303 73.0995 20.4567C72.2816 21.3831 71.7844 22.6728 71.6076 24.3258H81.1665Z" fill="#FF4600"/>
<path fill-rule="evenodd" clip-rule="evenodd" d="M37.9106 16.5496C38.1618 16.5003 38.4202 16.4626 38.6845 16.4373C38.9493 16.4127 39.2195 16.3997 39.4968 16.3997C39.748 16.3997 40.0129 16.4127 40.2903 16.4373C40.5669 16.4626 40.8318 16.5003 41.0836 16.5496C41.1085 16.6008 41.1404 16.7566 41.1776 17.02C41.2155 17.2827 41.2533 17.5642 41.2912 17.8646C41.329 18.1649 41.3669 18.4536 41.4047 18.7287C41.4425 19.0044 41.4608 19.1796 41.4608 19.2548C41.7127 18.8539 42.0148 18.466 42.3678 18.0903C42.7201 17.7147 43.1429 17.3761 43.6336 17.0763C44.1243 16.7753 44.6782 16.5379 45.2962 16.3627C45.9121 16.1876 46.5985 16.0994 47.3547 16.0994C48.4875 16.0994 49.5393 16.2875 50.5096 16.6631C51.4785 17.0387 52.3091 17.6207 53.002 18.4089C53.6941 19.1984 54.2362 20.2 54.627 21.4139C55.0167 22.6296 55.2118 24.062 55.2118 25.715C55.2118 29.0203 54.3113 31.6062 52.5114 33.4713C50.7098 35.3371 48.1606 36.27 44.8609 36.27C44.307 36.27 43.7406 36.2324 43.1612 36.1571C42.5811 36.0819 42.078 35.9813 41.65 35.8567V44.6835C41.3479 44.7328 41.0269 44.7704 40.687 44.7957C40.347 44.8204 40.0377 44.8334 39.7611 44.8334C39.4837 44.8334 39.1758 44.8204 38.8358 44.7957C38.4959 44.7704 38.1872 44.7328 37.9106 44.6835V16.5496ZM43.1233 33.0393C42.6196 32.9647 42.1277 32.8395 41.65 32.6636V24.8515C41.65 23.8991 41.7884 23.0804 42.0663 22.3908C42.343 21.7026 42.7077 21.1323 43.1612 20.6814C43.6146 20.2306 44.1302 19.8926 44.7102 19.6681C45.289 19.4423 45.8938 19.3294 46.5235 19.3294C48.2102 19.3294 49.4258 19.9185 50.169 21.0947C50.9115 22.2721 51.2834 23.8622 51.2834 25.8655C51.2834 27.1176 51.1255 28.2003 50.811 29.1137C50.4958 30.0284 50.0678 30.7855 49.5262 31.3862C48.9853 31.9876 48.3368 32.4333 47.5812 32.7201C46.8256 33.0081 45.995 33.1522 45.088 33.1522C44.2815 33.1522 43.6271 33.1139 43.1233 33.0393Z" fill="#FF4600"/>
<path fill-rule="evenodd" clip-rule="evenodd" d="M30.166 23.1233C30.166 21.6455 29.7882 20.6191 29.0326 20.043C28.277 19.4676 27.1815 19.1796 25.746 19.1796C24.8638 19.1796 24.0397 19.249 23.2717 19.3859C22.5031 19.5241 21.7534 19.705 21.0239 19.9302C20.545 19.1037 20.3062 18.1156 20.3062 16.9628C21.1616 16.6878 22.1057 16.475 23.1393 16.3245C24.1715 16.174 25.166 16.0994 26.1238 16.0994C28.6417 16.0994 30.5561 16.6696 31.8657 17.8082C33.1753 18.948 33.8303 20.7696 33.8303 23.2731V35.3307C32.9489 35.5311 31.8788 35.7374 30.6195 35.9502C29.3595 36.1623 28.0748 36.2694 26.7658 36.2694C25.5313 36.2694 24.4176 36.1571 23.4225 35.9314C22.4274 35.7056 21.5838 35.3436 20.8915 34.8415C20.1985 34.342 19.6635 33.7023 19.2857 32.9264C18.9079 32.1505 18.7194 31.2118 18.7194 30.1089C18.7194 29.0333 18.9393 28.0874 19.3803 27.2733C19.8207 26.4604 20.4191 25.7838 21.1746 25.2453C21.9302 24.7075 22.7994 24.306 23.7814 24.0439C24.764 23.7804 25.7962 23.6488 26.8794 23.6488C27.6852 23.6488 28.3462 23.6682 28.8623 23.7052C29.3784 23.7435 29.8129 23.7869 30.166 23.8369V23.1233ZM28.7305 26.6168C29.3099 26.6674 29.7882 26.7167 30.166 26.7666V32.8894C29.6871 33.0147 29.1396 33.108 28.5224 33.1703C27.9057 33.2339 27.3074 33.265 26.728 33.265C26.2752 33.265 25.7962 33.2404 25.2925 33.1897C24.7888 33.1392 24.3295 33.0016 23.9138 32.7766C23.4982 32.5508 23.1517 32.2257 22.875 31.7995C22.5971 31.3746 22.4594 30.7855 22.4594 30.0343C22.4594 28.8582 22.8678 27.9817 23.6874 27.405C24.505 26.8295 25.6951 26.5408 27.2571 26.5408C27.6597 26.5408 28.151 26.5668 28.7305 26.6168Z" fill="#FF4600"/>
<path d="M0.736938 35.2936L10.9373 19.5175H1.946C1.87031 19.0666 1.83247 18.5665 1.83247 18.0151C1.83247 17.4896 1.87031 17.0004 1.946 16.5496H16.4907L16.6792 17.0386L6.40381 32.8518H16.0372C16.1122 33.3532 16.1507 33.8657 16.1507 34.3912C16.1507 34.8933 16.1122 35.3682 16.0372 35.8197H0.92616L0.736938 35.2936Z" fill="#FF4600"/>
<path d="M59.8589 19.4799H57.4033C57.353 19.2795 57.3151 19.0478 57.2903 18.7851C57.2649 18.5223 57.2524 18.2655 57.2524 18.0151C57.2524 17.7653 57.2649 17.5077 57.2903 17.245C57.3151 16.9822 57.353 16.7506 57.4033 16.5496H63.5243V35.8197C63.246 35.869 62.9384 35.906 62.5984 35.9313C62.2584 35.9559 61.9492 35.9689 61.6724 35.9689C61.4206 35.9689 61.1238 35.9559 60.7849 35.9313C60.4443 35.906 60.1357 35.869 59.8589 35.8197V19.4799Z" fill="#FF4600"/>
<path d="M89.7811 16.4376C89.5292 16.4629 89.2643 16.5005 88.9875 16.5498V35.8193C89.2897 35.8686 89.6108 35.9063 89.9513 35.9316C90.2913 35.9562 90.5989 35.9692 90.8773 35.9692C91.153 35.9692 91.4627 35.9562 91.8016 35.9316C92.1421 35.9063 92.4508 35.8686 92.7281 35.8193V26.2407C92.7281 24.9393 92.8724 23.8747 93.1621 23.0489C93.4513 22.2224 93.8421 21.571 94.333 21.0949C94.8243 20.6194 95.3778 20.2878 95.9957 20.0997C96.613 19.9122 97.2611 19.8181 97.9416 19.8181H98.4508C98.6643 19.8181 98.8719 19.8434 99.0746 19.8927C99.1248 19.593 99.1692 19.2797 99.207 18.954C99.2443 18.629 99.2632 18.3156 99.2632 18.0153C99.2632 17.7396 99.2503 17.4768 99.2254 17.2264C99.2 16.9767 99.1621 16.7379 99.1119 16.5122C98.9616 16.4882 98.7778 16.4694 98.5643 16.4563C98.3502 16.4434 98.1421 16.4376 97.9416 16.4376C96.5811 16.4376 95.4665 16.7509 94.5978 17.3763C93.7292 18.0023 93.0297 18.7418 92.5016 19.593C92.5016 19.1668 92.4627 18.6478 92.3876 18.0335C92.3124 17.421 92.2362 16.9254 92.1611 16.5498C91.9346 16.5005 91.6821 16.4629 91.4054 16.4376C91.1281 16.4129 90.8513 16.3999 90.5746 16.3999C90.2973 16.3999 90.0324 16.4129 89.7811 16.4376Z" fill="#FF4600"/>
</g>
<defs>
<clipPath id="clip0_10_758">
<rect width="100" height="44.8649" fill="white"/>
</clipPath>
</defs>
</svg>
