<svg xmlns="http://www.w3.org/2000/svg" width="18" height="18" viewBox="0 0 18 18" fill="none">
    <g clip-path="url(#clip0_556_824)">
    <path d="M17.9825 5.29205C17.9403 4.33564 17.7857 3.67812 17.5641 3.10836C17.3356 2.50359 16.9839 1.96213 16.5232 1.51201C16.0731 1.05489 15.5281 0.699691 14.9303 0.474702C14.3573 0.253147 13.7032 0.0984842 12.7468 0.0563159C11.7832 0.0105764 11.4773 0 9.0335 0C6.58966 0 6.28377 0.0105764 5.32379 0.0527447C4.36738 0.0949129 3.70986 0.249713 3.14024 0.471131C2.53532 0.699691 1.99387 1.05132 1.54375 1.51201C1.08663 1.96213 0.731567 2.50716 0.50644 3.10493C0.284885 3.67812 0.130222 4.33207 0.0880542 5.28848C0.0423147 6.25203 0.0317383 6.55792 0.0317383 9.00176C0.0317383 11.4456 0.0423147 11.7515 0.084483 12.7115C0.126651 13.6679 0.281451 14.3254 0.503006 14.8952C0.731567 15.4999 1.08663 16.0414 1.54375 16.4915C1.99387 16.9486 2.5389 17.3038 3.13667 17.5288C3.70986 17.7504 4.36381 17.905 5.32035 17.9472C6.2802 17.9895 6.58623 17.9999 9.03006 17.9999C11.4739 17.9999 11.7798 17.9895 12.7398 17.9472C13.6962 17.905 14.3537 17.7504 14.9233 17.5288C16.133 17.0611 17.0894 16.1047 17.5571 14.8952C17.7785 14.322 17.9333 13.6679 17.9755 12.7115C18.0177 11.7515 18.0283 11.4456 18.0283 9.00176C18.0283 6.55792 18.0247 6.25203 17.9825 5.29205ZM16.3616 12.6411C16.3228 13.5202 16.1752 13.9949 16.0521 14.3114C15.7497 15.0956 15.1273 15.7179 14.3431 16.0204C14.0267 16.1434 13.5485 16.2911 12.6729 16.3297C11.7235 16.372 11.4387 16.3824 9.03707 16.3824C6.6354 16.3824 6.34709 16.372 5.40112 16.3297C4.52204 16.2911 4.04734 16.1434 3.73087 16.0204C3.34064 15.8761 2.98544 15.6476 2.69713 15.3487C2.39824 15.0568 2.16968 14.7052 2.02546 14.315C1.90239 13.9985 1.75473 13.5202 1.71613 12.6447C1.67383 11.6953 1.66339 11.4104 1.66339 9.00876C1.66339 6.60709 1.67383 6.31878 1.71613 5.37295C1.75473 4.49387 1.90239 4.01917 2.02546 3.7027C2.16968 3.31234 2.39824 2.95727 2.7007 2.66883C2.99245 2.36994 3.34408 2.14138 3.73444 1.99729C4.05091 1.87422 4.52918 1.72656 5.40469 1.68783C6.35409 1.64566 6.63897 1.63508 9.0405 1.63508C11.4457 1.63508 11.7305 1.64566 12.6765 1.68783C13.5555 1.72656 14.0302 1.87422 14.3467 1.99729C14.7369 2.14138 15.0921 2.36994 15.3804 2.66883C15.6793 2.96071 15.9079 3.31234 16.0521 3.7027C16.1752 4.01917 16.3228 4.49731 16.3616 5.37295C16.4037 6.32236 16.4143 6.60709 16.4143 9.00876C16.4143 11.4104 16.4037 11.6917 16.3616 12.6411Z" fill="white"/>
    <path d="M9.03362 4.37793C6.48086 4.37793 4.40967 6.44898 4.40967 9.00188C4.40967 11.5548 6.48086 13.6258 9.03362 13.6258C11.5865 13.6258 13.6576 11.5548 13.6576 9.00188C13.6576 6.44898 11.5865 4.37793 9.03362 4.37793ZM9.03362 12.0013C7.37752 12.0013 6.03418 10.6581 6.03418 9.00188C6.03418 7.34564 7.37752 6.00244 9.03362 6.00244C10.6899 6.00244 12.0331 7.34564 12.0331 9.00188C12.0331 10.6581 10.6899 12.0013 9.03362 12.0013Z" fill="white"/>
    <path d="M14.9198 4.19471C14.9198 4.79084 14.4365 5.27419 13.8402 5.27419C13.2441 5.27419 12.7607 4.79084 12.7607 4.19471C12.7607 3.59845 13.2441 3.11523 13.8402 3.11523C14.4365 3.11523 14.9198 3.59845 14.9198 4.19471Z" fill="white"/>
    </g>
    <defs>
    <clipPath id="clip0_556_824">
    <rect width="18" height="18" fill="white"/>
    </clipPath>
    </defs>
    </svg>