<svg xmlns="http://www.w3.org/2000/svg" width="16" height="14" viewBox="0 0 16 14" fill="none">
    <g clip-path="url(#clip0_213_161)">
    <path d="M4.10422 13.8846H1.04422V4.67836H4.10422V13.8846ZM2.57422 3.42117H2.55453C1.52703 3.42117 0.863281 2.71336 0.863281 1.83023C0.863281 0.927421 1.54766 0.240234 2.59391 0.240234C3.64016 0.240234 4.28516 0.927421 4.30485 1.83023C4.30485 2.7143 3.64016 3.42117 2.57422 3.42117ZM15.1377 13.8846H12.0777V8.95899C12.0777 7.72149 11.6352 6.87774 10.527 6.87774C9.68235 6.87774 9.17891 7.4468 8.95766 7.99711C8.87703 8.19398 8.85641 8.46867 8.85641 8.74336V13.8846H5.79735C5.79735 13.8846 5.83766 5.54273 5.79735 4.67836H8.85734V5.98242C9.26328 5.35523 9.99079 4.4618 11.6155 4.4618C13.6283 4.4618 15.1377 5.77805 15.1377 8.60555V13.8846Z" fill="#fff"/>
    </g>
    <defs>
    <clipPath id="clip0_213_161">
    <rect width="16" height="14" fill="white"/>
    </clipPath>
    </defs>
    </svg>