<?xml version="1.0" encoding="UTF-8" standalone="no"?>
<!-- Created with Inkscape (http://www.inkscape.org/) -->

<svg
   version="1.1"
   id="svg4374"
   xml:space="preserve"
   width="682.66669"
   height="682.66669"
   viewBox="0 0 682.66669 682.66669"
   xmlns="http://www.w3.org/2000/svg"
   xmlns:svg="http://www.w3.org/2000/svg"><defs
     id="defs4378"><clipPath
       clipPathUnits="userSpaceOnUse"
       id="clipPath4388"><path
         d="M 0,512 H 512 V 0 H 0 Z"
         id="path4386" /></clipPath></defs><g
     id="g4380"
     transform="matrix(1.3333333,0,0,-1.3333333,0,682.66667)"><g
       id="g4382"><g
         id="g4384"
         clip-path="url(#clipPath4388)"><g
           id="g4390"
           transform="translate(445.9902,90.3203)"><path
             d="m 0,0 c 34.383,42.181 55.01,96.018 55.01,154.68 0,135.309 -109.691,245 -245,245 -135.31,0 -245,-109.691 -245,-245 0,-58.662 20.627,-112.499 55.01,-154.68 z"
             style="fill:#73c3f9;fill-opacity:1;fill-rule:nonzero;stroke:none"
             id="path4392" /></g><g
           id="g4394"
           transform="translate(446,470)"><path
             d="M 0,0 V -379.68 C -44.92,-434.8 -113.35,-470 -190,-470 c -40.56,0 -78.81,9.85 -112.5,27.3 -29.98,15.52 -56.35,37.06 -77.5,63.02 V 0 c 0,11.05 8.95,20 20,20 H -20 C -8.95,20 0,11.05 0,0"
             style="fill:#deeeff;fill-opacity:1;fill-rule:nonzero;stroke:none"
             id="path4396" /></g><g
           id="g4398"
           transform="translate(143.5,490)"><path
             d="m 0,0 v -462.7 c -29.98,15.52 -56.35,37.06 -77.5,63.02 V -20 c 0,11.05 8.95,20 20,20 z"
             style="fill:#d3dcfb;fill-opacity:1;fill-rule:nonzero;stroke:none"
             id="path4400" /></g><g
           id="g4402"
           transform="translate(218.5,382)"><path
             d="M 0,0 H 130"
             style="fill:none;stroke:#bec8f7;stroke-width:15;stroke-linecap:round;stroke-linejoin:round;stroke-miterlimit:10;stroke-dasharray:none;stroke-opacity:1"
             id="path4404" /></g><g
           id="g4406"
           transform="translate(218.5,342)"><path
             d="M 0,0 H 187.5"
             style="fill:none;stroke:#bec8f7;stroke-width:15;stroke-linecap:round;stroke-linejoin:round;stroke-miterlimit:10;stroke-dasharray:none;stroke-opacity:1"
             id="path4408" /></g><g
           id="g4410"
           transform="translate(163.5,332)"><path
             d="m 0,0 h -40 c -5.523,0 -10,4.478 -10,10 v 40 c 0,5.522 4.477,10 10,10 H 0 C 5.523,60 10,55.522 10,50 V 10 C 10,4.478 5.523,0 0,0 Z"
             style="fill:none;stroke:#bec8f7;stroke-width:15;stroke-linecap:round;stroke-linejoin:round;stroke-miterlimit:10;stroke-dasharray:none;stroke-opacity:1"
             id="path4412" /></g><g
           id="g4414"
           transform="translate(218.5,282)"><path
             d="M 0,0 H 130"
             style="fill:none;stroke:#bec8f7;stroke-width:15;stroke-linecap:round;stroke-linejoin:round;stroke-miterlimit:10;stroke-dasharray:none;stroke-opacity:1"
             id="path4416" /></g><g
           id="g4418"
           transform="translate(218.5,242)"><path
             d="M 0,0 H 187.5"
             style="fill:none;stroke:#bec8f7;stroke-width:15;stroke-linecap:round;stroke-linejoin:round;stroke-miterlimit:10;stroke-dasharray:none;stroke-opacity:1"
             id="path4420" /></g><g
           id="g4422"
           transform="translate(163.5,232)"><path
             d="m 0,0 h -40 c -5.523,0 -10,4.478 -10,10 v 40 c 0,5.522 4.477,10 10,10 H 0 C 5.523,60 10,55.522 10,50 V 10 C 10,4.478 5.523,0 0,0 Z"
             style="fill:none;stroke:#bec8f7;stroke-width:15;stroke-linecap:round;stroke-linejoin:round;stroke-miterlimit:10;stroke-dasharray:none;stroke-opacity:1"
             id="path4424" /></g><g
           id="g4426"
           transform="translate(218.5,182)"><path
             d="M 0,0 H 130"
             style="fill:none;stroke:#bec8f7;stroke-width:15;stroke-linecap:round;stroke-linejoin:round;stroke-miterlimit:10;stroke-dasharray:none;stroke-opacity:1"
             id="path4428" /></g><g
           id="g4430"
           transform="translate(218.5,142)"><path
             d="M 0,0 H 187.5"
             style="fill:none;stroke:#bec8f7;stroke-width:15;stroke-linecap:round;stroke-linejoin:round;stroke-miterlimit:10;stroke-dasharray:none;stroke-opacity:1"
             id="path4432" /></g><g
           id="g4434"
           transform="translate(163.5,132)"><path
             d="m 0,0 h -40 c -5.523,0 -10,4.478 -10,10 v 40 c 0,5.522 4.477,10 10,10 H 0 C 5.523,60 10,55.522 10,50 V 10 C 10,4.478 5.523,0 0,0 Z"
             style="fill:none;stroke:#bec8f7;stroke-width:15;stroke-linecap:round;stroke-linejoin:round;stroke-miterlimit:10;stroke-dasharray:none;stroke-opacity:1"
             id="path4436" /></g><g
           id="g4438"
           transform="translate(348.5,74.5)"><path
             d="m 0,0 h -130 c -4.142,0 -7.5,3.357 -7.5,7.5 0,4.143 3.358,7.5 7.5,7.5 H 0 C 4.142,15 7.5,11.643 7.5,7.5 7.5,3.357 4.142,0 0,0"
             style="fill:#bec8f7;fill-opacity:1;fill-rule:nonzero;stroke:none"
             id="path4440" /></g><g
           id="g4442"
           transform="translate(403.666,49.5)"><path
             d="m 0,0 h -185.166 c -4.142,0 -7.5,-3.357 -7.5,-7.5 0,-4.143 3.358,-7.5 7.5,-7.5 H -22.265 C -14.559,-10.399 -7.127,-5.392 0,0"
             style="fill:#bec8f7;fill-opacity:1;fill-rule:nonzero;stroke:none"
             id="path4444" /></g><g
           id="g4446"
           transform="translate(166,42)"><path
             d="m 0,0 c 0,-1.379 -1.122,-2.5 -2.5,-2.5 h -40 c -1.378,0 -2.5,1.121 -2.5,2.5 v 40 c 0,1.379 1.122,2.5 2.5,2.5 h 40 C -1.122,42.5 0,41.379 0,40 Z m -2.5,57.5 h -40 C -52.149,57.5 -60,49.649 -60,40 V 9.289 C -46.662,-1.055 -32.231,-10.055 -16.902,-17.5 H -2.5 C 7.149,-17.5 15,-9.649 15,0 v 40 c 0,9.649 -7.851,17.5 -17.5,17.5"
             style="fill:#bec8f7;fill-opacity:1;fill-rule:nonzero;stroke:none"
             id="path4448" /></g><g
           id="g4450"
           transform="translate(329.8462,210.8662)"><path
             d="m 0,0 162.214,162.214 c 11.66,11.659 12.019,30.653 0.46,42.413 -0.156,0.159 -0.314,0.316 -0.473,0.473 -11.76,11.559 -30.754,11.2 -42.413,-0.46 L -42.426,42.426 Z"
             style="fill:#ffdd40;fill-opacity:1;fill-rule:nonzero;stroke:none"
             id="path4452" /></g><g
           id="g4454"
           transform="translate(358.9331,324.8057)"><path
             d="m 0,0 -71.513,-71.514 42.426,-42.425 71.512,71.511 C 30.709,-54.141 11.716,-54.14 0.002,-42.425 -11.713,-30.71 -11.714,-11.716 0,0"
             style="fill:#ffc839;fill-opacity:1;fill-rule:nonzero;stroke:none"
             id="path4456" /></g><g
           id="g4458"
           transform="translate(498.3882,407.6924)"><path
             d="m 0,0 c -3.392,5.868 -8.273,10.75 -14.142,14.142 l -182.684,-182.684 14.142,-14.143 z"
             style="fill:#ffc839;fill-opacity:1;fill-rule:nonzero;stroke:none"
             id="path4460" /></g><g
           id="g4462"
           transform="translate(358.9351,282.3809)"><path
             d="M 0,0 C -2.48,2.48 -4.429,5.288 -5.859,8.283 L -57.373,-43.23 -43.231,-57.373 8.283,-5.859 C 5.288,-4.429 2.48,-2.48 0,0"
             style="fill:#ffb332;fill-opacity:1;fill-rule:nonzero;stroke:none"
             id="path4464" /></g><g
           id="g4466"
           transform="translate(329.8462,210.8662)"><path
             d="m 0,0 -64.315,-33.229 c -6.302,-3.256 -13.119,3.387 -10.026,9.77 l 31.915,65.886 C -17.972,45.103 2.676,24.454 0,0"
             style="fill:#fbb989;fill-opacity:1;fill-rule:nonzero;stroke:none"
             id="path4468" /></g><g
           id="g4470"
           transform="translate(265.5308,177.6367)"><path
             d="M 0,0 29.763,15.377 C 27.964,27.866 18.407,37.82 6.002,40.126 L 4.788,40.352 -10.026,9.771 C -13.118,3.388 -6.301,-3.256 0,0"
             style="fill:#6c5475;fill-opacity:1;fill-rule:nonzero;stroke:none"
             id="path4472" /></g><g
           id="g4474"
           transform="translate(143.5,512)"><path
             d="m 0,0 v 0 c 11.046,0 20,-8.954 20,-20 v -40 c 0,-11.046 -8.954,-20 -20,-20 -11.046,0 -20,8.954 -20,20 v 40 c 0,11.046 8.954,20 20,20"
             style="fill:#6c5475;fill-opacity:1;fill-rule:nonzero;stroke:none"
             id="path4476" /></g><g
           id="g4478"
           transform="translate(143.5,472)"><path
             d="m 0,0 v 0 c -11.046,0 -20,8.954 -20,20 v -40 c 0,-11.046 8.954,-20 20,-20 11.046,0 20,8.954 20,20 V 20 C 20,8.954 11.046,0 0,0"
             style="fill:#543e5b;fill-opacity:1;fill-rule:nonzero;stroke:none"
             id="path4480" /></g><g
           id="g4482"
           transform="translate(218.5,512)"><path
             d="m 0,0 v 0 c 11.046,0 20,-8.954 20,-20 v -40 c 0,-11.046 -8.954,-20 -20,-20 -11.046,0 -20,8.954 -20,20 v 40 c 0,11.046 8.954,20 20,20"
             style="fill:#6c5475;fill-opacity:1;fill-rule:nonzero;stroke:none"
             id="path4484" /></g><g
           id="g4486"
           transform="translate(218.5,472)"><path
             d="m 0,0 v 0 c -11.046,0 -20,8.954 -20,20 v -40 c 0,-11.046 8.954,-20 20,-20 11.046,0 20,8.954 20,20 V 20 C 20,8.954 11.046,0 0,0"
             style="fill:#543e5b;fill-opacity:1;fill-rule:nonzero;stroke:none"
             id="path4488" /></g><g
           id="g4490"
           transform="translate(293.5,512)"><path
             d="m 0,0 v 0 c 11.046,0 20,-8.954 20,-20 v -40 c 0,-11.046 -8.954,-20 -20,-20 -11.046,0 -20,8.954 -20,20 v 40 c 0,11.046 8.954,20 20,20"
             style="fill:#6c5475;fill-opacity:1;fill-rule:nonzero;stroke:none"
             id="path4492" /></g><g
           id="g4494"
           transform="translate(368.5,512)"><path
             d="m 0,0 v 0 c 11.046,0 20,-8.954 20,-20 v -40 c 0,-11.046 -8.954,-20 -20,-20 -11.046,0 -20,8.954 -20,20 v 40 c 0,11.046 8.954,20 20,20"
             style="fill:#6c5475;fill-opacity:1;fill-rule:nonzero;stroke:none"
             id="path4496" /></g><g
           id="g4498"
           transform="translate(183.5,387)"><path
             d="m 0,0 -34.58,-34.58 -15,15"
             style="fill:none;stroke:#ff7186;stroke-width:15;stroke-linecap:round;stroke-linejoin:round;stroke-miterlimit:10;stroke-dasharray:none;stroke-opacity:1"
             id="path4500" /></g><g
           id="g4502"
           transform="translate(183.5,287)"><path
             d="m 0,0 -34.58,-34.58 -15,15"
             style="fill:none;stroke:#ff7186;stroke-width:15;stroke-linecap:round;stroke-linejoin:round;stroke-miterlimit:10;stroke-dasharray:none;stroke-opacity:1"
             id="path4504" /></g><g
           id="g4506"
           transform="translate(183.5,187)"><path
             d="m 0,0 -34.58,-34.58 -15,15"
             style="fill:none;stroke:#ff7186;stroke-width:15;stroke-linecap:round;stroke-linejoin:round;stroke-miterlimit:10;stroke-dasharray:none;stroke-opacity:1"
             id="path4508" /></g><g
           id="g4510"
           transform="translate(293.5,472)"><path
             d="m 0,0 v 0 c -11.046,0 -20,8.954 -20,20 v -40 c 0,-11.046 8.954,-20 20,-20 11.046,0 20,8.954 20,20 V 20 C 20,8.954 11.046,0 0,0"
             style="fill:#543e5b;fill-opacity:1;fill-rule:nonzero;stroke:none"
             id="path4512" /></g><g
           id="g4514"
           transform="translate(368.5,472)"><path
             d="m 0,0 v 0 c -11.046,0 -20,8.954 -20,20 v -40 c 0,-11.046 8.954,-20 20,-20 11.046,0 20,8.954 20,20 V 20 C 20,8.954 11.046,0 0,0"
             style="fill:#543e5b;fill-opacity:1;fill-rule:nonzero;stroke:none"
             id="path4516" /></g></g></g></g></svg>
