<svg width="191" height="40" viewBox="0 0 191 40" fill="none" xmlns="http://www.w3.org/2000/svg">
    <g clip-path="url(#clip0_961_101)">
    <path d="M51.9526 28.2236H49.0215V10.0396H53.0111L58.2492 20.5701L59.9047 24.3426H60.1219L61.7231 20.5701L66.9069 10.0396H70.8965V28.2236H67.9654V17.069L68.074 14.4364H67.8568L66.7441 17.069L61.7231 27.138H58.1949L53.1739 17.069L52.0612 14.4364H51.8441L51.9526 17.069V28.2236ZM75.7886 32.8375H73.8616V30.1777H76.4942C77.6884 30.1777 78.1769 29.8521 78.584 28.9293L78.9097 28.2236L72.2603 14.7349H75.5443L78.9911 21.8999L80.321 25.1296H80.5381L81.8137 21.8728L84.9891 14.7349H88.2188L81.1895 29.6891C80.0767 32.1046 78.5569 32.8375 75.7886 32.8375Z" fill="black"/>
    <path d="M95.0984 28.2236H93.877V10.0396H106.932V11.1524H95.0984V19.0774H106.525V20.163H95.0984V28.2236ZM113.336 28.495C110.784 28.495 108.993 27.2736 108.993 25.1567C108.993 22.904 110.947 22.0628 113.281 21.7914L119.876 21.0315V19.8372C119.876 16.9332 118.601 15.712 115.425 15.712C112.25 15.712 110.513 16.9333 110.513 19.5387V19.6744H109.319V19.5387C109.319 16.9061 111.49 14.6263 115.48 14.6263C119.388 14.6263 121.016 16.9332 121.016 19.7015V28.2236H119.958V24.451H119.876C119.008 27.0294 116.511 28.495 113.336 28.495ZM110.187 25.0753C110.187 26.6494 111.192 27.4908 113.526 27.4908C116.918 27.4908 119.876 25.781 119.876 22.1713V21.927L113.716 22.6327C111.354 22.877 110.187 23.4197 110.187 25.0753ZM130.107 28.495C126.144 28.495 123.783 26.8938 123.783 23.8269V23.7726H124.977V23.9083C124.977 26.4867 126.497 27.4366 130.107 27.4366C133.418 27.4366 134.612 26.6224 134.612 24.8311C134.612 23.2027 133.635 22.6327 131.192 22.2528L127.691 21.7371C125.357 21.3843 123.783 20.5158 123.783 18.3174C123.783 15.9562 126.117 14.6263 129.483 14.6263C133.119 14.6263 135.616 16.2005 135.616 19.2945V19.3488H134.422V19.2131C134.422 16.9061 133.174 15.6576 129.456 15.6576C126.334 15.6576 124.977 16.4447 124.977 18.3174C124.977 19.8916 125.792 20.4615 128.18 20.8143L131.572 21.33C134.178 21.71 135.806 22.6327 135.806 24.7768C135.806 27.3009 133.337 28.495 130.107 28.495ZM139.838 28.2236H138.616V10.0396H139.838V18.9688H139.919C140.38 16.7432 142.172 14.6263 145.564 14.6263C149.337 14.6263 151.236 17.1503 151.236 20.6243V28.2236H150.042V20.5429C150.042 17.2047 148.441 15.712 145.266 15.712C141.412 15.712 139.838 18.3988 139.838 22.1171V28.2236ZM155.979 13.0522H154.757V10.0396H155.979V13.0522ZM155.979 28.2236H154.757V14.8977H155.979V28.2236ZM165.932 28.495C161.617 28.495 158.795 25.5367 158.795 21.5471C158.795 17.5846 161.617 14.6263 165.932 14.6263C170.221 14.6263 173.07 17.5846 173.07 21.5471C173.07 25.5367 170.221 28.495 165.932 28.495ZM165.932 27.4094C169.949 27.4094 171.876 25.1025 171.876 21.5471C171.876 18.0189 169.949 15.712 165.932 15.712C161.916 15.712 159.989 18.0189 159.989 21.5471C159.989 25.1025 161.916 27.4094 165.932 27.4094ZM177.102 28.2236H175.881V14.8977H176.94V19.1045H177.048C177.537 16.8247 179.545 14.6263 182.802 14.6263C186.602 14.6263 188.501 17.3946 188.501 20.6243V28.2236H187.28V20.5429C187.28 17.5575 185.814 15.712 182.558 15.712C179.057 15.712 177.102 18.0188 177.102 21.8456V28.2236Z" fill="black"/>
    <path fill-rule="evenodd" clip-rule="evenodd" d="M18.0242 0.968859C22.0115 0.0277043 25.7868 -0.206832 28.6677 0.17444C31.6807 0.573153 33.7602 1.66585 34.1912 3.35753V3.36294L34.2008 3.40203L34.2026 3.40564C34.5892 5.051 33.3436 6.88099 30.9964 8.53177C28.7572 10.1062 25.4885 11.5513 21.6969 12.5207C21.4778 12.5766 21.2425 12.6344 20.9915 12.6933C17.0048 13.6344 13.2289 13.869 10.3486 13.4877C7.33564 13.089 5.25615 11.9963 4.82513 10.3046V10.2992L4.81552 10.2601L4.81372 10.2565C4.42712 8.61115 5.67277 6.78116 8.01999 5.13099C10.2591 3.55658 13.5278 2.11147 17.3194 1.14206C17.5379 1.08553 17.7732 1.02839 18.0242 0.968859ZM28.5549 1.04163C25.7742 0.673583 22.1105 0.904511 18.2229 1.82221C18.0056 1.87333 17.7756 1.92986 17.5349 1.9918C13.8448 2.93476 10.6781 4.33115 8.52306 5.84662C6.47599 7.28632 5.36961 8.79577 5.66616 10.0575H5.66496L5.67277 10.0881L5.67397 10.0875C6.00774 11.3973 7.81289 12.2693 10.4614 12.6199C13.2421 12.988 16.9058 12.7564 20.7934 11.8387C21.0107 11.7876 21.2401 11.7311 21.4814 11.6692C25.1715 10.7262 28.3382 9.3298 30.4933 7.81433C32.5404 6.37463 33.6467 4.86518 33.3502 3.60349L33.3514 3.60289L33.3436 3.57222L33.3424 3.57282C33.0086 2.26422 31.2035 1.39223 28.5549 1.04163Z" fill="black"/>
    <path fill-rule="evenodd" clip-rule="evenodd" d="M26.3682 10.4268C26.3706 10.4304 27.2189 11.7083 26.5627 13.1293C26.3382 13.6159 26.1239 13.9929 25.9162 14.358C25.6173 14.8842 25.3333 15.3839 25.0584 16.1729C25.0109 16.31 24.9497 16.4327 24.8759 16.5428C24.6009 16.9529 24.1807 17.161 23.656 17.2007C23.2052 17.2343 22.6733 17.1369 22.0916 16.9337C20.8069 16.4844 19.9347 15.3592 19.9575 14.8264C20.8147 15.4037 21.6528 15.8536 22.3792 16.1074C22.8474 16.2709 23.2616 16.3509 23.5906 16.3257C23.8457 16.307 24.039 16.2204 24.1501 16.0556C24.1831 16.0069 24.2107 15.9498 24.2335 15.8842C24.5349 15.0189 24.8374 14.4866 25.1562 13.9256C25.3525 13.5804 25.5554 13.2232 25.7679 12.7619C26.2194 11.7835 25.6365 10.9055 25.6347 10.903L26.3682 10.4268Z" fill="black"/>
    <path fill-rule="evenodd" clip-rule="evenodd" d="M21.1181 19.6947C22.0816 20.8487 23.6088 24.5743 25.3389 28.7935C26.5179 31.6699 27.793 34.7784 29.0332 37.4311C28.7805 37.5766 28.5242 37.7162 28.2642 37.8503C27.0096 35.1699 25.7219 32.0301 24.5315 29.1261C22.8296 24.9748 21.3264 21.31 20.4475 20.2564C18.8411 18.3326 16.8048 19.5143 16.7988 19.5173C17.8692 18.1107 20.0411 18.4042 21.1181 19.6947Z" fill="black"/>
    <path fill-rule="evenodd" clip-rule="evenodd" d="M23.1644 23.7178C23.177 23.728 27.5887 27.3008 28.8926 29.7532C29.5211 30.9349 29.7156 32.1082 29.6117 33.1763C29.4899 34.4229 28.9628 35.524 28.2412 36.3287L27.5911 35.7423C28.1974 35.0664 28.641 34.1409 28.7431 33.0939C28.8313 32.1846 28.6632 31.1809 28.123 30.1646C26.9031 27.8703 22.6259 24.4064 22.6133 24.3962L23.1644 23.7178Z" fill="black"/>
    <path fill-rule="evenodd" clip-rule="evenodd" d="M15.3146 12.8726C15.3182 12.8768 16.6893 14.3177 14.8493 18.5008C14.8205 18.5652 14.7731 18.671 14.6698 18.9026C13.0742 22.4898 9.98441 29.4429 16.5236 39.7884C16.1334 39.7306 15.7474 39.6609 15.365 39.5797C9.12536 29.224 12.2458 22.2035 13.8726 18.5459C13.8924 18.5008 13.9068 18.469 14.0479 18.1472C15.6579 14.4885 14.6704 13.4619 14.6674 13.4583L15.3146 12.8726Z" fill="black"/>
    <path fill-rule="evenodd" clip-rule="evenodd" d="M22.9403 39.6746C20.1416 33.5339 17.1502 28.655 17.1406 28.6387C19.4951 30.0375 22.2691 35.8336 23.8533 39.4821C23.552 39.5537 23.2476 39.6174 22.9403 39.6746Z" fill="black"/>
    <path fill-rule="evenodd" clip-rule="evenodd" d="M22.1576 16.7049C22.1546 16.7079 21.1257 17.6256 20.5704 19.4881L19.7324 19.2379C20.3573 17.1415 21.5729 16.0573 21.5765 16.0542L22.1576 16.7049Z" fill="black"/>
    <path fill-rule="evenodd" clip-rule="evenodd" d="M22.4844 13.6618C22.4844 13.6618 23.7463 13.2168 24.2679 13.1651C24.7896 13.1134 24.7734 13.5265 24.7734 13.5265C24.7734 13.5265 25.1408 13.4008 25.2272 13.6167C25.3143 13.8326 25.0207 14.1393 24.8575 14.2391C24.8575 14.2391 24.9187 14.9103 24.2812 14.9037C23.643 14.897 23.3795 14.1549 22.4844 13.6618Z" fill="black"/>
    <path fill-rule="evenodd" clip-rule="evenodd" d="M15.5841 39.6219C11.0547 38.7138 7.15874 36.2656 4.39549 32.8883C1.63105 29.5091 0 25.2021 0 20.5751C0 15.7689 1.75592 11.3223 4.69925 7.89871C7.64139 4.47627 11.7703 2.07798 16.5164 1.36475L16.6431 2.23194C12.1113 2.91269 8.16906 5.20334 5.3596 8.47122C2.55133 11.7378 0.875857 15.983 0.875857 20.5751C0.875857 24.9964 2.43187 29.1092 5.06965 32.3332C7.70742 35.5572 11.4281 37.8941 15.7558 38.7619L15.5841 39.6219Z" fill="black"/>
    <path fill-rule="evenodd" clip-rule="evenodd" d="M38.7311 19.1787C39.1363 24.81 37.0988 30.3072 33.1025 34.3105C29.5937 37.8256 24.7456 40.0002 19.3914 40.0002C19.0714 40.0002 18.7371 39.9911 18.3889 39.9731C18.0551 39.9557 17.7219 39.9298 17.3887 39.8949L17.4782 39.0241C17.7958 39.0572 18.1145 39.0819 18.4339 39.0987C18.7383 39.1149 19.0582 39.1228 19.392 39.1228C24.5049 39.1228 29.1333 37.0468 32.4842 33.6899C37.4968 28.6678 38.4345 21.6792 38.7311 19.1787Z" fill="black"/>
    <path fill-rule="evenodd" clip-rule="evenodd" d="M18.1621 39.4835L17.3883 39.8949C17.3883 39.8949 13.2828 34.8938 12.536 28.0561C11.7892 21.2185 14.8406 19.8642 16.1283 19.7998C16.1283 19.7998 13.9317 21.1541 13.7384 24.25C13.5451 27.3459 16.3906 32.7372 19.1461 36.0267C19.1461 36.0267 20.3437 35.5685 20.7879 34.9497C21.2322 34.3309 22.9448 39.0583 22.9448 39.0583L18.1621 39.4835Z" fill="black"/>
    <path fill-rule="evenodd" clip-rule="evenodd" d="M24.1927 25.4141C24.8807 26.0281 25.5542 26.6632 26.1959 27.3247C26.9517 28.1047 27.8384 29.0831 28.3493 30.0447C28.8523 30.9913 29.1027 32.0461 28.9982 33.1184C28.922 33.902 28.6596 34.6609 28.2334 35.3218L27.9765 35.7199L27.7862 35.2857C26.8581 33.1689 25.9816 31.0292 25.1046 28.8907C24.6687 27.8275 24.2329 26.7636 23.7887 25.704L23.3535 24.6636L24.1927 25.4141Z" fill="black"/>
    <path d="M30.4838 3.91985C30.9864 5.89664 26.3932 8.77514 20.2245 10.3491C14.0558 11.9232 8.64767 11.5966 8.14504 9.6199C7.64242 7.64311 12.2356 4.76461 18.4043 3.19059C24.573 1.61656 29.9812 1.94307 30.4838 3.91985Z" fill="black"/>
    <mask id="mask0_961_101" style="mask-type:luminance" maskUnits="userSpaceOnUse" x="0" y="0" width="39" height="40">
    <path fill-rule="evenodd" clip-rule="evenodd" d="M18.0242 0.968859C22.0115 0.0277043 25.7868 -0.206832 28.6677 0.17444C31.6807 0.573153 33.7602 1.66585 34.1912 3.35753V3.36294L34.2008 3.40203L34.2026 3.40564C34.5892 5.051 33.3436 6.88099 30.9964 8.53177C28.7572 10.1062 25.4885 11.5513 21.6969 12.5207C21.4778 12.5766 21.2425 12.6344 20.9915 12.6933C17.0048 13.6344 13.2289 13.869 10.3486 13.4877C7.33564 13.089 5.25615 11.9963 4.82513 10.3046V10.2992L4.81552 10.2601L4.81372 10.2565C4.42712 8.61115 5.67277 6.78116 8.01999 5.13099C10.2591 3.55658 13.5278 2.11147 17.3194 1.14206C17.5379 1.08553 17.7732 1.02839 18.0242 0.968859ZM28.5549 1.04163C25.7742 0.673583 22.1105 0.904511 18.2229 1.82221C18.0056 1.87333 17.7756 1.92986 17.5349 1.9918C13.8448 2.93476 10.6781 4.33115 8.52306 5.84662C6.47599 7.28632 5.36961 8.79577 5.66616 10.0575H5.66496L5.67277 10.0881L5.67397 10.0875C6.00774 11.3973 7.81289 12.2693 10.4614 12.6199C13.2421 12.988 16.9058 12.7564 20.7934 11.8387C21.0107 11.7876 21.2401 11.7311 21.4814 11.6692C25.1715 10.7262 28.3382 9.3298 30.4933 7.81433C32.5404 6.37463 33.6467 4.86518 33.3502 3.60349L33.3514 3.60289L33.3436 3.57222L33.3424 3.57282C33.0086 2.26422 31.2035 1.39223 28.5549 1.04163Z" fill="white"/>
    <path fill-rule="evenodd" clip-rule="evenodd" d="M26.3682 10.4268C26.3706 10.4304 27.2189 11.7083 26.5627 13.1293C26.3382 13.6159 26.1239 13.9929 25.9162 14.358C25.6173 14.8842 25.3333 15.3839 25.0584 16.1729C25.0109 16.31 24.9497 16.4327 24.8759 16.5428C24.6009 16.9529 24.1807 17.161 23.656 17.2007C23.2052 17.2343 22.6733 17.1369 22.0916 16.9337C20.8069 16.4844 19.9347 15.3592 19.9575 14.8264C20.8147 15.4037 21.6528 15.8536 22.3792 16.1074C22.8474 16.2709 23.2616 16.3509 23.5906 16.3257C23.8457 16.307 24.039 16.2204 24.1501 16.0556C24.1831 16.0069 24.2107 15.9498 24.2335 15.8842C24.5349 15.0189 24.8374 14.4866 25.1562 13.9256C25.3525 13.5804 25.5554 13.2232 25.7679 12.7619C26.2194 11.7835 25.6365 10.9055 25.6347 10.903L26.3682 10.4268Z" fill="white"/>
    <path fill-rule="evenodd" clip-rule="evenodd" d="M21.1181 19.6947C22.0816 20.8487 23.6088 24.5743 25.3389 28.7935C26.5179 31.6699 27.793 34.7784 29.0332 37.4311C28.7805 37.5766 28.5242 37.7162 28.2642 37.8503C27.0096 35.1699 25.7219 32.0301 24.5315 29.1261C22.8296 24.9748 21.3264 21.31 20.4475 20.2564C18.8411 18.3326 16.8048 19.5143 16.7988 19.5173C17.8692 18.1107 20.0411 18.4042 21.1181 19.6947Z" fill="white"/>
    <path fill-rule="evenodd" clip-rule="evenodd" d="M23.1644 23.7178C23.177 23.728 27.5887 27.3008 28.8926 29.7532C29.5211 30.9349 29.7156 32.1082 29.6117 33.1763C29.4899 34.4229 28.9628 35.524 28.2412 36.3287L27.5911 35.7423C28.1974 35.0664 28.641 34.1409 28.7431 33.0939C28.8313 32.1846 28.6632 31.1809 28.123 30.1646C26.9031 27.8703 22.6259 24.4064 22.6133 24.3962L23.1644 23.7178Z" fill="white"/>
    <path fill-rule="evenodd" clip-rule="evenodd" d="M15.3146 12.8726C15.3182 12.8768 16.6893 14.3177 14.8493 18.5008C14.8205 18.5652 14.7731 18.671 14.6698 18.9026C13.0742 22.4898 9.98441 29.4429 16.5236 39.7884C16.1334 39.7306 15.7474 39.6609 15.365 39.5797C9.12536 29.224 12.2458 22.2035 13.8726 18.5459C13.8924 18.5008 13.9068 18.469 14.0479 18.1472C15.6579 14.4885 14.6704 13.4619 14.6674 13.4583L15.3146 12.8726Z" fill="white"/>
    <path fill-rule="evenodd" clip-rule="evenodd" d="M22.9403 39.6746C20.1416 33.5339 17.1502 28.655 17.1406 28.6387C19.4951 30.0375 22.2691 35.8336 23.8533 39.4821C23.552 39.5537 23.2476 39.6174 22.9403 39.6746Z" fill="white"/>
    <path fill-rule="evenodd" clip-rule="evenodd" d="M22.1576 16.7049C22.1546 16.7079 21.1257 17.6256 20.5704 19.4881L19.7324 19.2379C20.3573 17.1415 21.5729 16.0573 21.5765 16.0542L22.1576 16.7049Z" fill="white"/>
    <path fill-rule="evenodd" clip-rule="evenodd" d="M22.4844 13.6618C22.4844 13.6618 23.7463 13.2168 24.2679 13.1651C24.7896 13.1134 24.7734 13.5265 24.7734 13.5265C24.7734 13.5265 25.1408 13.4008 25.2272 13.6167C25.3143 13.8326 25.0207 14.1393 24.8575 14.2391C24.8575 14.2391 24.9187 14.9103 24.2812 14.9037C23.643 14.897 23.3795 14.1549 22.4844 13.6618Z" fill="white"/>
    <path fill-rule="evenodd" clip-rule="evenodd" d="M15.5841 39.6219C11.0547 38.7138 7.15874 36.2656 4.39549 32.8883C1.63105 29.5091 0 25.2021 0 20.5751C0 15.7689 1.75592 11.3223 4.69925 7.89871C7.64139 4.47627 11.7703 2.07798 16.5164 1.36475L16.6431 2.23194C12.1113 2.91269 8.16906 5.20334 5.3596 8.47122C2.55133 11.7378 0.875857 15.983 0.875857 20.5751C0.875857 24.9964 2.43187 29.1092 5.06965 32.3332C7.70742 35.5572 11.4281 37.8941 15.7558 38.7619L15.5841 39.6219Z" fill="white"/>
    <path fill-rule="evenodd" clip-rule="evenodd" d="M38.7311 19.1787C39.1363 24.81 37.0988 30.3072 33.1025 34.3105C29.5937 37.8256 24.7456 40.0002 19.3914 40.0002C19.0714 40.0002 18.7371 39.9911 18.3889 39.9731C18.0551 39.9557 17.7219 39.9298 17.3887 39.8949L17.4782 39.0241C17.7958 39.0572 18.1145 39.0819 18.4339 39.0987C18.7383 39.1149 19.0582 39.1228 19.392 39.1228C24.5049 39.1228 29.1333 37.0468 32.4842 33.6899C37.4968 28.6678 38.4345 21.6792 38.7311 19.1787Z" fill="white"/>
    <path fill-rule="evenodd" clip-rule="evenodd" d="M18.1621 39.4835L17.3883 39.8949C17.3883 39.8949 13.2828 34.8938 12.536 28.0561C11.7892 21.2185 14.8406 19.8642 16.1283 19.7998C16.1283 19.7998 13.9317 21.1541 13.7384 24.25C13.5451 27.3459 16.3906 32.7372 19.1461 36.0267C19.1461 36.0267 20.3437 35.5685 20.7879 34.9497C21.2322 34.3309 22.9448 39.0583 22.9448 39.0583L18.1621 39.4835Z" fill="white"/>
    <path fill-rule="evenodd" clip-rule="evenodd" d="M24.1927 25.4141C24.8807 26.0281 25.5542 26.6632 26.1959 27.3247C26.9517 28.1047 27.8384 29.0831 28.3493 30.0447C28.8523 30.9913 29.1027 32.0461 28.9982 33.1184C28.922 33.902 28.6596 34.6609 28.2334 35.3218L27.9765 35.7199L27.7862 35.2857C26.8581 33.1689 25.9816 31.0292 25.1046 28.8907C24.6687 27.8275 24.2329 26.7636 23.7887 25.704L23.3535 24.6636L24.1927 25.4141Z" fill="white"/>
    <path d="M30.4838 3.91985C30.9864 5.89664 26.3932 8.77514 20.2245 10.3491C14.0558 11.9232 8.64767 11.5966 8.14504 9.6199C7.64242 7.64311 12.2356 4.76461 18.4043 3.19059C24.573 1.61656 29.9812 1.94307 30.4838 3.91985Z" fill="white"/>
    </mask>
    <g mask="url(#mask0_961_101)">
    <path d="M34.1902 3.35738H34.8536V3.27419L34.8331 3.19357L34.1902 3.35738ZM34.1902 3.36279H33.5268V3.4431L33.546 3.5211L34.1902 3.36279ZM34.1998 3.40188L33.5556 3.56019L33.5732 3.63197L33.6062 3.6981L34.1998 3.40188ZM34.2016 3.40549L34.8475 3.25374L34.8298 3.17846L34.7952 3.10926L34.2016 3.40549ZM4.82409 10.3045H4.16066V10.3877L4.1812 10.4683L4.82409 10.3045ZM4.82409 10.2991H5.48751V10.2188L5.46835 10.1408L4.82409 10.2991ZM4.81448 10.26L5.45874 10.1017L5.44109 10.0299L5.40806 9.96366L4.81448 10.26ZM4.81268 10.2564L4.16684 10.4082L4.18454 10.4835L4.2191 10.5527L4.81268 10.2564ZM17.3184 1.14191L17.4827 1.78466L17.4846 1.78419L17.3184 1.14191ZM17.5339 1.99165L17.6982 2.63443L17.6992 2.63415L17.5339 1.99165ZM5.66512 10.0574V10.7208H6.50257L6.31095 9.90551L5.66512 10.0574ZM5.66392 10.0574V9.39388H4.81053L5.02098 10.221L5.66392 10.0574ZM5.67173 10.088L5.02879 10.2516L5.23186 11.0497L5.96842 10.6814L5.67173 10.088ZM5.67293 10.0874L6.31581 9.92356L6.11253 9.12584L5.37623 9.49399L5.67293 10.0874ZM33.3492 3.60334L33.0523 3.01004L32.5834 3.24469L32.7033 3.75514L33.3492 3.60334ZM33.3504 3.60274L33.6473 4.19603L34.1251 3.95693L33.9933 3.43912L33.3504 3.60274ZM33.3426 3.57207L33.9855 3.40845L33.7824 2.61015L33.0457 2.97877L33.3426 3.57207ZM33.3414 3.57267L32.6985 3.73664L32.902 4.53438L33.6383 4.16596L33.3414 3.57267ZM26.3669 10.4267L26.9192 10.0591L26.5558 9.51297L26.0057 9.87017L26.3669 10.4267ZM25.0571 16.1728L24.4306 15.9545L24.4301 15.9559L25.0571 16.1728ZM19.9562 14.8263L20.3268 14.2761L19.3441 13.6142L19.2934 14.7979L19.9562 14.8263ZM23.5893 16.3256L23.5409 15.6639L23.5385 15.6641L23.5893 16.3256ZM24.1488 16.0555L23.5996 15.6833L23.5986 15.6848L24.1488 16.0555ZM25.6334 10.9029L25.2721 10.3465L24.6772 10.7328L25.1023 11.3006L25.6334 10.9029ZM29.0329 37.431L29.364 38.0059L29.8919 37.7019L29.6339 37.15L29.0329 37.431ZM28.2639 37.8502L27.6631 38.1314L27.9554 38.7559L28.5681 38.4398L28.2639 37.8502ZM16.7985 19.5172L16.2706 19.1155L17.0957 20.1104L16.7985 19.5172ZM23.1643 23.7179L23.5821 23.2026L23.0673 22.7851L22.6493 23.2996L23.1643 23.7179ZM28.2411 36.3288L27.7968 36.8214L28.2909 37.267L28.735 36.7717L28.2411 36.3288ZM27.591 35.7424L27.0971 35.2995L26.6553 35.792L27.1467 36.2351L27.591 35.7424ZM22.6132 24.3963L22.0983 23.978L21.6796 24.4933L22.1953 24.9116L22.6132 24.3963ZM15.3134 12.8725L15.8175 12.4411L15.3739 11.9228L14.8682 12.3806L15.3134 12.8725ZM14.8481 18.5007L15.4536 18.7719L15.4554 18.7679L14.8481 18.5007ZM16.5224 39.7883L16.4253 40.4445L17.8559 40.6562L17.0832 39.4338L16.5224 39.7883ZM15.3638 39.5796L14.7955 39.922L14.9442 40.1687L15.226 40.2286L15.3638 39.5796ZM13.8714 18.5458L14.4776 18.8155L14.4788 18.8126L13.8714 18.5458ZM14.6662 13.4582L14.221 12.9663L13.7493 13.3933L14.1562 13.8825L14.6662 13.4582ZM22.9392 39.6747L22.3355 39.9498L22.5505 40.4217L23.0604 40.3269L22.9392 39.6747ZM17.1395 28.6388L17.4784 28.0685L16.5685 28.9766L17.1395 28.6388ZM23.8522 39.4822L24.0055 40.1277L24.7763 39.9447L24.4608 39.218L23.8522 39.4822ZM22.1563 16.705L22.6259 17.1737L23.0684 16.7304L22.6512 16.2631L22.1563 16.705ZM20.5691 19.4882L20.3793 20.1239L21.0153 20.3138L21.2049 19.6778L20.5691 19.4882ZM19.7311 19.238L19.0953 19.0485L18.9058 19.684L19.5413 19.8737L19.7311 19.238ZM21.5752 16.0543L22.0701 15.6124L21.6426 15.1338L21.1501 15.5451L21.5752 16.0543ZM22.4829 13.6615L22.2623 13.0359L20.8661 13.5282L22.1628 14.2426L22.4829 13.6615ZM24.7719 13.5262L24.109 13.5002L24.0711 14.4672L24.9867 14.1539L24.7719 13.5262ZM25.2257 13.6164L24.6099 13.863L24.6104 13.8645L25.2257 13.6164ZM24.856 14.2388L24.5099 13.6728L24.1578 13.8881L24.1953 14.2991L24.856 14.2388ZM15.5835 39.6218L15.4531 40.2723L16.1041 40.4028L16.2341 39.7517L15.5835 39.6218ZM16.5158 1.36455L17.1723 1.26867L17.076 0.609493L16.4172 0.708493L16.5158 1.36455ZM16.6425 2.23174L16.741 2.8878L17.3944 2.78965L17.2989 2.13585L16.6425 2.23174ZM15.7552 38.7618L16.4058 38.8917L16.5356 38.2417L15.8856 38.1113L15.7552 38.7618ZM38.7298 19.1786L39.3915 19.131L38.071 19.1005L38.7298 19.1786ZM17.3874 39.8948L16.8747 40.3158L17.0475 40.5263L17.3184 40.5547L17.3874 39.8948ZM17.4769 39.024L17.5456 38.3642L16.8848 38.2953L16.8169 38.9562L17.4769 39.024ZM18.1612 39.4834L18.1025 38.8225L17.9685 38.8344L17.8498 38.8976L18.1612 39.4834ZM16.1274 19.7997L16.4756 20.3644L16.0943 19.1371L16.1274 19.7997ZM19.1452 36.0266L18.6366 36.4527L18.9404 36.8153L19.3823 36.6463L19.1452 36.0266ZM22.9439 39.0582L23.0027 39.719L23.8613 39.6427L23.5677 38.8322L22.9439 39.0582ZM27.9758 35.72L27.3681 35.9863L27.8637 37.1171L28.5332 36.0798L27.9758 35.72ZM23.3528 24.6637L23.795 24.1692L22.7407 24.9198L23.3528 24.6637ZM18.1756 1.61439C22.104 0.687139 25.7964 0.463639 28.5797 0.83199L28.7538 -0.483399C25.7752 -0.877594 21.9169 -0.632023 17.8708 0.323026L18.1756 1.61439ZM28.5797 0.83199C30.0359 1.02469 31.2193 1.37999 32.0715 1.85923C32.9213 2.33714 33.3906 2.90618 33.5473 3.52118L34.8331 3.19357C34.5588 2.1169 33.7729 1.29376 32.7219 0.702721C31.6733 0.113017 30.3105 -0.277392 28.7538 -0.483399L28.5797 0.83199ZM33.5268 3.35738V3.36279H34.8536V3.35738H33.5268ZM33.546 3.5211L33.5556 3.56019L34.8441 3.24356L34.8345 3.20447L33.546 3.5211ZM33.6062 3.6981L33.608 3.70171L34.7952 3.10926L34.7934 3.10565L33.6062 3.6981ZM33.5558 3.55724C33.6962 4.15497 33.5567 4.84045 33.0649 5.6089C32.5703 6.38166 31.7448 7.19344 30.6137 7.98896L31.3769 9.07432C32.593 8.21906 33.564 7.29042 34.1825 6.32415C34.8036 5.35357 35.0936 4.30137 34.8475 3.25374L33.5558 3.55724ZM30.6137 7.98896C28.4564 9.50577 25.267 10.9228 21.5316 11.8778L21.86 13.1634C25.7077 12.1796 29.0559 10.7064 31.3769 9.07432L30.6137 7.98896ZM21.5316 11.8778C21.3168 11.9326 21.0858 11.9893 20.8388 12.0473L21.1422 13.3391C21.3971 13.2792 21.6366 13.2204 21.86 13.1634L21.5316 11.8778ZM20.8388 12.0473C16.911 12.9746 13.2173 13.1983 10.4346 12.8299L10.2605 14.1453C13.2385 14.5395 17.0966 14.2941 21.1422 13.3391L20.8388 12.0473ZM10.4346 12.8299C8.97838 12.6372 7.79496 12.2819 6.9428 11.8027C6.09301 11.3248 5.62367 10.7557 5.46697 10.1407L4.1812 10.4683C4.45552 11.545 5.24144 12.3681 6.29239 12.9592C7.34097 13.5489 8.70379 13.9393 10.2605 14.1453L10.4346 12.8299ZM5.48751 10.3045V10.2991H4.16066V10.3045H5.48751ZM5.46835 10.1408L5.45874 10.1017L4.17022 10.4183L4.17982 10.4574L5.46835 10.1408ZM5.40806 9.96366L5.40626 9.96005L4.2191 10.5527L4.2209 10.5563L5.40806 9.96366ZM5.45852 10.1047C5.31807 9.50688 5.45761 8.82141 5.9494 8.05305C6.44395 7.28039 7.26941 6.46876 8.40051 5.67356L7.6374 4.58811C6.42127 5.44309 5.45029 6.37154 4.83186 7.33776C4.21067 8.30828 3.92068 9.36049 4.16684 10.4082L5.45852 10.1047ZM8.40051 5.67356C10.5578 4.15676 13.7473 2.73973 17.4827 1.78466L17.1541 0.499156C13.3064 1.48292 9.95848 2.95611 7.6374 4.58811L8.40051 5.67356ZM17.4846 1.78419C17.6967 1.72931 17.9263 1.67354 18.1756 1.61439L17.8708 0.323026C17.6183 0.382948 17.3771 0.441445 17.1523 0.499624L17.4846 1.78419ZM28.6409 0.383788C25.7619 0.00272626 22.0151 0.244994 18.0695 1.17638L18.3738 2.46787C22.2034 1.56385 25.7845 1.34414 28.4668 1.69917L28.6409 0.383788ZM18.0695 1.17638C17.8476 1.22857 17.6137 1.28608 17.3686 1.34915L17.6992 2.63415C17.9356 2.57333 18.161 2.51791 18.3738 2.46787L18.0695 1.17638ZM17.3697 1.34887C13.6243 2.30594 10.3781 3.73026 8.1404 5.30379L8.90363 6.38916C10.9762 4.93175 14.0633 3.56327 17.6982 2.63443L17.3697 1.34887ZM8.1404 5.30379C7.08085 6.04897 6.22517 6.83863 5.66938 7.64082C5.11579 8.43983 4.81173 9.32605 5.0193 10.2092L6.31095 9.90551C6.22196 9.52689 6.32281 9.02754 6.76004 8.39647C7.19507 7.76859 7.9161 7.08369 8.90363 6.38916L8.1404 5.30379ZM5.66512 9.39388H5.66392V10.7208H5.66512V9.39388ZM5.02098 10.221L5.02879 10.2516L6.31467 9.92438L6.30686 9.89371L5.02098 10.221ZM5.96842 10.6814L5.96962 10.6808L5.37623 9.49399L5.37503 9.49459L5.96842 10.6814ZM5.03005 10.2513C5.26262 11.1639 5.98418 11.8329 6.89423 12.3028C7.81067 12.776 9.00631 13.0966 10.3734 13.2775L10.5475 11.9621C9.26596 11.7925 8.23474 11.5017 7.50303 11.1239C6.76491 10.7427 6.41702 10.3207 6.31581 9.92356L5.03005 10.2513ZM10.3734 13.2775C13.2525 13.6586 16.9993 13.4157 20.9448 12.4843L20.6405 11.1928C16.8108 12.0968 13.2297 12.3171 10.5475 11.9621L10.3734 13.2775ZM20.9448 12.4843C21.167 12.4321 21.4001 12.3746 21.6453 12.3116L21.3161 11.0263C21.0787 11.0872 20.853 11.1429 20.6405 11.1928L20.9448 12.4843ZM21.6453 12.3116C25.3907 11.3546 28.6362 9.93039 30.8739 8.35686L30.1107 7.27149C28.0381 8.7289 24.951 10.0974 21.3161 11.0263L21.6453 12.3116ZM30.8739 8.35686C31.9335 7.61168 32.7891 6.82202 33.3449 6.01983C33.8985 5.22082 34.2026 4.3346 33.995 3.45154L32.7033 3.75514C32.7923 4.13376 32.6915 4.63311 32.2543 5.26418C31.8192 5.89206 31.0983 6.57696 30.1107 7.27149L30.8739 8.35686ZM33.6461 4.19663L33.6473 4.19603L33.0535 3.00944L33.0523 3.01004L33.6461 4.19663ZM33.9933 3.43912L33.9855 3.40845L32.6996 3.73568L32.7074 3.76635L33.9933 3.43912ZM33.0457 2.97877L33.0445 2.97937L33.6383 4.16596L33.6395 4.16536L33.0457 2.97877ZM33.9842 3.4087C33.7516 2.49658 33.0299 1.82801 32.12 1.35831C31.2036 0.885259 30.008 0.564751 28.6409 0.383788L28.4668 1.69917C29.7483 1.86881 30.7796 2.1596 31.5114 2.53734C32.2496 2.91844 32.5974 3.34016 32.6985 3.73664L33.9842 3.4087ZM25.8146 10.7942C25.8053 10.7801 26.4552 11.7768 25.9591 12.8511L27.1638 13.4074C27.98 11.6395 26.9334 10.0804 26.9192 10.0591L25.8146 10.7942ZM25.9591 12.8511C25.7475 13.3094 25.5458 13.665 25.3383 14.0298L26.4915 14.686C26.6994 14.3206 26.9263 13.9221 27.1638 13.4074L25.9591 12.8511ZM25.3383 14.0298C25.0362 14.5616 24.7265 15.1053 24.4306 15.9545L25.6835 16.3911C25.9375 15.6623 26.1957 15.2066 26.4915 14.686L25.3383 14.0298ZM24.4301 15.9559C24.4006 16.0412 24.3644 16.1122 24.3236 16.173L25.4255 16.9123C25.5324 16.753 25.6187 16.5787 25.684 16.3897L24.4301 15.9559ZM24.3236 16.173C24.184 16.3812 23.9694 16.5114 23.6047 16.539L23.7041 17.8621C24.3887 17.8103 25.0152 17.5244 25.4255 16.9123L24.3236 16.173ZM23.6047 16.539C23.2783 16.5634 22.8435 16.494 22.3092 16.3073L21.8713 17.5598C22.5003 17.7796 23.1289 17.9051 23.7041 17.8621L23.6047 16.539ZM22.3092 16.3073C21.7811 16.1227 21.3307 15.7948 21.0187 15.4595C20.8633 15.2924 20.7531 15.1349 20.6865 15.0082C20.612 14.8668 20.6205 14.8193 20.619 14.8547L19.2934 14.7979C19.2805 15.0998 19.3894 15.3928 19.5123 15.6262C19.6429 15.8743 19.8268 16.1262 20.0472 16.3631C20.4868 16.8358 21.1147 17.2952 21.8713 17.5598L22.3092 16.3073ZM19.5856 15.3766C20.4708 15.9728 21.3609 16.4547 22.159 16.7336L22.5967 15.481C21.9421 15.2522 21.156 14.8345 20.3268 14.2761L19.5856 15.3766ZM22.159 16.7336C22.6641 16.91 23.1789 17.0224 23.6401 16.987L23.5385 15.6641C23.3417 15.6792 23.028 15.6317 22.5967 15.481L22.159 16.7336ZM23.6376 16.9872C24.0076 16.9602 24.4324 16.8217 24.6989 16.4263L23.5986 15.6848C23.6062 15.6736 23.6153 15.6636 23.6245 15.6559C23.6335 15.6484 23.6394 15.6456 23.639 15.6458C23.6367 15.6469 23.6089 15.6589 23.5409 15.6639L23.6376 16.9872ZM24.6979 16.4278C24.7695 16.3222 24.821 16.2109 24.8588 16.1022L23.6057 15.666C23.5979 15.6884 23.5941 15.6915 23.5996 15.6833L24.6979 16.4278ZM24.8588 16.1022C25.1393 15.2965 25.4168 14.8076 25.7317 14.2532L24.5782 13.5975C24.2556 14.1653 23.9278 14.7409 23.6057 15.666L24.8588 16.1022ZM25.7317 14.2532C25.9282 13.9077 26.1437 13.5289 26.3692 13.0394L25.1642 12.4839C24.9647 12.9169 24.7743 13.2527 24.5782 13.5975L25.7317 14.2532ZM26.3692 13.0394C26.677 12.3723 26.628 11.7425 26.5118 11.2984C26.3994 10.8689 26.2139 10.5715 26.1644 10.5053L25.1023 11.3006C25.0546 11.2368 25.1615 11.3796 25.2281 11.6343C25.291 11.8744 25.3079 12.1725 25.1642 12.4839L26.3692 13.0394ZM25.9946 11.4594L26.7282 10.9831L26.0057 9.87017L25.2721 10.3465L25.9946 11.4594ZM20.6084 20.1197C21.0209 20.6137 21.6087 21.7448 22.3353 23.3659C23.0485 24.9571 23.8584 26.9322 24.7248 29.0451L25.9525 28.5418C25.0888 26.4355 24.2699 24.4381 23.5461 22.8232C22.8357 21.2382 22.1781 19.9294 21.6271 19.2694L20.6084 20.1197ZM24.7248 29.0451C25.9024 31.9179 27.1836 35.042 28.4319 37.712L29.6339 37.15C28.4017 34.5146 27.1329 31.4217 25.9525 28.5418L24.7248 29.0451ZM28.7019 36.8561C28.4583 36.9963 28.211 37.131 27.9597 37.2606L28.5681 38.4398C28.8367 38.3012 29.102 38.1568 29.364 38.0059L28.7019 36.8561ZM28.8648 37.5689C27.6183 34.906 26.3369 31.782 25.145 28.8744L23.9173 29.3776C25.1063 32.2781 26.4002 35.4336 27.6631 38.1314L28.8648 37.5689ZM25.145 28.8744C24.2953 26.8018 23.4899 24.8373 22.7865 23.2594C22.4348 22.4703 22.1049 21.7695 21.8047 21.1954C21.5098 20.6317 21.2243 20.1521 20.9567 19.8313L19.9378 20.6813C20.1096 20.8873 20.3415 21.2609 20.6289 21.8104C20.9109 22.3495 21.228 23.022 21.5746 23.7996C22.268 25.3553 23.0651 27.2989 23.9173 29.3776L25.145 28.8744ZM20.9567 19.8313C19.9955 18.6802 18.8623 18.4334 17.9712 18.5028C17.1143 18.5695 16.4954 18.927 16.5014 18.924L17.0957 20.1104C17.1076 20.1044 17.5099 19.8696 18.0742 19.8256C18.6044 19.7843 19.2925 19.9086 19.9378 20.6813L20.9567 19.8313ZM17.3265 19.9189C17.7028 19.4244 18.2789 19.2105 18.9077 19.2562C19.5471 19.3025 20.19 19.6183 20.6084 20.1197L21.6271 19.2694C20.9685 18.4802 19.987 18.0041 19.0037 17.9328C18.0097 17.8607 16.9646 18.2034 16.2706 19.1155L17.3265 19.9189ZM22.7464 24.2332C22.747 24.2337 23.8382 25.1172 25.0878 26.3014C26.3586 27.5056 27.7116 28.9454 28.3067 30.0648L29.4782 29.4419C28.7695 28.1088 27.2646 26.5361 26.0004 25.3382C25.357 24.7285 24.7553 24.197 24.3138 23.8174C24.0929 23.6274 23.9116 23.4751 23.7848 23.3695C23.7214 23.3168 23.6715 23.2757 23.637 23.2475C23.6198 23.2333 23.6064 23.2224 23.5972 23.2148C23.5925 23.2111 23.5889 23.2081 23.5863 23.206C23.585 23.205 23.584 23.2042 23.5833 23.2035C23.5831 23.2034 23.5814 23.202 23.5821 23.2026L22.7464 24.2332ZM28.3067 30.0648C28.8741 31.1315 29.0425 32.1742 28.9513 33.1122L30.2719 33.2409C30.3884 32.0427 30.1679 30.7386 29.4782 29.4419L28.3067 30.0648ZM28.9513 33.1122C28.8437 34.2133 28.3778 35.1826 27.7472 35.8859L28.735 36.7717C29.5476 35.8656 30.1358 34.6331 30.2719 33.2409L28.9513 33.1122ZM28.6854 35.8361L28.0353 35.2498L27.1467 36.2351L27.7968 36.8214L28.6854 35.8361ZM28.0848 36.1854C28.782 35.4083 29.287 34.3513 29.4033 33.1583L28.0827 33.0296C27.9949 33.9306 27.6126 34.7247 27.0971 35.2995L28.0848 36.1854ZM29.4033 33.1583C29.5043 32.1175 29.3093 30.9832 28.7087 29.8533L27.5371 30.4761C28.0169 31.3788 28.1582 32.2518 28.0827 33.0296L29.4033 33.1583ZM28.7087 29.8533C28.0411 28.5977 26.5887 27.0905 25.3705 25.9414C24.7494 25.3554 24.1673 24.8426 23.7399 24.4758C23.526 24.2923 23.3505 24.1449 23.2275 24.0427C23.1661 23.9916 23.1177 23.9518 23.0843 23.9245C23.0676 23.9108 23.0546 23.9002 23.0456 23.8928C23.0411 23.8892 23.0376 23.8863 23.0351 23.8843C23.0339 23.8833 23.0329 23.8825 23.0321 23.8819C23.0318 23.8816 23.0315 23.8813 23.0313 23.8812C23.0312 23.8812 23.0309 23.8809 23.0313 23.8812L22.1953 24.9116C22.1962 24.9122 23.2541 25.7689 24.4601 26.9065C25.6886 28.0655 26.9848 29.4375 27.5371 30.4761L28.7087 29.8533ZM23.1281 24.8146L23.6792 24.1362L22.6493 23.2996L22.0983 23.978L23.1281 24.8146ZM14.8093 13.3038C14.8188 13.315 14.8168 13.3111 14.8299 13.3294C14.8448 13.3503 14.8733 13.3935 14.9073 13.4616C14.9746 13.5965 15.0669 13.8362 15.114 14.2038C15.2082 14.9384 15.1258 16.2216 14.2408 18.2336L15.4554 18.7679C16.4104 16.5967 16.5625 15.0679 16.4301 14.0352C16.364 13.5191 16.2279 13.1363 16.0946 12.8692C16.0282 12.7362 15.9634 12.6335 15.9099 12.5585C15.8544 12.4808 15.8088 12.431 15.8175 12.4411L14.8093 13.3038ZM14.2426 18.2296C14.2137 18.2941 14.1662 18.4003 14.0627 18.6322L15.2745 19.1727C15.3776 18.9416 15.4249 18.8361 15.4536 18.7719L14.2426 18.2296ZM14.0627 18.6322C13.2622 20.4319 12.0427 23.1667 11.8822 26.7816C11.7211 30.4087 12.6262 34.8659 15.9616 40.1427L17.0832 39.4338C13.8794 34.3651 13.0598 30.173 13.2077 26.8404C13.3562 23.4956 14.4794 20.9603 15.2745 19.1727L14.0627 18.6322ZM16.6195 39.132C16.2432 39.0763 15.8708 39.009 15.5016 38.9306L15.226 40.2286C15.6216 40.3125 16.0212 40.3848 16.4253 40.4445L16.6195 39.132ZM15.932 39.2372C12.8764 34.1658 12.1347 29.9535 12.33 26.5894C12.5259 23.2127 13.6665 20.6389 14.4776 18.8155L13.2652 18.2762C12.4494 20.1103 11.2164 22.8755 11.0053 26.5125C10.7936 30.1619 11.6115 34.6376 14.7955 39.922L15.932 39.2372ZM14.4788 18.8126C14.497 18.7712 14.5138 18.7339 14.6543 18.4135L13.4395 17.8799C13.2978 18.203 13.2854 18.2302 13.264 18.2791L14.4788 18.8126ZM14.6543 18.4135C15.4861 16.5233 15.6784 15.2437 15.6234 14.3894C15.5958 13.9597 15.5054 13.64 15.4042 13.4103C15.3538 13.296 15.3017 13.2062 15.2554 13.138C15.2076 13.0677 15.1607 13.0153 15.1763 13.0339L14.1562 13.8825C14.1725 13.902 14.1571 13.8825 14.1576 13.8833C14.1596 13.8863 14.1726 13.9058 14.19 13.9454C14.2244 14.0235 14.281 14.1898 14.2993 14.4746C14.3363 15.0491 14.2177 16.1114 13.4395 17.8799L14.6543 18.4135ZM15.1114 13.9501L15.7586 13.3643L14.8682 12.3806L14.221 12.9663L15.1114 13.9501ZM23.5428 39.3995C22.1345 36.3095 20.6787 33.5389 19.5742 31.5393C19.0217 30.5392 18.5566 29.731 18.2286 29.1711C17.9063 28.621 17.7021 28.2869 17.7105 28.301L16.5685 28.9766C16.5792 28.9947 19.5534 33.8455 22.3355 39.9498L23.5428 39.3995ZM16.8007 29.2092C17.2821 29.4952 17.8359 30.0419 18.4339 30.8158C19.0242 31.5797 19.6241 32.5206 20.2084 33.5455C21.3767 35.5947 22.4552 37.9305 23.2437 39.7465L24.4608 39.218C23.665 37.3854 22.5644 34.9989 21.361 32.8883C20.7595 31.8332 20.1254 30.8348 19.4838 30.0045C18.85 29.1842 18.1741 28.4818 17.4784 28.0685L16.8007 29.2092ZM23.6989 38.8368C23.4091 38.9056 23.1155 38.9671 22.8179 39.0224L23.0604 40.3269C23.3775 40.268 23.6926 40.202 24.0055 40.1277L23.6989 38.8368ZM21.6868 16.2363C21.6901 16.233 21.3925 16.5009 21.0281 17.0164C20.6661 17.5284 20.2347 18.288 19.9333 19.2986L21.2049 19.6778C21.4588 18.826 21.8195 18.1954 22.1116 17.7823C22.4012 17.3725 22.6195 17.1801 22.6259 17.1737L21.6868 16.2363ZM20.7589 18.8525L19.9208 18.6023L19.5413 19.8737L20.3793 20.1239L20.7589 18.8525ZM20.3668 19.4276C20.9448 17.4888 22.067 16.508 22.0004 16.5636L21.1501 15.5451C21.0762 15.6067 19.7672 16.7944 19.0953 19.0485L20.3668 19.4276ZM21.0804 16.4963L21.6615 17.1469L22.6512 16.2631L22.0701 15.6124L21.0804 16.4963ZM22.4829 13.6615C22.7036 14.2872 22.7035 14.2872 22.7035 14.2872C22.704 14.2871 22.7052 14.2866 22.7063 14.2862C22.7083 14.2855 22.7116 14.2844 22.7159 14.2828C22.7246 14.2798 22.7377 14.2752 22.7547 14.2694C22.7888 14.2576 22.8384 14.2406 22.8997 14.22C23.0226 14.1787 23.1913 14.1232 23.3751 14.0664C23.7673 13.9451 24.149 13.8431 24.3319 13.825L24.201 12.5046C23.8622 12.5382 23.3521 12.6846 22.9831 12.7987C22.7861 12.8596 22.6067 12.9186 22.4767 12.9624C22.4116 12.9843 22.3586 13.0024 22.3216 13.0152C22.303 13.0216 22.2885 13.0267 22.2785 13.0302C22.2735 13.0319 22.2696 13.0333 22.2668 13.0342C22.2655 13.0347 22.2644 13.0351 22.2636 13.0354C22.2639 13.0353 22.2633 13.0355 22.2636 13.0354C22.2635 13.0354 22.2624 13.0359 22.2623 13.0359C22.2623 13.0359 22.2623 13.0359 22.4829 13.6615ZM24.3319 13.825C24.3774 13.8205 24.355 13.8315 24.2994 13.8072C24.2383 13.7804 24.187 13.7329 24.1539 13.6804C24.1253 13.6351 24.1162 13.5964 24.1128 13.5767C24.1108 13.5653 24.1096 13.5541 24.109 13.5426C24.1087 13.5367 24.1086 13.5304 24.1085 13.5235C24.1085 13.52 24.1086 13.5163 24.1086 13.5125C24.1087 13.5106 24.1087 13.5086 24.1088 13.5065C24.1088 13.5055 24.1088 13.5045 24.1089 13.5034C24.1089 13.5029 24.1089 13.5023 24.1089 13.5018C24.1089 13.5015 24.109 13.5003 24.109 13.5002C24.109 13.4998 24.109 13.5002 24.7719 13.5262C25.4348 13.5522 25.4348 13.5518 25.4349 13.5514C25.4349 13.5516 25.4349 13.5513 25.4349 13.5514C25.4349 13.5508 25.4349 13.5494 25.435 13.5489C25.435 13.5477 25.435 13.5465 25.4351 13.5453C25.4351 13.5429 25.4352 13.5403 25.4353 13.5376C25.4354 13.5321 25.4354 13.5262 25.4354 13.5197C25.4354 13.5067 25.435 13.4916 25.4341 13.4745C25.4324 13.4407 25.4284 13.3976 25.4198 13.3482C25.4031 13.2527 25.3655 13.1139 25.2757 12.9718C25.1814 12.8225 25.0364 12.6814 24.8316 12.5917C24.6324 12.5045 24.4164 12.4832 24.201 12.5046L24.3319 13.825ZM24.7719 13.5262C24.9867 14.1539 24.9869 14.1539 24.9867 14.1539C24.9869 14.1538 24.9866 14.154 24.9867 14.1539C24.9865 14.1539 24.9855 14.1543 24.9852 14.1544C24.9848 14.1546 24.9844 14.1547 24.9839 14.1548C24.9831 14.1551 24.9823 14.1554 24.9816 14.1556C24.9927 14.153 24.9987 14.153 24.995 14.1532C24.9923 14.1533 24.981 14.1537 24.9629 14.1514C24.9452 14.1492 24.913 14.1436 24.8727 14.1275C24.8311 14.1109 24.7784 14.0822 24.727 14.0339C24.674 13.9841 24.6345 13.9247 24.6099 13.863L25.8416 13.3698C25.6267 12.8329 25.0843 12.8212 24.9378 12.8275C24.8315 12.8321 24.7394 12.8499 24.6789 12.8641C24.6472 12.8716 24.6204 12.8789 24.6 12.8849C24.5898 12.888 24.581 12.8907 24.5739 12.893C24.5703 12.8941 24.5671 12.8952 24.5643 12.8961C24.5629 12.8966 24.5616 12.897 24.5604 12.8974C24.5598 12.8976 24.5593 12.8978 24.5587 12.898C24.559 12.8979 24.5584 12.8981 24.5587 12.898C24.5586 12.8981 24.5576 12.8983 24.5575 12.8984C24.5573 12.8984 24.5572 12.8985 24.7719 13.5262ZM24.6104 13.8645C24.5603 13.7402 24.5808 13.6389 24.5911 13.6036C24.6008 13.5707 24.6094 13.5651 24.5948 13.5857C24.5824 13.603 24.5631 13.6252 24.5405 13.6464C24.5163 13.6692 24.5033 13.6769 24.5099 13.6728L25.202 14.8049C25.3633 14.7063 25.5424 14.542 25.6747 14.3566C25.7766 14.2138 26.0226 13.8186 25.841 13.3683L24.6104 13.8645ZM24.856 14.2388C24.1953 14.2991 24.1953 14.2994 24.1953 14.2991C24.1953 14.299 24.1952 14.2981 24.1952 14.2979C24.1951 14.2975 24.1951 14.2972 24.1951 14.2968C24.195 14.296 24.1949 14.2953 24.1949 14.2947C24.1948 14.2933 24.1947 14.2921 24.1946 14.291C24.1944 14.2888 24.1943 14.2871 24.1942 14.2858C24.1941 14.2834 24.1941 14.2826 24.1941 14.2832C24.1941 14.2847 24.1942 14.2906 24.1936 14.2991C24.193 14.3078 24.192 14.3165 24.1905 14.3243C24.1889 14.3322 24.1876 14.3356 24.1879 14.3349C24.1882 14.334 24.2016 14.3004 24.2445 14.2687C24.2931 14.2328 24.3236 14.2404 24.2865 14.24L24.2728 15.5668C24.5544 15.5697 24.8164 15.4958 25.0329 15.3359C25.2435 15.1803 25.3611 14.9802 25.4259 14.8123C25.4896 14.647 25.5105 14.4926 25.5175 14.3881C25.5211 14.3338 25.5214 14.2873 25.5206 14.2521C25.5202 14.2344 25.5195 14.2192 25.5187 14.2069C25.5184 14.2007 25.518 14.1953 25.5176 14.1905C25.5175 14.1882 25.5173 14.186 25.5171 14.184C25.517 14.183 25.5169 14.182 25.5169 14.1811C25.5168 14.1807 25.5168 14.1802 25.5168 14.1798C25.5168 14.1799 25.5167 14.1796 25.5168 14.1798C25.5168 14.1795 25.5166 14.1786 24.856 14.2388ZM24.2865 14.24C24.2569 14.2397 24.2033 14.2427 23.9378 13.987C23.7038 13.7617 23.3447 13.3789 22.8031 13.0804L22.1628 14.2426C22.5162 14.4373 22.7364 14.6721 23.0175 14.9428C23.267 15.1831 23.6643 15.5604 24.2728 15.5668L24.2865 14.24ZM15.7139 38.9713C11.3399 38.0944 7.57757 35.7305 4.90833 32.4681L3.88138 33.3082C6.73863 36.8004 10.7684 39.333 15.4531 40.2723L15.7139 38.9713ZM4.90833 32.4681C2.23785 29.2038 0.662796 25.0441 0.662796 20.575H-0.664062C-0.664062 25.3598 1.02297 29.8143 3.88138 33.3082L4.90833 32.4681ZM0.662796 20.575C0.662796 15.9326 2.35844 11.6383 5.2017 8.33101L4.19555 7.46601C1.15213 11.0061 -0.664062 15.605 -0.664062 20.575H0.662796ZM5.2017 8.33101C8.04367 5.02509 12.0308 2.70942 16.6144 2.02061L16.4172 0.708493C11.5086 1.44614 7.23785 3.92706 4.19555 7.46601L5.2017 8.33101ZM15.8593 1.46044L15.986 2.32762L17.2989 2.13585L17.1723 1.26867L15.8593 1.46044ZM16.5439 1.57567C11.8495 2.28085 7.76547 4.6542 4.8559 8.03852L5.86204 8.90352C8.5714 5.75208 12.3719 3.54413 16.741 2.8878L16.5439 1.57567ZM4.8559 8.03852C1.94743 11.4217 0.211794 15.8192 0.211794 20.575H1.53866C1.53866 16.1465 3.15398 12.0537 5.86204 8.90352L4.8559 8.03852ZM0.211794 20.575C0.211794 25.1538 1.82362 29.4141 4.55555 32.7532L5.58248 31.913C3.03886 28.8041 1.53866 24.8388 1.53866 20.575H0.211794ZM4.55555 32.7532C7.28745 36.0922 11.1419 38.5134 15.6248 39.4123L15.8856 38.1113C11.7131 37.2747 8.12614 35.0219 5.58248 31.913L4.55555 32.7532ZM15.1046 38.6319L14.9329 39.4919L16.2341 39.7517L16.4058 38.8917L15.1046 38.6319ZM38.0681 19.2262C38.4595 24.6662 36.4918 29.9749 32.6317 33.8417L33.5708 34.7791C37.7033 30.6393 39.8105 24.9536 39.3915 19.131L38.0681 19.2262ZM32.6317 33.8417C29.2421 37.2374 24.5609 39.3366 19.3901 39.3366V40.6635C24.9277 40.6635 29.9427 38.4136 33.5708 34.7791L32.6317 33.8417ZM19.3901 39.3366C19.0825 39.3366 18.7596 39.328 18.4219 39.3105L18.353 40.6355C18.7117 40.6541 19.0577 40.6635 19.3901 40.6635V39.3366ZM18.4219 39.3105C18.0993 39.2936 17.7779 39.2686 17.4565 39.235L17.3184 40.5547C17.6633 40.5908 18.008 40.6175 18.353 40.6355L18.4219 39.3105ZM18.0474 39.9626L18.1369 39.0918L16.8169 38.9562L16.7275 39.827L18.0474 39.9626ZM17.4082 39.6839C17.7374 39.7182 18.0675 39.7437 18.3977 39.7611L18.4679 38.4361C18.1594 38.4198 17.8515 38.396 17.5456 38.3642L17.4082 39.6839ZM18.3977 39.7611C18.7153 39.778 19.0467 39.7861 19.3907 39.7861V38.4592C19.0671 38.4592 18.7591 38.4516 18.4679 38.4361L18.3977 39.7611ZM19.3907 39.7861C24.687 39.7861 29.4823 37.6348 32.9525 34.1585L32.0134 33.2211C28.7817 36.4586 24.3201 38.4592 19.3907 38.4592V39.7861ZM32.9525 34.1585C38.1393 28.9619 39.0913 21.7634 39.3886 19.2567L38.071 19.1005C37.7751 21.5949 36.8518 28.3735 32.0134 33.2211L32.9525 34.1585ZM17.8498 38.8976L17.076 39.3091L17.6989 40.4806L18.4727 40.0691L17.8498 38.8976ZM17.3874 39.8948C17.9002 39.4739 17.9003 39.474 17.9004 39.4741C17.9005 39.4742 17.9005 39.4742 17.9004 39.4741C17.9003 39.4739 17.8998 39.4734 17.8992 39.4726C17.8978 39.4709 17.8955 39.4681 17.8923 39.4641C17.8858 39.456 17.8756 39.4432 17.8618 39.4258C17.8342 39.3908 17.7925 39.3373 17.7384 39.266C17.6302 39.1232 17.4728 38.9092 17.2806 38.6302C16.896 38.0719 16.3732 37.2547 15.827 36.228C14.7327 34.1706 13.5561 31.2934 13.1946 27.984L11.8756 28.128C12.261 31.6563 13.5105 34.6984 14.6556 36.8511C15.2292 37.9293 15.7794 38.7898 16.1879 39.3829C16.3923 39.6796 16.5615 39.9097 16.6808 40.0672C16.7404 40.1459 16.7876 40.2065 16.8205 40.2482C16.837 40.2691 16.8499 40.2852 16.859 40.2965C16.8635 40.3021 16.8671 40.3065 16.8698 40.3098C16.8711 40.3114 16.8721 40.3127 16.873 40.3137C16.8734 40.3142 16.8737 40.3146 16.874 40.315C16.8741 40.3151 16.8746 40.3157 16.8747 40.3158C16.8748 40.316 16.8747 40.3158 17.3874 39.8948ZM13.1946 27.984C12.8313 24.657 13.4063 22.7889 14.1141 21.7651C14.8173 20.7478 15.7044 20.4851 16.1605 20.4623L16.0943 19.1371C15.2627 19.1787 13.9803 19.6253 13.0226 21.0106C12.0694 22.3895 11.4922 24.6174 11.8756 28.128L13.1946 27.984ZM16.1274 19.7997C15.7792 19.235 15.7789 19.2352 15.7786 19.2353C15.7788 19.2352 15.7785 19.2354 15.7786 19.2353C15.7782 19.2356 15.7771 19.2363 15.7766 19.2366C15.7756 19.2372 15.7745 19.2379 15.7732 19.2387C15.7707 19.2403 15.7677 19.2422 15.7641 19.2445C15.757 19.249 15.7478 19.255 15.7366 19.2624C15.7143 19.2771 15.6843 19.2975 15.6476 19.3237C15.5741 19.376 15.4737 19.4517 15.3547 19.5515C15.1172 19.7508 14.8035 20.0487 14.4844 20.4525C13.8438 21.2633 13.182 22.5015 13.0754 24.2085L14.3997 24.2912C14.4864 22.9024 15.0195 21.9155 15.5255 21.2751C15.7797 20.9534 16.0273 20.7192 16.2076 20.5679C16.2976 20.4924 16.3702 20.438 16.4177 20.4042C16.4414 20.3873 16.4587 20.3756 16.4687 20.369C16.4737 20.3657 16.4769 20.3636 16.4781 20.3629C16.4779 20.3631 16.4769 20.3636 16.4766 20.3638C16.4767 20.3638 16.4764 20.3639 16.4766 20.3638C16.4763 20.364 16.4756 20.3644 16.1274 19.7997ZM13.0754 24.2085C12.9676 25.9344 13.6957 28.1857 14.7376 30.3531C15.7921 32.5465 17.2218 34.7637 18.6366 36.4527L19.6537 35.6006C18.3131 34.0001 16.9424 31.8768 15.9335 29.7782C14.9121 27.6535 14.3141 25.6613 14.3997 24.2912L13.0754 24.2085ZM19.1452 36.0266C19.3823 36.6463 19.3822 36.6463 19.3823 36.6463C19.3825 36.6462 19.3831 36.646 19.3833 36.6459C19.3837 36.6457 19.3842 36.6455 19.3847 36.6453C19.3858 36.6449 19.3872 36.6443 19.3889 36.6437C19.3923 36.6424 19.3968 36.6406 19.4024 36.6384C19.4136 36.634 19.4291 36.6278 19.4485 36.6199C19.4871 36.6041 19.5414 36.5814 19.6072 36.5523C19.7382 36.4945 19.9183 36.4101 20.1151 36.3038C20.4809 36.1059 21.0095 35.7773 21.326 35.3365L20.2481 34.5627C20.1203 34.7406 19.828 34.9506 19.484 35.1366C19.3258 35.2221 19.1787 35.291 19.0713 35.3385C19.0179 35.362 18.9751 35.38 18.9465 35.3916C18.9322 35.3975 18.9216 35.4017 18.915 35.4043C18.9117 35.4056 18.9095 35.4065 18.9083 35.4069C18.9084 35.4069 18.9081 35.407 19.1452 36.0266ZM21.326 35.3365C21.2568 35.4328 21.1007 35.561 20.8731 35.5571C20.6986 35.5541 20.5997 35.472 20.5979 35.4706C20.5898 35.4642 20.6423 35.5119 20.7492 35.6826C20.9447 35.9948 21.1842 36.4896 21.4244 37.038C21.6608 37.5779 21.8849 38.1396 22.0506 38.5683C22.1332 38.7822 22.2009 38.9619 22.2478 39.0878C22.2712 39.1508 22.2895 39.2003 22.3018 39.2338C22.308 39.2506 22.3126 39.2634 22.3157 39.2719C22.3173 39.2761 22.3184 39.2793 22.3192 39.2814C22.3195 39.2824 22.3198 39.2831 22.32 39.2836C22.3199 39.2835 22.3201 39.2838 22.32 39.2836C22.32 39.2836 22.3202 39.2842 22.9439 39.0582C23.5677 38.8322 23.5677 38.8322 23.5677 38.8322C23.5677 38.8323 23.5676 38.8321 23.5677 38.8322C23.5676 38.832 23.5674 38.8314 23.5673 38.831C23.567 38.8304 23.5667 38.8294 23.5662 38.8282C23.5653 38.8257 23.564 38.8221 23.5623 38.8174C23.5589 38.808 23.5539 38.7944 23.5474 38.7767C23.5344 38.7413 23.5154 38.6898 23.4912 38.6247C23.4427 38.4945 23.3731 38.3097 23.2882 38.0901C23.1189 37.6518 22.887 37.0703 22.6398 36.5057C22.3962 35.9495 22.1243 35.3786 21.8737 34.9784C21.7576 34.7929 21.6033 34.5728 21.4166 34.4263C21.3254 34.3549 21.1442 34.2347 20.8958 34.2304C20.5943 34.2253 20.3728 34.389 20.2481 34.5627L21.326 35.3365ZM22.8852 38.3974L18.1025 38.8225L18.22 40.1442L23.0027 39.719L22.8852 38.3974ZM23.7498 25.9088C24.429 26.5149 25.0909 27.1392 25.7191 27.7868L26.6717 26.8631C26.0164 26.1876 25.3305 25.5412 24.6338 24.9193L23.7498 25.9088ZM25.7191 27.7868C26.4758 28.5677 27.3006 29.4863 27.7627 30.3561L28.9344 29.7336C28.3748 28.6801 27.4266 27.6422 26.6717 26.8631L25.7191 27.7868ZM27.7627 30.3561C28.213 31.2033 28.4274 32.1284 28.3372 33.0541L29.6578 33.1828C29.7765 31.964 29.4903 30.7795 28.9344 29.7336L27.7627 30.3561ZM28.3372 33.0541C28.2711 33.7335 28.0435 34.3911 27.6752 34.9624L28.7901 35.6817C29.2741 34.9311 29.5714 34.0706 29.6578 33.1828L28.3372 33.0541ZM27.6752 34.9624L27.4184 35.3603L28.5332 36.0798L28.7901 35.6817L27.6752 34.9624ZM28.5834 35.4537L28.3931 35.0195L27.1778 35.5521L27.3681 35.9863L28.5834 35.4537ZM28.3931 35.0195C27.4688 32.9113 26.5954 30.779 25.7177 28.6391L24.49 29.1424C25.3664 31.2794 26.2459 33.4267 27.1778 35.5521L28.3931 35.0195ZM25.7177 28.6391C25.2821 27.5764 24.8453 26.5101 24.3998 25.4476L23.176 25.9601C23.619 27.0168 24.054 28.0787 24.49 29.1424L25.7177 28.6391ZM24.3998 25.4476L23.9648 24.4077L22.7407 24.9198L23.176 25.9601L24.3998 25.4476ZM22.9105 25.1582L23.7498 25.9088L24.6338 24.9193L23.795 24.1692L22.9105 25.1582ZM29.8406 4.08335C29.8919 4.28505 29.8412 4.62188 29.4413 5.12352C29.0498 5.61461 28.3987 6.16231 27.5034 6.7234C25.7194 7.84137 23.0968 8.93153 20.0603 9.70635L20.3883 10.9921C23.5204 10.1929 26.2788 9.0567 28.208 7.84772C29.1692 7.24533 29.9577 6.60438 30.4789 5.95059C30.9916 5.30735 31.3266 4.54307 31.1266 3.75638L29.8406 4.08335ZM20.0603 9.70635C17.0237 10.4812 14.2001 10.7807 12.0998 10.6539C11.0456 10.5903 10.2125 10.4214 9.63439 10.1778C9.04402 9.92905 8.83901 9.65788 8.78778 9.45643L7.50184 9.7834C7.70193 10.5704 8.36142 11.0813 9.11922 11.4006C9.88931 11.725 10.888 11.91 12.0198 11.9784C14.2914 12.1155 17.2562 11.7913 20.3883 10.9921L20.0603 9.70635ZM8.78778 9.45643C8.7365 9.25473 8.78721 8.91789 9.18709 8.41626C9.57857 7.92516 10.2297 7.37747 11.125 6.81638C12.909 5.69841 15.5316 4.60825 18.5681 3.83343L18.2401 2.54777C15.108 3.34697 12.3496 4.48308 10.4204 5.69206C9.45919 6.29445 8.67071 6.9354 8.14954 7.58918C7.63678 8.23243 7.30182 8.9967 7.50184 9.7834L8.78778 9.45643ZM18.5681 3.83343C21.6047 3.05861 24.4283 2.7591 26.5286 2.8859C27.5828 2.94954 28.4159 3.11844 28.994 3.36199C29.5844 3.61072 29.7894 3.88189 29.8406 4.08335L31.1266 3.75638C30.9265 2.96944 30.267 2.4585 29.5092 2.13923C28.7391 1.81478 27.7404 1.62978 26.6086 1.56145C24.337 1.42431 21.3722 1.74856 18.2401 2.54777L18.5681 3.83343Z" fill="black"/>
    </g>
    </g>
    <defs>
    <clipPath id="clip0_961_101">
    <rect width="191" height="40" fill="white"/>
    </clipPath>
    </defs>
    </svg>
    