<svg width="350" height="100" viewBox="0 0 350 100" fill="none" xmlns="http://www.w3.org/2000/svg">
<g clip-path="url(#clip0_1_10)">
<path d="M2.84702 0.0305587C2.02866 0.205529 1.25321 0.665976 0.750551 1.2707C0.48083 1.60222 0.149808 2.2714 0.0670532 2.67046C-0.0157021 3.05723 -0.0218321 15.1793 0.0425331 57.6694C0.0885082 86.033 0.0701182 84.1328 0.318384 84.7652C0.575845 85.4221 1.21337 86.1619 1.8325 86.5241C2.2095 86.739 2.75507 86.9201 3.23014 86.9753C3.77265 87.0337 46.1801 87.0306 46.6797 86.9661C47.5012 86.8648 48.1755 86.5394 48.7486 85.9654C50.1064 84.6025 50.1463 82.4844 48.8344 81.0785C48.3747 80.5874 47.8444 80.262 47.1609 80.0533C46.8943 79.9704 46.0821 79.9673 27.6031 79.9428L8.32113 79.9213L8.06366 79.8016C7.70199 79.6327 7.45373 79.3872 7.27902 79.0341L7.12884 78.7272L7.10125 66.5345C7.08899 59.8304 7.0706 46.3546 7.06447 36.5901C7.05528 20.3424 7.06141 18.8199 7.12271 18.6326C7.51809 17.5429 8.72264 17.0426 9.74023 17.5491C9.91493 17.635 10.1356 17.7885 10.2276 17.8836C10.3195 17.9788 22.4845 36.1818 37.2548 58.3355C52.0251 80.4922 64.2055 98.7229 64.3189 98.8579C64.7051 99.3122 65.3364 99.7175 65.9617 99.9108C66.3939 100.043 67.4513 100.031 67.9111 99.8894C68.9194 99.5732 69.6489 98.9654 70.0933 98.066C70.4642 97.3139 70.4366 98.7075 70.4336 82.6809C70.4305 74.8011 70.4121 56.5889 70.3876 42.2198C70.3477 16.312 70.3477 16.0818 70.2558 15.7195C70.078 15.0074 69.7838 14.4948 69.2505 13.9913C68.6528 13.4265 68.0459 13.138 67.2184 13.0305C66.6759 12.9661 24.2868 12.9661 23.7504 13.0336C22.929 13.1349 22.2547 13.4603 21.6815 14.0343C20.3237 15.3972 20.2839 17.5153 21.5957 18.9212C22.0554 19.4123 22.5857 19.7377 23.2692 19.9465C23.5358 20.0293 24.3481 20.0324 42.827 20.057L62.109 20.0784L62.4155 20.2289C62.768 20.4038 63.0132 20.6525 63.1817 21.0147L63.3013 21.2725L63.3289 33.3977C63.3411 40.0649 63.3595 53.5407 63.3656 63.3421C63.3779 79.6726 63.3687 81.1798 63.3074 81.3671C63.0009 82.202 62.2285 82.7024 61.3458 82.6441C60.9596 82.6164 60.457 82.3831 60.2026 82.1161C60.1106 82.0209 47.9456 63.8179 33.1753 41.6642C18.405 19.5075 6.22466 1.27684 6.11125 1.14177C5.73119 0.696673 5.09674 0.288409 4.49293 0.098091C4.19869 0.00907113 3.16271 -0.033904 2.84702 0.0305587Z" fill="black"/>
<path d="M318.694 22.4606C312.196 23.6393 306.602 27.3598 303.001 32.8913C299.853 37.7229 298.314 43.3465 298.314 49.9892C298.314 58.4031 300.782 65.3405 305.539 70.3993C309.253 74.3438 313.6 76.6583 319.012 77.5639C322.341 78.1072 327.775 77.9046 330.788 77.1341C340.026 74.7306 346.411 67.52 348.7 56.9512C349.108 55.002 349.2 53.9122 349.2 50.1028C349.2 46.2934 349.132 45.2282 348.679 43.1869C347.388 37.155 345.372 33.186 341.749 29.3765C338.104 25.5671 333.78 23.2771 328.615 22.436C326.08 22.0063 321.054 22.0278 318.697 22.4575L318.694 22.4606ZM326.212 28.2193C330.491 28.7626 333.663 30.3956 336.56 33.5021C340.161 37.3576 342.107 43.0273 342.129 49.7621C342.175 59.5358 338.46 66.8846 331.781 70.1722C329.427 71.3509 327.797 71.7592 324.876 71.9188C321.072 72.1214 317.722 71.397 314.911 69.7885C312.852 68.5852 309.839 65.5032 308.595 63.3023C305.425 57.6541 304.543 49.6055 306.329 42.5085C308.864 32.5076 316.496 27.019 326.209 28.2223L326.212 28.2193Z" fill="black"/>
<path d="M222.826 76.7504H214.946L199.106 32.8175C198.717 31.7401 197.196 31.737 196.801 32.8114L180.667 76.7504H173.36C173.36 76.7504 194.101 23.4858 194.159 23.3906C194.205 23.3016 202.039 23.3446 202.039 23.3446L222.826 76.7504Z" fill="black"/>
<path d="M231.877 23.3354H239.757L255.597 67.2683C255.986 68.3457 257.507 68.3488 257.902 67.2744L274.036 23.3354H281.343C281.343 23.3354 260.602 76.6 260.544 76.6952C260.498 76.7842 252.664 76.7412 252.664 76.7412L231.877 23.3354Z" fill="black"/>
<path d="M153.244 23.3354V76.7504H149.349L145.432 76.729L131.507 55.2752L119.82 37.2747C119.158 36.2525 117.571 36.7191 117.568 37.9408L117.512 55.2967L117.466 76.7504H110.674V23.3354H118.349L132.298 44.866L144.104 63.0782C144.766 64.1004 146.354 63.6369 146.36 62.4152L146.452 44.9335L146.563 23.3354H153.244Z" fill="black"/>
</g>
<defs>
<clipPath id="clip0_1_10">
<rect width="349.194" height="100" fill="white"/>
</clipPath>
</defs>
</svg>
