<svg id="Layer_1" enable-background="new 0 0 512 512" height="512" viewBox="0 0 512 512" width="512" xmlns="http://www.w3.org/2000/svg" xmlns:xlink="http://www.w3.org/1999/xlink"><linearGradient id="SVGID_1_" gradientUnits="userSpaceOnUse" x1="423.266" x2="104.971" y1="492.247" y2="37.675"><stop offset=".1006" stop-color="#57ffd9"/><stop offset="1" stop-color="#2a64ff"/></linearGradient><path clip-rule="evenodd" d="m194.5 49.001v-4.001c0-20.94 17.06-38 38-38h47c20.94 0 38 17.06 38 38v4.001h-16v-4.001c0-12.107-9.893-22-22-22h-47c-12.107 0-22 9.893-22 22v4.001zm-121.636 87.499c1.92 115.861 23.273 290.648 25.876 356.971.255 6.439 5.549 11.529 11.993 11.529h290.533c6.445 0 11.739-5.089 11.993-11.529 2.603-66.322 23.956-241.11 25.876-356.971zm177.949 229.306 26.997-23.634c3.314-2.899 8.351-2.564 11.25.75s2.564 8.351-.75 11.25l-11.067 9.689h73.22l-27.485-47.604c-2.209-3.814-.908-8.697 2.906-10.906s8.697-.908 10.906 2.906l30.493 52.815c2.268 3.919 2.27 8.61.006 12.53-2.222 3.849-6.39 6.26-10.833 6.26h-79.214l11.068 9.689c3.314 2.899 3.649 7.936.75 11.25s-7.936 3.649-11.25.75l-27.06-23.688c-3.662-3.206-3.603-8.908.063-12.057zm-33.194-115.01c-3.814-2.192-5.129-7.061-2.938-10.875l29.513-51.118c2.448-4.241 6.899-6.853 11.806-6.853 4.896 0 9.342 2.602 11.793 6.83l38.643 66.9 2.855-14.416c.846-4.332 5.043-7.158 9.375-6.312s7.158 5.043 6.312 9.375l-6.986 35.278c-.931 4.723-5.821 7.585-10.406 6.031l-34.045-11.59c-4.177-1.415-6.415-5.949-5-10.125 1.415-4.177 5.949-6.415 10.125-5l13.951 4.749-36.626-63.438-27.497 47.627c-2.192 3.813-7.061 5.129-10.875 2.937zm-52.374 31.304 34.044-11.59c4.579-1.551 9.472 1.291 10.406 6.031l6.986 35.278c.846 4.332-1.981 8.529-6.312 9.375-4.332.846-8.529-1.981-9.375-6.312l-2.855-14.416-36.601 63.395h54.991c4.418 0 8 3.582 8 8s-3.582 8-8 8h-60.985c-4.438 0-8.62-2.426-10.833-6.26-2.266-3.926-2.258-8.576.006-12.499 13.476-22.552 26.448-45.83 39.603-68.626l-13.951 4.749c-4.177 1.415-8.71-.824-10.125-5-1.414-4.176.824-8.71 5.001-10.125zm-90.519-217.099h362.548c15.4 0 28 12.6 28 28v27.5h-418.548v-27.501c0-15.4 12.6-27.999 28-27.999z" fill="url(#SVGID_1_)" fill-rule="evenodd"/></svg>