<svg id="Layer_1" enable-background="new 0 0 100 100" viewBox="0 0 100 100" xmlns="http://www.w3.org/2000/svg" xmlns:xlink="http://www.w3.org/1999/xlink"><linearGradient id="lg1"><stop offset="0" stop-color="#97e0ff"/><stop offset="1" stop-color="#1075ff"/></linearGradient><linearGradient id="SVGID_1_" gradientUnits="userSpaceOnUse" x1="-7.69" x2="87.528" xlink:href="#lg1" y1="-1.377" y2="102.971"/><linearGradient id="SVGID_00000028302571502035594010000010725528002936729244_" gradientUnits="userSpaceOnUse" x1="11.945" x2="107.163" xlink:href="#lg1" y1="-19.294" y2="85.054"/><g clip-rule="evenodd" fill-rule="evenodd"><path d="m20.5900879 86.2299805c.7099609 6.4200439 6.1398926 11.2700195 12.5898437 11.2700195h33.6601562c6.4599609 0 11.8798828-4.8499756 12.5998535-11.2700195 1.2203445-11.0038071 3.3637695-31.7767563 4.5635071-43.481308.4706955-4.5920563-3.1333618-8.5786896-7.7494736-8.5786896h-52.4779166c-4.6161156 0-8.22017 3.9866333-7.7494774 8.5786896 1.1997337 11.7045517 3.3431645 32.4775009 4.5635071 43.481308zm41.3398437-36.5299683c.1601562-1.75 1.710083-3.0200195 3.4500732-2.8500366 1.7399902.1600342 3.0200195 1.710022 2.8499756 3.4500122l-2.4199219 25.3300171c-.1700439 1.7399902-1.710083 3.0200195-3.4500732 2.8499756-1.7399902-.1599731-3.0198975-1.7099609-2.8499756-3.4499512zm-15.079956.2999878c0-1.75 1.4200439-3.1699829 3.1600342-3.1699829 1.75 0 3.1699219 1.4199829 3.1699219 3.1699829v25.3300171c0 1.75-1.4199219 3.1699829-3.1699219 3.1699829-1.7399902 0-3.1600342-1.4199829-3.1600342-3.1699829zm-12.2299805-3.1500244c1.75-.1699829 3.289917 1.1000366 3.460083 2.8500366l2.4199219 25.3300171c.1599121 1.7399902-1.1099854 3.289978-2.8499756 3.4499512-1.7401123.1700439-3.2900391-1.1099854-3.460083-2.8499756l-2.4199219-25.3300171c-.1600341-1.7399902 1.1199951-3.289978 2.8499756-3.4500122z" fill="url(#SVGID_1_)"/><path d="m84.8499756 14.9899902h-19.0299072v-6.1599731c0-1.6799927-.6601562-3.2900391-1.8500977-4.4700317-1.1899414-1.1900025-2.8000488-1.8599854-4.4799805-1.8599854h-19c-1.6799316 0-3.2900391.6699829-4.4799805 1.8599854-1.1899414 1.1799927-1.8500977 2.7900391-1.8500977 4.4700317v6.1599731h-19.0098885c-3.4901123 0-6.3299561 2.8400269-6.3299561 6.3400269v2.1599731c0 3.5 2.8398438 6.3400269 6.3299561 6.3400269h69.6999512c3.4901123 0 6.3299561-2.8400269 6.3299561-6.3400269v-2.1599731c.0000008-3.5-2.8398429-6.3400269-6.3299552-6.3400269zm-25.3599854 0h-19v-6.1599731h19z" fill="url(#SVGID_00000028302571502035594010000010725528002936729244_)"/></g></svg>